{"glyphs":{"0":{"ha":993,"x_min":185,"x_max":1088,"o":"m 793 807 q 778 812 793 807 q 730 817 763 817 q 663 808 698 817 q 587 775 628 798 q 510 716 546 751 q 441 623 474 680 q 387 494 408 566 q 363 345 363 412 q 379 249 363 290 q 422 186 395 208 q 478 154 448 165 q 539 144 507 144 q 606 154 571 144 q 683 189 642 163 q 760 251 724 214 q 831 350 797 289 q 888 489 865 412 q 909 623 909 565 q 893 715 909 676 q 850 776 877 755 q 793 807 823 797 m 776 977 q 864 967 821 977 q 948 936 907 958 q 1020 880 989 913 q 1069 794 1050 846 q 1088 675 1088 741 q 1059 492 1088 593 q 991 319 1031 397 q 902 186 950 240 q 802 93 854 133 q 695 30 749 53 q 591 -3 640 7 q 494 -14 541 -14 q 406 -4 448 -14 q 322 28 363 5 q 252 86 281 52 q 203 174 222 120 q 185 295 185 228 q 216 493 185 384 q 282 658 242 583 q 370 785 322 733 q 469 874 417 836 q 575 935 521 913 q 680 966 630 956 q 776 977 729 977 z "},"1":{"ha":993,"x_min":207,"x_max":924,"o":"m 727 964 l 922 964 l 691 157 l 924 157 l 880 0 l 207 0 l 252 157 l 495 157 l 678 795 l 442 722 l 417 863 l 727 964 z "},"2":{"ha":993,"x_min":160,"x_max":1082,"o":"m 186 89 q 300 237 235 168 q 427 355 364 307 q 553 445 489 403 q 674 517 618 486 q 775 575 730 548 q 851 630 821 603 q 889 683 882 656 q 892 705 892 695 q 841 783 892 751 q 709 815 790 815 q 424 761 597 815 l 395 752 l 383 892 l 411 903 q 778 970 589 970 q 1002 916 923 970 q 1082 772 1082 861 q 1073 712 1082 741 q 1002 591 1054 646 q 878 491 949 536 q 730 402 806 446 q 569 294 654 358 q 425 157 484 230 l 932 157 l 886 0 l 160 0 l 186 89 z "},"3":{"ha":993,"x_min":129,"x_max":1039,"o":"m 420 903 q 751 975 586 975 q 962 924 885 975 q 1039 788 1039 873 q 1031 732 1039 762 q 969 617 1013 670 q 865 530 925 564 q 961 379 961 481 q 950 305 961 342 q 761 62 907 154 q 416 -31 614 -31 q 151 24 266 -31 l 129 34 l 220 177 l 243 170 q 464 132 376 132 q 662 175 573 132 q 770 284 751 217 q 774 313 774 297 q 767 348 774 331 q 741 381 760 364 q 690 409 721 397 q 608 429 659 421 q 490 436 557 436 l 458 436 l 503 591 l 535 591 q 674 603 613 591 q 769 634 734 614 q 821 673 803 654 q 846 713 840 693 q 848 732 848 722 q 806 792 848 769 q 689 815 763 815 q 441 762 578 815 l 412 749 l 394 892 l 420 903 z "},"4":{"ha":1048,"x_min":140,"x_max":1019,"o":"m 788 964 l 1019 964 l 847 363 l 1015 363 l 970 205 l 802 205 l 743 0 l 576 0 l 635 205 l 140 205 l 171 313 l 788 964 m 659 363 l 771 752 l 400 363 l 659 363 z "},"5":{"ha":993,"x_min":122,"x_max":1133,"o":"m 441 964 l 1133 964 l 1088 806 l 569 806 l 518 630 q 646 635 589 635 q 787 622 726 635 q 887 587 849 609 q 950 534 926 565 q 984 473 975 504 q 993 406 993 441 q 981 321 993 363 q 944 235 968 277 q 875 146 921 193 q 769 66 829 100 q 615 9 708 31 q 411 -14 522 -14 q 149 11 271 -14 l 122 16 l 200 174 l 226 168 q 447 146 321 146 q 578 157 519 146 q 674 185 637 168 q 739 225 712 202 q 780 268 766 248 q 800 311 793 289 q 804 342 804 328 q 793 390 804 368 q 755 432 781 412 q 678 465 729 453 q 557 477 627 477 q 328 460 474 477 l 296 457 l 441 964 z "},"6":{"ha":993,"x_min":201,"x_max":1088,"o":"m 975 971 q 1062 966 1013 971 l 1088 964 l 1031 808 l 1003 810 q 933 814 968 814 q 791 803 856 814 q 680 772 726 791 q 595 726 633 753 q 532 671 557 699 q 488 609 508 643 q 711 660 593 660 q 918 596 849 660 q 987 431 987 532 q 964 309 987 372 q 896 188 941 246 q 791 84 851 130 q 649 11 730 38 q 480 -17 568 -17 q 401 -11 438 -17 q 327 12 365 -5 q 262 55 289 28 q 218 126 235 81 q 201 229 201 171 q 228 396 201 303 q 975 971 393 971 m 637 509 q 476 460 549 509 q 380 336 402 412 q 373 288 373 313 q 417 178 373 223 q 538 134 462 134 q 701 191 623 134 q 803 328 780 249 q 810 374 810 351 q 761 473 810 436 q 637 509 711 509 z "},"7":{"ha":993,"x_min":191,"x_max":1180,"o":"m 365 964 l 1180 964 l 1152 863 l 388 0 l 191 0 l 911 800 l 318 800 l 365 964 z "},"8":{"ha":993,"x_min":171,"x_max":1057,"o":"m 727 824 q 605 791 659 824 q 538 716 550 758 q 535 694 535 704 q 546 660 535 676 q 571 632 557 644 q 610 610 586 621 q 652 594 635 600 q 695 581 669 588 q 819 649 781 622 q 866 710 857 677 q 870 736 870 724 q 830 801 870 779 q 727 824 789 824 m 801 297 q 807 337 807 319 q 792 392 807 367 q 750 435 778 416 q 690 466 722 453 q 614 491 657 479 q 448 413 515 465 q 363 302 380 360 q 358 271 358 288 q 408 180 358 216 q 548 144 458 144 q 713 188 643 144 q 801 297 783 233 m 771 977 q 986 931 915 977 q 1057 801 1057 885 q 1046 728 1057 768 q 989 627 1030 672 q 880 538 948 582 q 985 361 985 471 q 974 288 985 328 q 917 177 958 231 q 817 81 876 124 q 674 12 758 38 q 496 -14 590 -14 q 260 47 349 -14 q 171 208 171 108 q 181 276 171 240 q 267 420 203 351 q 420 534 332 489 q 357 669 357 587 q 366 730 357 699 q 506 906 396 836 q 771 977 615 977 z "},"9":{"ha":993,"x_min":179,"x_max":1065,"o":"m 789 977 q 866 971 830 977 q 940 948 903 965 q 1005 905 978 932 q 1048 834 1031 879 q 1065 732 1065 790 q 1038 562 1065 659 q 960 365 1006 453 q 857 215 914 277 q 734 109 800 154 q 595 39 669 64 q 448 2 522 14 q 292 -10 374 -10 q 205 -6 247 -10 l 179 -3 l 237 153 l 264 150 q 334 146 292 146 q 486 160 418 146 q 601 193 554 173 q 684 245 647 214 q 744 308 722 277 q 787 378 766 338 q 564 328 680 328 q 360 389 434 328 q 286 552 286 450 q 298 637 286 593 q 395 806 325 729 q 569 930 465 884 q 789 977 673 977 m 729 827 q 568 771 647 827 q 469 648 488 715 q 463 612 463 628 q 513 516 463 554 q 637 478 563 478 q 798 526 723 478 q 892 640 873 574 q 897 676 897 656 q 850 782 897 736 q 729 827 804 827 z "}," ":{"ha":380,"x_min":0,"x_max":0,"o":""},"!":{"ha":441,"x_min":117,"x_max":590,"o":"m 172 163 l 363 163 l 308 -28 l 117 -28 l 172 163 m 419 991 l 590 991 l 387 283 l 216 283 l 419 991 z "},"\"":{"ha":539,"x_min":250,"x_max":794,"o":"m 613 1053 l 794 1053 l 695 707 l 514 707 l 613 1053 m 349 1053 l 530 1053 l 431 707 l 250 707 l 349 1053 z "},"#":{"ha":951,"x_min":70,"x_max":1156,"o":"m 503 991 l 667 991 l 591 726 l 778 726 l 854 991 l 1018 991 l 942 726 l 1156 726 l 1112 569 l 897 569 l 844 386 l 1059 386 l 1014 229 l 800 229 l 720 -48 l 556 -48 l 635 229 l 448 229 l 369 -48 l 205 -48 l 284 229 l 70 229 l 115 386 l 329 386 l 382 569 l 166 569 l 211 726 l 427 726 l 503 991 m 546 569 l 493 386 l 680 386 l 733 569 l 546 569 z "},"$":{"ha":925,"x_min":212,"x_max":999,"o":"m 543 656 q 543 650 543 654 q 580 614 543 631 q 670 582 617 597 q 776 547 723 567 q 867 491 829 527 q 904 408 904 456 q 898 368 904 389 q 869 306 888 336 q 818 243 850 275 q 730 187 785 212 q 608 151 676 162 l 551 -44 l 382 -44 l 437 144 q 235 193 336 149 l 212 203 l 300 332 l 323 322 q 419 288 379 297 q 510 279 459 279 q 657 298 610 279 q 715 356 705 317 q 716 361 716 358 q 689 393 716 379 q 623 417 663 408 q 536 442 583 427 q 449 475 489 457 q 382 524 409 492 q 355 598 355 556 q 362 643 355 620 q 389 700 370 671 q 440 757 408 728 q 523 810 471 786 q 637 845 574 833 l 689 1025 l 858 1025 l 810 857 q 895 849 863 855 q 973 830 927 844 l 999 823 l 916 692 l 891 699 q 726 722 810 722 q 598 701 646 722 q 543 656 551 681 z "},"%":{"ha":1013,"x_min":58,"x_max":1267,"o":"m 517 832 q 427 742 452 832 q 417 688 417 709 q 463 638 417 638 q 557 739 528 638 q 566 785 566 767 q 517 832 566 832 m 553 952 q 606 946 581 952 q 654 926 631 940 q 691 885 677 912 q 705 820 705 858 q 692 741 705 785 q 589 579 663 640 q 427 519 514 519 q 327 550 366 519 q 289 649 289 581 q 304 741 289 688 q 404 897 333 842 q 553 952 475 952 m 865 330 q 772 239 798 330 q 764 186 764 210 q 810 136 764 136 q 905 236 876 136 q 913 283 913 264 q 865 330 913 330 m 900 450 q 1000 420 959 450 q 1041 322 1041 391 q 1027 238 1041 285 q 928 77 998 137 q 775 17 858 17 q 667 49 709 17 q 625 152 625 81 q 639 239 625 191 q 743 395 668 339 q 900 450 818 450 m 1083 964 l 1267 964 l 242 0 l 58 0 l 1083 964 z "},"&":{"ha":1078,"x_min":138,"x_max":1179,"o":"m 962 797 q 940 746 954 772 q 911 702 926 721 q 871 659 897 682 q 829 621 846 635 q 780 584 812 607 q 732 552 747 562 q 684 521 718 543 l 819 313 l 1106 551 l 1179 448 l 890 205 l 1042 -28 l 828 -28 l 743 97 q 665 43 701 66 q 577 -6 629 20 q 467 -46 526 -32 q 347 -60 408 -60 q 192 -12 245 -60 q 138 116 138 37 q 149 191 138 151 q 192 287 163 240 q 250 367 220 334 q 321 434 280 400 q 389 486 363 468 q 450 526 416 504 q 403 610 420 570 q 386 695 386 649 q 395 762 386 728 q 534 937 427 869 q 768 1004 641 1004 q 916 962 862 1004 q 970 850 970 920 q 962 797 970 825 m 712 852 q 617 823 661 852 q 562 755 573 793 q 559 734 559 743 q 561 715 559 724 q 570 693 564 705 q 582 675 577 682 q 597 651 586 668 q 614 628 609 635 q 741 713 716 692 q 787 775 779 744 q 789 792 789 783 q 770 834 789 817 q 712 852 750 852 m 525 418 q 456 372 481 390 q 401 329 431 354 q 353 277 371 303 q 327 222 335 251 q 322 189 322 205 q 351 122 322 148 q 429 96 379 96 q 545 125 486 96 q 670 203 604 155 l 525 418 z "},"'":{"ha":275,"x_min":250,"x_max":530,"o":"m 349 1053 l 530 1053 l 431 707 l 250 707 l 349 1053 z "},"(":{"ha":503,"x_min":193,"x_max":779,"o":"m 661 1086 l 779 1014 l 756 989 q 466 547 565 774 q 366 96 366 321 q 414 -205 366 -58 l 421 -229 l 262 -315 l 254 -291 q 193 95 193 -100 q 233 391 193 248 q 309 586 261 486 q 416 774 357 686 q 529 931 475 862 q 641 1064 583 1000 l 661 1086 z "},")":{"ha":503,"x_min":-50,"x_max":534,"o":"m 494 391 q 416 191 466 293 q 306 -1 366 89 q 192 -159 246 -90 q 82 -291 138 -229 l 60 -315 l -50 -229 l -28 -205 q 72 -84 25 -146 q 175 67 119 -23 q 269 249 230 158 q 334 455 308 340 q 361 684 361 570 q 314 989 361 837 l 307 1014 l 465 1086 l 473 1064 q 534 683 534 876 q 494 391 534 529 z "},"*":{"ha":811,"x_min":251,"x_max":944,"o":"m 603 991 l 777 991 l 712 801 l 901 905 l 944 754 l 750 669 l 895 583 l 765 432 l 636 536 l 592 347 l 418 347 l 483 536 l 294 432 l 251 583 l 446 669 l 300 754 l 430 905 l 559 801 l 603 991 z "},"+":{"ha":949,"x_min":163,"x_max":1042,"o":"m 644 864 l 800 864 l 702 521 l 1042 521 l 999 372 l 659 372 l 561 28 l 405 28 l 503 372 l 163 372 l 206 521 l 546 521 l 644 864 z "},",":{"ha":387,"x_min":-64,"x_max":340,"o":"m 158 143 l 340 143 l 119 -177 l -64 -177 l 158 143 z "},"-":{"ha":821,"x_min":197,"x_max":880,"o":"m 241 522 l 880 522 l 836 372 l 197 372 l 241 522 z "},".":{"ha":387,"x_min":86,"x_max":341,"o":"m 143 170 l 341 170 l 284 -28 l 86 -28 l 143 170 z "},"/":{"ha":492,"x_min":-37,"x_max":802,"o":"m 627 991 l 802 991 l 137 -89 l -37 -89 l 627 991 z "},":":{"ha":387,"x_min":86,"x_max":493,"o":"m 143 170 l 341 170 l 284 -28 l 86 -28 l 143 170 m 295 701 l 493 701 l 437 503 l 239 503 l 295 701 z "},";":{"ha":387,"x_min":-64,"x_max":493,"o":"m 158 143 l 340 143 l 119 -177 l -64 -177 l 158 143 m 295 701 l 493 701 l 437 503 l 239 503 l 295 701 z "},"<":{"ha":728,"x_min":138,"x_max":920,"o":"m 920 810 l 872 643 l 370 422 l 748 211 l 699 37 l 138 344 l 181 491 l 920 810 z "},"=":{"ha":949,"x_min":182,"x_max":1021,"o":"m 227 368 l 933 368 l 888 210 l 182 210 l 227 368 m 315 675 l 1021 675 l 977 517 l 270 517 l 315 675 z "},">":{"ha":728,"x_min":51,"x_max":829,"o":"m 272 810 l 829 491 l 786 344 l 51 37 l 100 211 l 600 422 l 224 643 l 272 810 z "},"?":{"ha":709,"x_min":175,"x_max":848,"o":"m 230 163 l 421 163 l 366 -28 l 175 -28 l 230 163 m 836 744 q 791 639 819 686 q 732 563 764 593 q 666 507 701 532 q 597 458 631 481 q 533 410 563 435 q 478 349 503 385 q 440 266 453 312 l 433 238 l 262 238 l 269 266 q 315 376 287 327 q 376 459 344 426 q 445 519 409 492 q 515 569 481 547 q 578 612 549 591 q 630 663 608 634 q 663 725 653 691 q 667 757 667 742 q 633 823 667 796 q 512 850 598 850 q 429 841 475 850 q 349 820 382 832 l 320 809 l 302 942 l 329 954 q 574 1002 441 1002 q 776 957 704 1002 q 848 821 848 911 q 836 744 848 785 z "},"@":{"ha":1424,"x_min":140,"x_max":1504,"o":"m 1052 650 l 1074 684 l 1198 684 l 1050 171 q 1033 83 1033 111 q 1073 41 1033 41 q 1113 55 1089 41 q 1167 99 1136 68 q 1231 194 1198 130 q 1289 346 1263 258 q 1321 543 1321 458 q 1303 652 1321 604 q 1247 736 1286 699 q 1140 792 1208 773 q 979 812 1073 812 q 825 794 898 812 q 694 745 751 776 q 586 672 637 715 q 499 585 536 630 q 432 487 463 539 q 382 389 401 435 q 350 297 363 343 q 326 140 326 210 q 415 -86 326 -6 q 642 -165 504 -165 q 840 -123 742 -165 l 868 -111 l 899 -240 l 871 -253 q 582 -317 728 -317 q 508 -313 545 -317 q 426 -297 470 -309 q 342 -268 381 -286 q 265 -220 302 -250 q 200 -151 227 -190 q 157 -57 173 -113 q 140 64 140 -1 q 174 274 140 159 q 223 415 195 347 q 295 554 252 483 q 390 686 338 625 q 511 802 441 747 q 661 894 581 856 q 842 955 741 932 q 1055 977 943 977 q 1504 615 1504 977 q 1462 359 1504 505 q 1383 162 1430 248 q 1288 27 1335 76 q 1187 -54 1240 -22 q 1094 -95 1134 -85 q 1017 -106 1053 -106 q 919 -78 958 -106 q 867 -1 880 -50 q 686 -41 774 -41 q 509 23 568 -41 q 450 192 450 88 q 472 323 450 255 q 534 455 493 392 q 630 569 576 518 q 758 650 685 619 q 910 680 831 680 q 1052 650 986 680 m 886 542 q 730 484 800 542 q 631 322 661 427 q 618 240 618 277 q 657 137 618 173 q 763 102 696 102 q 877 126 818 102 l 990 520 q 886 542 939 542 z "},"A":{"ha":1049,"x_min":88,"x_max":1038,"o":"m 746 964 l 933 964 l 1038 0 l 863 0 l 827 252 l 434 252 l 254 0 l 88 0 l 746 964 m 812 409 l 778 766 l 538 409 l 812 409 z "},"B":{"ha":1077,"x_min":197,"x_max":1128,"o":"m 761 820 l 603 820 l 526 553 q 737 567 675 556 q 924 699 895 595 q 929 730 929 716 q 761 820 929 820 m 664 444 q 493 437 659 444 l 413 157 l 565 157 q 611 158 592 157 q 666 161 631 158 q 726 169 701 163 q 784 184 752 174 q 838 208 815 194 q 879 244 860 222 q 905 294 897 267 q 910 325 910 309 q 845 413 910 381 q 664 444 780 444 m 473 964 l 840 964 q 960 952 908 964 q 1043 923 1013 941 q 1094 880 1074 905 q 1121 830 1114 854 q 1128 779 1128 806 q 1119 718 1128 749 q 1067 625 1106 672 q 981 545 1028 577 q 1061 475 1032 521 q 1089 371 1089 429 q 1079 302 1089 338 q 1062 257 1073 280 q 1029 203 1050 233 q 979 145 1007 172 q 907 90 950 117 q 812 44 863 63 q 690 12 761 24 q 538 0 618 0 l 197 0 l 473 964 z "},"C":{"ha":1095,"x_min":302,"x_max":1309,"o":"m 1014 970 q 1287 917 1166 970 l 1309 907 l 1213 760 l 1190 769 q 965 813 1072 813 q 802 786 881 813 q 662 712 722 758 q 558 606 602 666 q 496 481 515 547 q 484 396 484 435 q 567 217 484 287 q 802 148 650 148 q 1036 187 913 148 l 1063 196 l 1080 60 l 1052 50 q 723 -14 887 -14 q 410 82 518 -14 q 302 334 302 177 q 324 481 302 404 q 417 675 354 585 q 568 830 480 764 q 771 933 656 896 q 1014 970 886 970 z "},"D":{"ha":1200,"x_min":202,"x_max":1261,"o":"m 780 806 l 604 806 l 418 157 l 543 157 q 621 159 589 157 q 703 168 652 160 q 793 191 754 176 q 879 235 833 205 q 962 307 925 264 q 1060 488 1031 385 q 1075 586 1075 541 q 1058 675 1075 635 q 1011 740 1040 715 q 947 780 981 765 q 872 802 912 795 q 780 806 840 806 m 820 964 q 996 947 919 964 q 1122 902 1073 930 q 1203 834 1171 874 q 1248 749 1235 793 q 1261 654 1261 705 q 1238 510 1261 589 q 1194 390 1221 448 q 1124 272 1167 332 q 1026 164 1080 212 q 897 78 972 116 q 732 21 821 39 q 633 6 687 12 q 546 1 580 1 q 452 0 512 0 l 202 0 l 478 964 l 820 964 z "},"E":{"ha":981,"x_min":197,"x_max":1149,"o":"m 197 0 l 473 964 l 1149 964 l 1104 806 l 600 806 l 533 575 l 1000 575 l 956 418 l 488 418 l 414 157 l 918 157 l 873 0 l 197 0 z "},"F":{"ha":958,"x_min":197,"x_max":1142,"o":"m 600 806 l 533 575 l 990 575 l 945 418 l 488 418 l 368 0 l 197 0 l 473 964 l 1142 964 l 1097 806 l 600 806 z "},"G":{"ha":1190,"x_min":262,"x_max":1304,"o":"m 1128 140 q 683 -14 943 -14 q 522 5 593 -14 q 402 56 450 24 q 323 132 355 87 q 277 228 291 177 q 262 336 262 278 q 283 481 262 406 q 347 629 305 557 q 451 762 389 700 q 589 871 513 825 q 762 944 665 918 q 964 971 859 971 q 1284 886 1155 971 l 1304 872 l 1194 738 l 1173 751 q 1065 794 1131 775 q 925 814 998 814 q 733 776 828 814 q 562 663 637 739 q 457 488 486 587 q 444 396 444 442 q 529 213 444 282 q 758 144 614 144 q 979 201 883 144 l 1031 386 l 730 386 l 773 536 l 1242 536 l 1128 140 z "},"H":{"ha":1196,"x_min":197,"x_max":1330,"o":"m 1159 964 l 1330 964 l 1054 0 l 883 0 l 1003 418 l 488 418 l 368 0 l 197 0 l 473 964 l 644 964 l 532 576 l 1048 576 l 1159 964 z "},"I":{"ha":551,"x_min":217,"x_max":664,"o":"m 493 964 l 664 964 l 388 0 l 217 0 l 493 964 z "},"J":{"ha":758,"x_min":78,"x_max":896,"o":"m 725 964 l 896 964 l 720 347 q 697 279 709 310 q 664 210 685 248 q 618 142 644 172 q 556 82 593 112 q 474 33 518 52 q 368 1 429 13 q 237 -12 307 -12 q 102 5 163 -12 l 78 12 l 150 163 l 176 156 q 263 146 216 146 q 347 154 308 146 q 412 175 385 163 q 461 207 439 188 q 498 243 484 226 q 523 282 511 260 q 539 317 534 304 q 549 348 544 331 l 725 964 z "},"K":{"ha":1072,"x_min":197,"x_max":1302,"o":"m 517 522 l 1083 964 l 1302 964 l 707 503 l 1050 0 l 829 0 l 501 467 l 368 0 l 197 0 l 473 964 l 644 964 l 517 522 z "},"L":{"ha":880,"x_min":197,"x_max":901,"o":"m 473 964 l 644 964 l 412 157 l 901 157 l 856 0 l 197 0 l 473 964 z "},"M":{"ha":1389,"x_min":197,"x_max":1522,"o":"m 473 964 l 680 964 l 842 410 l 1325 964 l 1522 964 l 1246 0 l 1076 0 l 1282 721 l 881 276 l 720 276 l 574 721 l 368 0 l 197 0 l 473 964 z "},"N":{"ha":1236,"x_min":197,"x_max":1370,"o":"m 473 964 l 661 964 l 987 223 l 1199 964 l 1370 964 l 1094 0 l 903 0 l 581 742 l 368 0 l 197 0 l 473 964 z "},"O":{"ha":1255,"x_min":260,"x_max":1327,"o":"m 935 974 q 1222 886 1116 974 q 1327 642 1327 798 q 1304 492 1327 572 q 1165 230 1262 345 q 933 53 1067 116 q 647 -10 798 -10 q 495 11 565 -10 q 372 73 425 32 q 290 178 319 113 q 260 323 260 242 q 283 479 260 396 q 424 741 326 628 q 653 914 521 854 q 935 974 786 974 m 883 817 q 759 798 821 817 q 638 741 696 779 q 532 638 579 703 q 462 493 486 574 q 445 382 445 434 q 515 210 445 273 q 702 146 585 146 q 825 166 762 146 q 946 224 887 186 q 1053 330 1005 263 q 1126 481 1101 396 q 1143 589 1143 540 q 1121 692 1143 647 q 1062 764 1099 737 q 979 804 1025 790 q 883 817 934 817 z "},"P":{"ha":1019,"x_min":197,"x_max":1159,"o":"m 473 964 l 819 964 q 877 963 853 964 q 939 959 900 962 q 1004 948 977 955 q 1063 927 1031 941 q 1113 895 1094 913 q 1146 846 1133 876 q 1159 779 1159 816 q 1145 692 1159 739 q 1098 582 1128 631 q 1033 500 1068 533 q 951 443 998 467 q 861 406 905 419 q 761 384 817 392 q 660 374 705 376 q 557 372 614 372 q 475 374 529 372 l 368 0 l 197 0 l 473 964 m 599 806 l 520 532 q 614 528 572 528 q 710 531 671 528 q 796 542 750 533 q 873 565 842 550 q 929 608 904 581 q 966 674 955 635 q 971 711 971 692 q 958 753 971 735 q 925 781 945 771 q 873 797 905 791 q 811 805 841 803 q 739 806 781 806 l 599 806 z "},"Q":{"ha":1268,"x_min":259,"x_max":1324,"o":"m 935 974 q 1114 947 1037 974 q 1236 873 1191 920 q 1303 766 1281 825 q 1324 635 1324 706 q 1268 387 1324 514 q 1118 168 1211 260 l 1210 51 l 1081 -50 l 981 74 q 654 -10 827 -10 q 366 78 473 -10 q 259 323 259 165 q 283 478 259 397 q 528 839 348 704 q 935 974 708 974 m 880 817 q 759 798 820 817 q 639 742 698 779 q 533 639 581 704 q 461 490 485 574 q 444 380 444 431 q 519 208 444 269 q 713 146 594 146 q 884 182 802 146 l 709 365 l 860 470 l 1025 286 q 1119 466 1088 358 q 1139 591 1139 534 q 1122 682 1139 642 q 1080 748 1106 723 q 1020 788 1055 772 q 950 811 985 804 q 880 817 916 817 z "},"R":{"ha":1086,"x_min":197,"x_max":1156,"o":"m 1141 688 q 1040 513 1113 590 q 848 403 967 436 l 1023 0 l 801 0 l 638 374 l 475 374 l 368 0 l 197 0 l 473 964 l 883 964 q 1156 783 1156 964 q 1141 688 1156 741 m 599 807 l 520 531 l 677 531 q 768 536 730 531 q 848 554 807 541 q 917 598 889 568 q 958 672 945 627 q 964 711 964 693 q 788 807 964 807 l 599 807 z "},"S":{"ha":1034,"x_min":181,"x_max":1188,"o":"m 907 972 q 1162 932 1042 972 l 1188 924 l 1087 767 l 1063 774 q 850 808 949 808 q 670 776 750 808 q 575 692 590 743 q 572 674 572 684 q 598 626 572 648 q 664 590 623 605 q 755 559 705 574 q 853 526 804 545 q 944 483 903 507 q 1010 422 985 459 q 1036 338 1036 385 q 1026 277 1036 311 q 989 197 1015 237 q 920 119 964 157 q 820 51 876 80 q 683 4 763 22 q 509 -14 602 -14 q 347 4 416 -14 q 203 54 278 21 l 181 63 l 286 227 l 309 217 q 574 156 464 156 q 753 188 679 156 q 842 272 827 220 q 845 294 845 286 q 819 346 845 323 q 752 384 793 368 q 661 414 711 399 q 562 446 612 428 q 471 486 512 464 q 404 545 429 509 q 378 627 378 581 q 387 685 378 654 q 565 890 422 807 q 907 972 708 972 z "},"T":{"ha":932,"x_min":289,"x_max":1204,"o":"m 334 964 l 1204 964 l 1160 806 l 810 806 l 578 0 l 408 0 l 639 806 l 289 806 l 334 964 z "},"U":{"ha":1178,"x_min":269,"x_max":1310,"o":"m 612 -14 q 269 198 269 -14 q 270 230 269 214 q 275 262 272 245 q 281 290 279 279 q 288 317 283 300 q 294 338 293 334 l 473 964 l 644 964 l 469 353 q 454 272 454 300 q 476 205 454 232 q 657 142 525 142 q 787 161 730 142 q 874 204 844 180 q 927 262 905 229 q 955 314 948 295 q 965 349 961 332 q 966 353 966 352 l 1141 964 l 1310 964 l 1135 347 q 1117 289 1126 315 q 1087 224 1107 264 q 1042 155 1067 185 q 977 92 1017 125 q 886 37 936 58 q 766 1 837 15 q 612 -14 696 -14 z "},"V":{"ha":1061,"x_min":371,"x_max":1319,"o":"m 371 964 l 567 964 l 627 184 l 1133 964 l 1319 964 l 670 0 l 467 0 l 371 964 z "},"W":{"ha":1635,"x_min":371,"x_max":1890,"o":"m 371 964 l 551 964 l 561 223 l 1052 964 l 1209 964 l 1226 223 l 1710 964 l 1890 964 l 1244 0 l 1081 0 l 1061 737 l 576 0 l 413 0 l 371 964 z "},"X":{"ha":1039,"x_min":75,"x_max":1307,"o":"m 1107 964 l 1307 964 l 836 505 l 1068 0 l 852 0 l 678 384 l 285 0 l 75 0 l 600 503 l 393 964 l 599 964 l 760 623 l 1107 964 z "},"Y":{"ha":968,"x_min":344,"x_max":1262,"o":"m 344 964 l 546 964 l 696 590 l 1067 964 l 1262 964 l 745 450 l 616 0 l 425 0 l 553 450 l 344 964 z "},"Z":{"ha":1032,"x_min":105,"x_max":1249,"o":"m 401 964 l 1249 964 l 1220 860 l 396 157 l 1037 157 l 991 0 l 105 0 l 135 105 l 945 806 l 357 806 l 401 964 z "},"[":{"ha":534,"x_min":54,"x_max":810,"o":"m 444 1053 l 810 1053 l 765 896 l 566 896 l 266 -149 l 465 -149 l 420 -306 l 54 -306 l 444 1053 z "},"\\":{"ha":492,"x_min":259,"x_max":478,"o":"m 259 991 l 433 991 l 478 -89 l 304 -89 l 259 991 z "},"]":{"ha":528,"x_min":-61,"x_max":694,"o":"m 328 1053 l 694 1053 l 305 -306 l -61 -306 l -16 -149 l 183 -149 l 483 896 l 283 896 l 328 1053 z "},"^":{"ha":1003,"x_min":503,"x_max":947,"o":"m 804 1086 l 947 850 l 817 751 l 736 883 l 578 752 l 503 844 l 804 1086 z "},"_":{"ha":787,"x_min":66,"x_max":750,"o":"m 111 130 l 750 130 l 705 -28 l 66 -28 l 111 130 z "},"`":{"ha":761,"x_min":429,"x_max":865,"o":"m 544 1114 l 865 875 l 760 754 l 429 982 l 544 1114 z "},"a":{"ha":829,"x_min":127,"x_max":842,"o":"m 591 666 q 842 511 842 666 q 828 429 842 476 l 705 0 l 580 0 l 574 44 q 355 -14 469 -14 q 188 31 248 -14 q 127 141 127 75 q 133 180 127 162 q 198 282 151 241 q 320 345 246 323 q 471 375 394 366 q 648 385 549 384 l 654 407 q 661 449 661 433 q 526 518 661 518 q 320 488 452 518 l 291 481 l 295 614 l 321 623 q 591 666 457 666 m 586 170 l 612 259 l 595 259 q 392 244 461 259 q 313 193 323 229 q 312 186 312 191 q 346 147 312 164 q 432 130 379 130 q 586 170 512 130 z "},"b":{"ha":904,"x_min":125,"x_max":928,"o":"m 420 1025 l 587 1025 l 475 637 q 659 667 570 667 q 739 660 701 667 q 811 637 776 653 q 872 597 846 621 q 912 535 897 572 q 928 449 928 497 q 909 334 928 399 q 737 79 863 171 q 441 -14 611 -14 q 264 22 340 -14 l 249 0 l 125 0 l 420 1025 m 572 519 q 435 498 505 519 l 335 149 q 463 130 399 130 q 523 134 493 130 q 587 151 552 138 q 650 184 622 164 q 703 238 679 204 q 741 317 728 273 q 751 386 751 355 q 740 442 751 418 q 710 481 728 467 q 668 504 692 495 q 620 516 643 513 q 572 519 597 519 z "},"c":{"ha":778,"x_min":158,"x_max":881,"o":"m 176 313 q 237 451 198 390 q 323 552 275 512 q 428 617 370 591 q 544 654 486 644 q 665 665 602 665 q 861 623 778 665 l 881 613 l 800 482 l 777 491 q 640 514 716 514 q 345 333 397 514 q 335 268 335 296 q 545 134 335 134 q 672 154 608 134 l 701 162 l 709 35 l 681 26 q 455 -14 570 -14 q 364 -7 406 -14 q 283 15 322 -1 q 218 54 245 30 q 174 115 191 78 q 158 201 158 153 q 176 313 158 252 z "},"d":{"ha":907,"x_min":159,"x_max":1070,"o":"m 176 316 q 351 575 224 484 q 646 667 478 667 q 794 644 724 667 l 903 1025 l 1070 1025 l 777 0 l 653 0 l 648 31 q 429 -14 539 -14 q 328 -2 374 -14 q 242 34 281 9 q 181 102 203 59 q 159 203 159 145 q 176 316 159 255 m 514 134 q 654 157 580 134 l 754 505 q 625 524 689 524 q 566 519 595 524 q 502 503 537 515 q 438 469 467 490 q 384 413 409 449 q 345 332 358 378 q 335 267 335 295 q 352 200 335 228 q 396 159 368 173 q 453 139 424 145 q 514 134 481 134 z "},"e":{"ha":841,"x_min":157,"x_max":873,"o":"m 655 666 q 873 489 873 666 q 844 322 873 429 l 822 248 l 331 248 q 386 165 332 200 q 547 131 441 131 q 705 154 622 131 l 734 161 l 730 33 l 704 25 q 458 -14 583 -14 q 314 3 374 -14 q 220 51 254 20 q 172 118 187 81 q 157 201 157 155 q 174 307 157 250 q 252 468 199 397 q 370 581 304 538 q 508 645 436 623 q 655 666 581 666 m 585 514 q 452 478 509 514 q 372 387 396 441 l 703 387 q 707 425 707 412 q 585 514 707 514 z "},"f":{"ha":651,"x_min":-208,"x_max":944,"o":"m 397 696 q 408 734 404 720 q 422 773 412 748 q 441 814 432 798 q 467 853 451 831 q 502 890 484 876 q 546 922 519 905 q 602 947 572 938 q 671 963 631 957 q 755 969 710 969 q 922 941 838 969 l 944 934 l 877 795 l 851 803 q 758 821 793 821 q 566 703 600 821 l 551 653 l 812 653 l 771 510 l 510 510 l 334 -106 q 276 -239 309 -194 q -20 -360 191 -360 q -186 -333 -103 -360 l -208 -326 l -143 -193 l -117 -199 q -24 -214 -62 -214 q 165 -111 136 -214 l 343 510 l 235 510 l 277 653 l 385 653 l 397 696 z "},"g":{"ha":899,"x_min":39,"x_max":963,"o":"m 644 667 q 819 624 730 667 l 838 653 l 963 653 l 770 -20 q 732 -116 755 -71 q 670 -209 710 -161 q 580 -290 631 -256 q 454 -345 530 -323 q 290 -367 379 -367 q 60 -321 162 -367 l 39 -311 l 127 -179 l 152 -189 q 315 -218 231 -218 q 595 -37 526 -218 q 614 17 598 -31 q 436 -14 521 -14 q 333 -1 380 -14 q 245 37 285 12 q 183 108 205 63 q 160 212 160 153 q 178 325 160 264 q 241 460 199 399 q 332 558 283 520 q 438 621 381 595 q 546 656 496 646 q 644 667 597 667 m 610 521 q 448 471 518 521 q 353 336 378 420 q 344 272 344 301 q 387 171 344 209 q 515 134 429 134 q 654 157 578 134 l 751 496 q 610 521 673 521 z "},"h":{"ha":901,"x_min":125,"x_max":906,"o":"m 611 511 q 429 475 533 511 l 292 0 l 125 0 l 420 1025 l 587 1025 l 470 618 q 707 665 604 665 q 906 504 906 665 q 882 372 906 452 l 776 0 l 610 0 l 719 379 q 727 427 727 405 q 611 511 727 511 z "},"i":{"ha":411,"x_min":122,"x_max":575,"o":"m 388 964 l 575 964 l 523 780 l 336 780 l 388 964 m 314 670 l 481 670 l 289 0 l 122 0 l 314 670 z "},"j":{"ha":408,"x_min":-56,"x_max":582,"o":"m 395 964 l 582 964 l 529 780 l 342 780 l 395 964 m 321 670 l 488 670 l 277 -65 q 258 -123 267 -99 q 228 -185 250 -147 q 178 -252 206 -224 q 103 -311 151 -281 q -5 -361 56 -341 l -30 -369 l -56 -237 l -28 -225 q 106 -77 77 -180 l 321 670 z "},"k":{"ha":831,"x_min":119,"x_max":997,"o":"m 401 401 l 795 684 l 997 684 l 566 377 l 811 0 l 606 0 l 382 334 l 286 0 l 119 0 l 413 1025 l 580 1025 l 401 401 z "},"l":{"ha":438,"x_min":136,"x_max":596,"o":"m 429 1025 l 596 1025 l 302 0 l 136 0 l 429 1025 z "},"m":{"ha":1328,"x_min":119,"x_max":1331,"o":"m 587 508 q 421 473 528 508 l 286 0 l 119 0 l 307 653 l 431 653 l 437 609 q 686 666 571 666 q 846 599 801 666 q 1130 665 988 665 q 1284 625 1238 665 q 1331 509 1331 584 q 1311 388 1331 460 l 1200 0 l 1034 0 l 1143 382 q 1150 431 1150 410 q 1041 508 1150 508 q 871 473 979 508 q 851 380 868 439 l 743 0 l 576 0 l 686 385 q 693 431 693 413 q 587 508 693 508 z "},"n":{"ha":891,"x_min":119,"x_max":899,"o":"m 307 653 l 423 653 l 433 607 q 705 667 588 667 q 899 513 899 667 q 877 386 899 462 l 766 0 l 600 0 l 709 381 q 718 433 718 414 q 604 511 718 511 q 422 475 528 511 l 286 0 l 119 0 l 307 653 z "},"o":{"ha":922,"x_min":161,"x_max":944,"o":"m 654 666 q 866 607 789 666 q 944 440 944 549 q 928 338 944 391 q 751 81 882 176 q 446 -14 621 -14 q 237 46 312 -14 q 161 214 161 106 q 178 320 161 263 q 352 573 224 479 q 654 666 479 666 m 600 515 q 445 468 519 515 q 347 336 371 421 q 338 280 338 307 q 382 177 338 216 q 504 137 427 137 q 663 187 591 137 q 759 319 735 237 q 768 376 768 349 q 719 479 768 442 q 600 515 669 515 z "},"p":{"ha":900,"x_min":16,"x_max":924,"o":"m 659 666 q 737 659 700 666 q 808 636 774 652 q 868 596 843 621 q 908 534 893 572 q 924 449 924 496 q 905 333 924 398 q 734 79 859 171 q 441 -14 608 -14 q 296 9 363 -14 l 189 -360 l 16 -360 l 307 653 l 430 653 l 436 621 q 659 666 551 666 m 572 518 q 435 496 506 518 l 336 149 q 463 130 401 130 q 538 138 500 130 q 616 165 575 146 q 689 223 656 184 q 736 317 721 262 q 747 387 747 355 q 731 453 747 425 q 687 494 715 480 q 632 513 660 507 q 572 518 604 518 z "},"q":{"ha":892,"x_min":159,"x_max":956,"o":"m 636 667 q 817 624 723 667 l 838 653 l 956 653 l 665 -360 l 498 -360 l 607 18 q 423 -14 511 -14 q 324 -2 370 -14 q 241 34 279 9 q 181 102 203 58 q 159 204 159 145 q 177 323 159 259 q 250 474 201 407 q 361 583 299 541 q 494 645 424 624 q 636 667 564 667 m 603 521 q 439 470 510 521 q 344 332 369 420 q 334 267 334 294 q 350 201 334 228 q 394 160 366 174 q 449 140 421 146 q 509 134 477 134 q 647 157 574 134 l 744 496 q 603 521 666 521 z "},"r":{"ha":633,"x_min":119,"x_max":810,"o":"m 427 617 q 662 666 545 666 q 790 637 736 666 l 810 626 l 719 488 l 696 498 q 600 515 653 515 q 425 485 512 515 l 286 0 l 119 0 l 307 653 l 418 653 l 427 617 z "},"s":{"ha":793,"x_min":100,"x_max":869,"o":"m 595 197 q 595 199 595 197 q 595 201 595 201 q 569 231 595 218 q 502 253 542 244 q 416 276 463 262 q 329 308 369 291 q 263 354 290 324 q 236 424 236 385 q 242 463 236 442 q 267 515 250 489 q 317 569 283 541 q 396 618 351 597 q 510 652 441 639 q 661 666 578 666 q 746 661 709 666 q 798 652 783 656 q 843 637 813 648 l 869 629 l 783 493 l 760 499 q 598 524 680 524 q 510 516 547 524 q 454 496 472 508 q 428 474 435 484 q 417 457 420 465 q 416 452 416 455 q 454 420 416 435 q 544 391 491 405 q 650 358 597 376 q 741 306 703 340 q 778 228 778 273 q 772 193 778 212 q 748 138 764 164 q 701 83 732 112 q 625 34 669 55 q 514 0 581 14 q 363 -14 446 -14 q 122 39 235 -14 l 100 50 l 188 182 l 210 173 q 410 130 317 130 q 595 197 576 130 z "},"t":{"ha":627,"x_min":191,"x_max":742,"o":"m 562 12 q 390 -14 456 -14 q 235 20 280 -14 q 191 115 191 54 q 207 208 191 153 l 294 510 l 193 510 l 233 653 l 335 653 l 395 862 l 562 862 l 502 653 l 742 653 l 701 510 l 460 510 l 378 222 q 374 197 374 209 q 397 148 374 168 q 472 129 419 129 q 572 142 490 129 l 600 146 l 589 19 l 562 12 z "},"u":{"ha":901,"x_min":174,"x_max":963,"o":"m 796 653 l 963 653 l 776 0 l 652 0 l 645 45 q 370 -14 494 -14 q 174 142 174 -14 q 195 267 174 195 l 307 653 l 473 653 l 363 271 q 355 222 355 244 q 473 142 355 142 q 660 178 551 142 l 796 653 z "},"v":{"ha":776,"x_min":231,"x_max":941,"o":"m 941 653 l 492 0 l 317 0 l 231 653 l 423 653 l 458 172 l 766 653 l 941 653 z "},"w":{"ha":1282,"x_min":227,"x_max":1452,"o":"m 227 653 l 401 653 l 418 169 l 761 653 l 907 653 l 922 168 l 1273 653 l 1452 653 l 947 0 l 800 0 l 780 469 l 439 0 l 291 0 l 227 653 z "},"x":{"ha":817,"x_min":51,"x_max":1004,"o":"m 231 653 l 427 653 l 557 414 l 816 653 l 1004 653 l 633 321 l 803 0 l 606 0 l 481 225 l 238 0 l 51 0 l 407 321 l 231 653 z "},"y":{"ha":823,"x_min":79,"x_max":1002,"o":"m 220 653 l 412 653 l 486 147 l 826 653 l 1002 653 l 282 -360 l 79 -360 l 345 -12 l 220 653 z "},"z":{"ha":826,"x_min":99,"x_max":893,"o":"m 286 653 l 893 653 l 868 567 l 373 143 l 763 143 l 722 0 l 99 0 l 124 86 l 614 510 l 245 510 l 286 653 z "},"{":{"ha":562,"x_min":120,"x_max":807,"o":"m 184 446 q 239 463 213 451 q 283 490 264 475 q 320 528 302 505 q 349 570 338 551 q 373 617 361 589 q 391 661 385 644 q 407 702 397 677 q 418 735 416 727 q 488 869 447 810 q 568 960 529 927 q 651 1014 607 992 q 725 1043 695 1036 q 783 1053 755 1050 l 807 1055 l 799 913 l 768 909 q 700 886 733 905 q 642 841 667 867 q 589 761 612 810 q 548 662 566 712 q 509 561 531 612 q 449 459 488 509 q 358 372 411 409 q 405 234 405 320 q 385 90 405 185 q 365 -43 365 -5 q 373 -96 365 -72 q 406 -141 383 -122 q 460 -164 429 -159 l 489 -168 l 416 -309 l 393 -307 q 351 -300 372 -306 q 301 -280 330 -295 q 251 -241 273 -264 q 215 -177 230 -218 q 199 -84 199 -136 q 208 1 199 -43 q 219 55 211 17 q 232 120 228 92 q 237 172 237 148 q 199 271 237 237 q 142 298 176 292 l 120 302 l 160 443 l 184 446 z "},"|":{"ha":600,"x_min":149,"x_max":703,"o":"m 536 1114 l 703 1114 l 315 -237 l 149 -237 l 536 1114 z "},"}":{"ha":562,"x_min":-32,"x_max":655,"o":"m 565 735 q 557 700 563 726 q 549 657 552 674 q 542 617 545 641 q 539 573 539 593 q 633 446 539 463 l 655 443 l 615 302 l 591 298 q 529 279 557 293 q 478 242 500 264 q 441 199 457 220 q 411 146 425 177 q 388 95 397 115 q 370 43 380 74 q 355 1 359 13 q 284 -129 326 -72 q 203 -218 242 -186 q 119 -271 163 -250 q 46 -298 75 -292 q -7 -307 18 -305 l -32 -309 l -24 -168 l 8 -164 q 76 -141 43 -159 q 134 -96 109 -122 q 186 -16 163 -64 q 226 82 209 33 q 265 183 243 132 q 325 285 287 235 q 416 372 363 336 q 370 508 370 425 q 391 653 370 557 q 411 787 411 749 q 403 841 411 819 q 370 886 393 867 q 316 909 347 905 l 286 913 l 359 1055 l 382 1053 q 427 1045 405 1050 q 477 1023 450 1039 q 526 985 505 1008 q 560 921 546 962 q 574 829 574 881 q 565 735 574 785 z "},"~":{"ha":949,"x_min":446,"x_max":1072,"o":"m 867 950 q 889 965 877 950 q 910 997 901 979 q 931 1041 919 1015 q 937 1053 935 1049 l 949 1080 l 1072 1059 l 1058 1031 q 1046 1006 1055 1025 q 1033 978 1038 988 q 1018 950 1028 968 q 1001 921 1008 932 q 981 893 994 909 q 959 867 969 877 q 933 846 948 857 q 903 828 918 834 q 870 817 888 821 q 831 812 851 812 q 769 827 797 814 q 725 859 741 841 q 695 895 708 877 q 671 924 682 912 q 651 937 661 937 q 634 929 642 937 q 614 902 625 922 q 599 873 604 882 q 582 837 595 864 l 570 810 l 446 828 l 460 857 q 471 882 463 863 q 485 910 480 901 q 500 938 490 919 q 517 967 510 956 q 536 994 524 978 q 559 1020 549 1010 q 585 1042 570 1030 q 614 1059 600 1053 q 648 1070 629 1065 q 686 1074 667 1074 q 749 1059 721 1073 q 793 1028 777 1046 q 823 992 810 1010 q 847 962 836 975 q 867 950 857 950 z "}," ":{"ha":380,"x_min":0,"x_max":0,"o":""},"¡":{"ha":441,"x_min":47,"x_max":581,"o":"m 311 613 l 481 613 l 218 -306 l 47 -306 l 311 613 m 390 924 l 581 924 l 526 732 l 335 732 l 390 924 z "},"¢":{"ha":692,"x_min":192,"x_max":884,"o":"m 587 861 l 642 1053 l 780 1053 l 727 868 q 863 828 791 862 l 884 818 l 802 686 l 778 694 q 646 719 715 719 q 478 664 545 719 q 382 507 412 610 q 367 412 367 454 q 381 342 367 371 q 421 299 395 313 q 473 278 446 284 q 532 272 500 272 q 654 293 589 272 l 684 302 l 692 174 l 664 164 q 515 129 578 134 l 458 -72 l 320 -72 l 378 132 q 242 203 292 148 q 192 353 192 258 q 212 484 192 414 q 354 734 256 634 q 587 861 452 834 z "},"£":{"ha":882,"x_min":67,"x_max":1070,"o":"m 275 119 l 361 421 l 242 421 l 284 568 l 404 568 l 423 636 q 487 782 447 718 q 572 886 526 846 q 673 952 618 926 q 780 988 728 978 q 884 998 831 998 q 1044 971 966 998 l 1070 962 l 979 829 l 957 835 q 857 850 903 850 q 766 838 807 850 q 697 806 726 826 q 647 754 669 785 q 610 691 625 724 q 585 618 596 659 l 570 568 l 930 568 l 888 421 l 528 421 l 441 119 l 840 119 l 798 -28 l 67 -28 l 109 119 l 275 119 z "},"¤":{"ha":882,"x_min":165,"x_max":1005,"o":"m 316 390 q 312 432 312 411 q 380 616 312 527 l 296 734 l 456 858 l 541 739 q 660 765 602 765 q 766 739 720 765 l 916 857 l 1005 732 l 853 615 q 857 573 857 594 q 789 391 857 479 l 873 274 l 713 150 l 630 267 q 509 241 569 241 q 404 266 448 241 l 254 149 l 165 273 l 316 390 m 617 614 q 532 582 573 614 q 477 503 490 549 q 472 471 472 488 q 494 414 472 437 q 553 392 517 392 q 638 425 597 392 q 692 503 679 457 q 696 535 696 519 q 674 592 696 570 q 617 614 652 614 z "},"¥":{"ha":882,"x_min":208,"x_max":1118,"o":"m 333 991 l 524 991 l 617 613 l 934 991 l 1118 991 l 688 502 l 858 502 l 818 361 l 622 361 l 599 281 l 795 281 l 755 141 l 559 141 l 510 -28 l 346 -28 l 395 141 l 208 141 l 248 281 l 435 281 l 458 361 l 271 361 l 311 502 l 473 502 l 333 991 z "},"¦":{"ha":600,"x_min":149,"x_max":703,"o":"m 314 340 l 481 340 l 315 -237 l 149 -237 l 314 340 m 536 1114 l 703 1114 l 538 540 l 371 540 l 536 1114 z "},"§":{"ha":770,"x_min":77,"x_max":937,"o":"m 911 970 l 937 962 l 848 820 l 824 828 q 669 853 751 853 q 560 832 606 853 q 505 779 514 812 q 503 768 503 775 q 527 731 503 748 q 588 701 551 713 q 666 671 624 689 q 744 634 708 654 q 805 583 781 615 q 829 509 829 550 q 822 463 829 487 q 736 323 799 384 q 755 255 755 292 q 748 208 755 235 q 721 143 739 175 q 670 77 703 111 q 593 17 637 43 q 485 -25 550 -8 q 344 -41 420 -41 l 335 -41 q 100 5 204 -41 l 77 15 l 166 150 l 190 141 q 375 102 290 102 q 561 194 534 102 q 562 205 562 198 q 538 242 562 226 q 479 269 515 258 q 402 295 444 279 q 326 329 361 311 q 267 380 290 347 q 243 455 243 412 q 251 510 243 483 q 336 639 271 580 q 316 711 316 670 q 332 788 316 749 q 381 866 347 827 q 461 934 414 904 q 578 982 509 964 q 728 1000 648 1000 q 772 999 751 1000 q 807 996 793 997 q 839 990 820 994 q 864 984 858 985 q 889 977 869 983 q 911 970 909 970 m 454 558 q 431 523 436 541 q 430 513 430 519 q 440 488 430 499 q 471 465 450 476 q 511 447 492 454 q 562 428 529 439 q 612 409 595 416 q 634 449 627 425 q 636 460 636 455 q 626 486 636 474 q 596 507 616 497 q 556 523 576 516 q 505 541 537 530 q 454 558 473 551 z "},"¨":{"ha":814,"x_min":396,"x_max":934,"o":"m 448 991 l 629 991 l 577 810 l 396 810 l 448 991 m 753 991 l 934 991 l 882 810 l 701 810 l 753 991 z "},"©":{"ha":1194,"x_min":201,"x_max":1259,"o":"m 966 711 l 986 701 l 917 592 l 893 601 q 801 618 850 618 q 621 471 663 618 q 610 403 610 433 q 721 310 610 310 q 809 325 762 310 l 838 334 l 846 227 l 818 217 q 661 189 736 189 q 591 197 624 189 q 529 225 558 206 q 484 278 500 244 q 467 359 467 313 q 483 456 467 403 q 545 591 505 534 q 633 681 585 649 q 730 728 681 713 q 827 743 779 743 q 966 711 904 743 m 831 819 q 634 770 732 819 q 465 639 536 721 q 366 463 393 557 q 353 368 353 416 q 428 181 353 255 q 628 108 503 108 q 826 157 728 108 q 995 287 924 205 q 1093 463 1066 369 q 1107 558 1107 510 q 1031 745 1107 671 q 831 819 956 819 m 1239 463 q 1144 271 1211 363 q 991 111 1078 179 q 798 3 904 43 q 586 -37 691 -37 q 306 66 412 -37 q 201 329 201 170 q 220 463 201 396 q 314 653 249 562 q 466 813 379 745 q 659 923 552 882 q 873 964 766 964 q 1153 860 1047 964 q 1259 597 1259 757 q 1239 463 1259 534 z "},"ª":{"ha":515,"x_min":271,"x_max":663,"o":"m 525 674 l 523 674 q 420 662 455 674 q 377 622 385 650 q 376 613 376 616 q 389 586 376 598 q 428 574 402 574 q 509 617 467 574 l 525 674 m 551 764 q 555 792 555 783 q 494 837 555 837 q 380 819 439 837 l 361 814 l 364 895 l 380 899 q 527 925 457 925 q 663 829 663 925 q 652 767 663 805 l 575 498 l 499 498 l 496 523 q 392 486 441 486 q 304 511 337 486 q 271 580 271 535 q 277 621 271 598 q 312 692 290 663 q 371 736 335 720 q 449 758 407 751 q 551 764 491 764 z "},"«":{"ha":731,"x_min":138,"x_max":924,"o":"m 729 698 l 924 698 l 639 422 l 766 147 l 571 147 l 458 422 l 729 698 m 410 698 l 605 698 l 319 422 l 447 147 l 252 147 l 138 422 l 410 698 z "},"¬":{"ha":949,"x_min":162,"x_max":1043,"o":"m 208 524 l 1043 524 l 939 163 l 783 163 l 842 368 l 162 368 l 208 524 z "},"­":{"ha":728,"x_min":228,"x_max":757,"o":"m 271 522 l 757 522 l 713 372 l 228 372 l 271 522 z "},"®":{"ha":836,"x_min":233,"x_max":1009,"o":"m 654 824 l 606 824 l 581 736 q 609 736 600 736 q 625 736 617 736 q 682 746 663 736 q 707 778 700 755 q 709 795 709 787 q 696 818 709 811 q 654 824 682 824 m 702 912 q 810 831 810 912 q 802 785 810 812 q 768 719 793 751 q 703 668 744 686 l 738 512 q 855 635 815 566 q 895 775 895 705 q 842 912 895 857 q 695 966 789 966 q 486 890 585 966 q 356 707 387 813 q 346 638 346 671 q 401 502 346 555 q 547 448 456 448 q 734 509 644 448 l 632 509 l 604 650 l 556 650 l 515 509 l 418 509 l 534 912 l 702 912 m 994 707 q 891 522 966 607 q 715 388 816 437 q 515 339 615 339 q 310 415 387 339 q 233 608 233 490 q 247 707 233 655 q 350 892 275 808 q 526 1026 425 977 q 726 1076 626 1076 q 931 1000 852 1076 q 1009 807 1009 924 q 994 707 1009 758 z "},"¯":{"ha":949,"x_min":448,"x_max":1111,"o":"m 492 1140 l 1111 1140 l 1066 983 l 448 983 l 492 1140 z "},"°":{"ha":399,"x_min":256,"x_max":624,"o":"m 458 900 q 401 873 424 900 q 378 817 378 847 q 389 786 378 798 q 422 774 399 774 q 469 793 446 774 q 498 838 491 812 q 501 856 501 846 q 490 888 501 876 q 458 900 478 900 m 616 838 q 528 710 595 763 q 389 657 461 657 q 293 694 330 657 q 256 787 256 730 q 263 838 256 810 q 351 964 284 911 q 491 1017 418 1017 q 587 981 550 1017 q 624 888 624 945 q 616 838 624 865 z "},"±":{"ha":949,"x_min":142,"x_max":1032,"o":"m 185 222 l 892 222 l 849 74 l 142 74 l 185 222 m 682 991 l 836 991 l 756 712 l 1032 712 l 989 564 l 713 564 l 633 285 l 479 285 l 559 564 l 283 564 l 326 712 l 602 712 l 682 991 z "},"²":{"ha":543,"x_min":225,"x_max":698,"o":"m 243 561 q 323 668 277 618 q 410 749 369 718 q 487 807 450 781 q 547 853 523 833 q 576 889 572 873 q 577 899 577 896 q 560 932 577 918 q 511 947 543 947 q 381 913 473 947 l 364 907 l 353 999 l 369 1006 q 552 1050 471 1050 q 658 1020 618 1050 q 698 937 698 989 q 692 899 698 917 q 657 831 682 863 q 600 775 633 800 q 532 725 567 749 q 459 669 498 701 q 393 602 420 636 l 616 602 l 586 497 l 225 497 l 243 561 z "},"³":{"ha":543,"x_min":216,"x_max":681,"o":"m 544 1048 q 646 1018 610 1048 q 681 940 681 987 q 661 868 681 905 q 603 803 641 831 q 639 725 639 776 q 619 647 639 688 q 564 571 599 606 q 476 514 530 536 q 363 492 423 492 q 229 523 296 492 l 216 529 l 275 624 l 290 620 q 395 600 357 600 q 472 620 436 600 q 516 670 507 640 q 519 688 519 679 q 399 739 519 739 l 382 739 l 412 842 l 429 842 q 562 898 545 842 q 563 906 563 903 q 549 931 563 921 q 506 942 534 942 q 389 912 463 942 l 372 905 l 359 1000 l 376 1007 q 544 1048 474 1048 z "},"´":{"ha":761,"x_min":399,"x_max":895,"o":"m 857 1114 l 895 981 l 434 753 l 399 874 l 857 1114 z "},"µ":{"ha":798,"x_min":11,"x_max":901,"o":"m 298 698 l 465 698 l 349 292 q 334 198 334 237 q 429 104 334 104 q 576 146 479 104 l 734 698 l 901 698 l 693 -28 l 569 -28 l 564 5 q 368 -46 458 -46 q 260 -17 306 -46 l 178 -306 l 11 -306 l 298 698 z "},"¶":{"ha":899,"x_min":262,"x_max":1100,"o":"m 709 1053 l 1100 1053 l 790 -28 l 623 -28 l 888 895 l 781 895 l 516 -28 l 349 -28 l 482 438 q 405 453 441 441 q 335 489 368 466 q 282 554 302 513 q 262 652 262 596 q 281 768 262 706 q 325 871 297 825 q 381 946 352 917 q 450 997 411 975 q 520 1028 489 1018 q 592 1045 552 1039 q 656 1052 633 1050 q 709 1053 679 1053 z "},"·":{"ha":400,"x_min":215,"x_max":470,"o":"m 272 596 l 470 596 l 413 398 l 215 398 l 272 596 z "},"¸":{"ha":747,"x_min":135,"x_max":528,"o":"m 349 -245 q 382 -237 370 -245 q 396 -220 393 -229 q 397 -214 397 -218 q 395 -208 397 -211 q 391 -202 394 -205 q 384 -197 387 -199 q 373 -192 380 -195 q 360 -186 366 -189 q 344 -180 354 -184 q 325 -174 334 -177 q 303 -167 317 -172 q 278 -159 289 -162 l 254 -151 l 362 43 l 505 43 l 443 -73 q 528 -173 528 -104 q 522 -213 528 -191 q 446 -318 505 -272 q 312 -365 387 -365 q 286 -363 300 -365 q 263 -360 273 -361 q 236 -353 253 -358 q 213 -346 220 -349 q 185 -337 205 -344 q 159 -329 165 -331 l 135 -321 l 201 -206 l 226 -214 q 349 -245 317 -245 z "},"¹":{"ha":368,"x_min":282,"x_max":548,"o":"m 467 1042 l 548 1042 l 393 498 l 282 498 l 406 929 l 304 903 l 308 1002 l 467 1042 z "},"º":{"ha":511,"x_min":231,"x_max":722,"o":"m 524 943 q 484 937 504 943 q 441 914 465 930 q 397 863 418 898 q 362 779 376 829 q 347 686 347 724 q 370 615 347 635 q 426 595 393 595 q 457 598 441 595 q 492 614 472 602 q 528 644 511 625 q 563 697 545 663 q 593 774 580 730 q 606 857 606 822 q 524 943 606 943 m 705 777 q 581 570 667 646 q 395 493 494 493 q 277 531 322 493 q 231 654 231 570 q 251 777 231 707 q 375 976 288 905 q 555 1047 463 1047 q 613 1040 586 1047 q 666 1016 640 1033 q 707 967 692 1000 q 722 888 722 934 q 705 777 722 839 z "},"»":{"ha":731,"x_min":49,"x_max":836,"o":"m 207 698 l 402 698 l 516 422 l 244 147 l 49 147 l 335 422 l 207 698 m 526 698 l 722 698 l 836 422 l 564 147 l 368 147 l 654 422 l 526 698 z "},"¼":{"ha":1221,"x_min":210,"x_max":1234,"o":"m 1072 981 l 1230 981 l 368 -17 l 210 -17 l 1072 981 m 511 981 l 606 981 l 439 402 l 315 402 l 445 853 l 347 828 l 351 941 l 511 981 m 1102 584 l 1234 584 l 1131 224 l 1204 224 l 1173 115 l 1100 115 l 1062 -17 l 938 -17 l 976 115 l 711 115 l 735 198 l 1102 584 m 1059 408 l 891 224 l 1007 224 l 1059 408 z "},"½":{"ha":1286,"x_min":210,"x_max":1313,"o":"m 1072 981 l 1230 981 l 368 -17 l 210 -17 l 1072 981 m 511 981 l 606 981 l 437 395 l 313 395 l 445 853 l 347 828 l 351 941 l 511 981 m 816 52 q 888 152 847 104 q 966 231 929 199 q 1042 292 1004 263 q 1108 341 1080 321 q 1157 379 1137 360 q 1181 412 1177 397 q 1183 423 1183 416 q 1163 460 1183 444 q 1109 477 1144 477 q 966 441 1067 477 l 949 435 l 937 532 l 953 540 q 1154 588 1067 588 q 1269 555 1225 588 q 1313 465 1313 522 q 1307 423 1313 446 q 1268 350 1295 384 q 1204 287 1241 315 q 1129 232 1168 259 q 1048 170 1091 205 q 975 96 1006 134 l 1222 96 l 1190 -17 l 796 -17 l 816 52 z "},"¾":{"ha":1322,"x_min":234,"x_max":1338,"o":"m 1181 981 l 1338 981 l 476 -17 l 318 -17 l 1181 981 m 1204 584 l 1336 584 l 1233 224 l 1305 224 l 1274 115 l 1202 115 l 1164 -17 l 1040 -17 l 1078 115 l 813 115 l 837 198 l 1204 584 m 1161 408 l 993 224 l 1109 224 l 1161 408 m 593 1000 q 704 967 665 1000 q 742 882 742 934 q 719 803 742 843 q 654 731 696 762 q 696 646 696 700 q 689 598 696 624 q 579 448 663 506 q 394 391 495 391 q 248 425 325 391 l 234 431 l 298 533 l 313 529 q 430 506 391 506 q 515 528 475 506 q 564 585 554 550 q 568 605 568 597 q 435 663 568 663 l 418 663 l 450 773 l 467 773 q 563 788 521 773 q 614 836 605 802 q 616 846 616 843 q 600 874 616 863 q 553 886 585 886 q 424 853 505 886 l 406 846 l 392 947 l 408 954 q 593 1000 515 1000 z "},"¿":{"ha":710,"x_min":37,"x_max":701,"o":"m 412 698 l 583 698 l 575 670 q 556 553 556 604 q 571 473 556 509 q 607 414 586 437 q 649 368 628 390 q 686 314 671 345 q 701 245 701 283 q 688 163 701 210 q 625 48 670 103 q 524 -43 580 -7 q 408 -102 468 -80 q 298 -123 348 -123 q 170 -108 225 -123 q 57 -61 115 -93 l 37 -50 l 131 83 l 153 73 q 323 28 251 28 q 451 65 399 28 q 517 153 503 102 q 523 186 523 172 q 508 236 523 212 q 471 280 492 259 q 428 328 449 302 q 391 397 406 354 q 376 495 376 440 q 404 670 376 570 l 412 698 m 486 991 l 677 991 l 623 800 l 431 800 l 486 991 z "},"À":{"ha":1049,"x_min":88,"x_max":1137,"o":"m 746 964 l 933 964 l 1038 0 l 863 0 l 827 252 l 434 252 l 254 0 l 88 0 l 746 964 m 812 409 l 778 766 l 538 409 l 812 409 m 778 1319 l 1137 1080 l 1026 959 l 657 1187 l 778 1319 z "},"Á":{"ha":1049,"x_min":88,"x_max":1149,"o":"m 746 964 l 933 964 l 1038 0 l 863 0 l 827 252 l 434 252 l 254 0 l 88 0 l 746 964 m 812 409 l 778 766 l 538 409 l 812 409 m 1104 1319 l 1149 1187 l 648 959 l 607 1080 l 1104 1319 z "},"Â":{"ha":1049,"x_min":88,"x_max":1122,"o":"m 746 964 l 933 964 l 1038 0 l 863 0 l 827 252 l 434 252 l 254 0 l 88 0 l 746 964 m 812 409 l 778 766 l 538 409 l 812 409 m 957 1318 l 1122 1082 l 981 983 l 888 1115 l 718 985 l 632 1076 l 957 1318 z "},"Ã":{"ha":1049,"x_min":88,"x_max":1246,"o":"m 1112 1278 l 1246 1257 l 1232 1229 q 1223 1212 1229 1223 q 1205 1175 1212 1188 q 1185 1138 1199 1162 q 1159 1099 1171 1114 q 1128 1066 1147 1084 q 1090 1037 1109 1047 q 1045 1019 1072 1027 q 991 1012 1019 1012 q 922 1026 953 1013 q 871 1058 890 1040 q 838 1093 852 1076 q 811 1123 823 1111 q 789 1135 799 1135 q 771 1129 780 1135 q 753 1107 763 1122 q 738 1081 743 1091 q 721 1048 732 1072 q 714 1034 716 1039 l 701 1008 l 566 1026 l 580 1055 q 592 1080 583 1060 q 606 1108 602 1099 q 621 1136 610 1116 q 640 1165 632 1155 q 660 1192 647 1175 q 685 1218 673 1209 q 712 1239 696 1227 q 745 1257 728 1251 q 781 1268 761 1263 q 823 1272 802 1272 q 892 1258 861 1271 q 943 1226 924 1244 q 976 1191 962 1208 q 1003 1162 991 1174 q 1025 1149 1015 1149 q 1036 1152 1031 1149 q 1047 1161 1042 1154 q 1057 1173 1053 1167 q 1067 1189 1061 1178 q 1077 1207 1073 1200 q 1088 1229 1080 1214 q 1099 1251 1095 1244 l 1112 1278 m 812 409 l 778 766 l 538 409 l 812 409 m 746 964 l 933 964 l 1038 0 l 863 0 l 827 252 l 434 252 l 254 0 l 88 0 l 746 964 z "},"Ä":{"ha":1049,"x_min":88,"x_max":1200,"o":"m 746 964 l 933 964 l 1038 0 l 863 0 l 827 252 l 434 252 l 254 0 l 88 0 l 746 964 m 812 409 l 778 766 l 538 409 l 812 409 m 667 1286 l 866 1286 l 814 1105 l 614 1105 l 667 1286 m 1001 1286 l 1200 1286 l 1148 1105 l 949 1105 l 1001 1286 z "},"Å":{"ha":1049,"x_min":88,"x_max":1106,"o":"m 929 1270 q 1059 1226 1013 1270 q 1106 1117 1106 1182 q 1064 999 1106 1057 q 943 905 1023 941 l 1038 0 l 863 0 l 827 252 l 434 252 l 254 0 l 88 0 l 704 907 q 637 1022 637 949 q 661 1108 637 1064 q 723 1189 684 1153 q 817 1247 762 1225 q 929 1270 871 1270 m 895 1144 q 816 1114 847 1144 q 785 1048 785 1083 q 801 1009 785 1024 q 851 994 818 994 q 917 1016 886 994 q 956 1069 947 1039 q 958 1088 958 1078 q 941 1128 958 1112 q 895 1144 924 1144 m 812 409 l 778 766 l 538 409 l 812 409 z "},"Æ":{"ha":1410,"x_min":88,"x_max":1590,"o":"m 845 806 l 556 409 l 814 409 l 928 806 l 845 806 m 778 964 l 1590 964 l 1546 806 l 1109 806 l 1043 575 l 1442 575 l 1397 418 l 998 418 l 924 157 l 1360 157 l 1314 0 l 696 0 l 769 253 l 446 253 l 258 0 l 88 0 l 778 964 z "},"Ç":{"ha":1095,"x_min":303,"x_max":1309,"o":"m 605 -215 q 650 -194 644 -215 q 651 -191 651 -193 q 601 -160 651 -176 q 513 -135 589 -156 l 486 -127 l 566 6 q 370 126 436 39 q 303 334 303 212 q 325 481 303 408 q 418 675 355 586 q 571 830 482 765 q 774 933 659 896 q 1015 970 889 970 q 1287 917 1166 970 l 1309 907 l 1213 760 l 1190 769 q 967 813 1072 813 q 805 786 884 813 q 666 712 726 758 q 563 606 606 666 q 501 481 519 547 q 488 396 488 435 q 571 217 488 287 q 804 148 654 148 q 1036 187 913 148 l 1063 196 l 1080 60 l 1052 50 q 728 -14 891 -12 l 711 -45 q 804 -153 804 -77 q 732 -282 804 -222 q 564 -343 660 -343 q 506 -337 534 -343 q 388 -306 477 -332 l 361 -298 l 436 -174 l 463 -182 q 605 -215 571 -215 z "},"È":{"ha":981,"x_min":197,"x_max":1149,"o":"m 473 964 l 1149 964 l 1104 806 l 600 806 l 533 575 l 1000 575 l 956 418 l 488 418 l 414 157 l 918 157 l 873 0 l 197 0 l 473 964 m 725 1333 l 1101 1093 l 996 972 l 611 1200 l 725 1333 z "},"É":{"ha":981,"x_min":197,"x_max":1159,"o":"m 473 964 l 1149 964 l 1104 806 l 600 806 l 533 575 l 1000 575 l 956 418 l 488 418 l 414 157 l 918 157 l 873 0 l 197 0 l 473 964 m 1121 1333 l 1159 1200 l 642 972 l 608 1093 l 1121 1333 z "},"Ê":{"ha":981,"x_min":197,"x_max":1149,"o":"m 473 964 l 1149 964 l 1104 806 l 600 806 l 533 575 l 1000 575 l 956 418 l 488 418 l 414 157 l 918 157 l 873 0 l 197 0 l 473 964 m 926 1323 l 1095 1086 l 958 989 l 856 1120 l 675 991 l 595 1081 l 926 1323 z "},"Ë":{"ha":981,"x_min":197,"x_max":1174,"o":"m 473 964 l 1149 964 l 1104 806 l 600 806 l 533 575 l 1000 575 l 956 418 l 488 418 l 414 157 l 918 157 l 873 0 l 197 0 l 473 964 m 633 1287 l 830 1287 l 779 1106 l 582 1106 l 633 1287 m 977 1287 l 1174 1287 l 1122 1106 l 926 1106 l 977 1287 z "},"Ì":{"ha":551,"x_min":227,"x_max":867,"o":"m 503 964 l 674 964 l 398 0 l 227 0 l 503 964 m 547 1318 l 867 1078 l 762 959 l 432 1185 l 547 1318 z "},"Í":{"ha":606,"x_min":282,"x_max":947,"o":"m 558 964 l 729 964 l 453 0 l 282 0 l 558 964 m 909 1320 l 947 1187 l 430 959 l 396 1080 l 909 1320 z "},"Î":{"ha":551,"x_min":229,"x_max":848,"o":"m 505 964 l 676 964 l 400 0 l 229 0 l 505 964 m 705 1318 l 848 1081 l 716 983 l 636 1115 l 479 985 l 404 1076 l 705 1318 z "},"Ï":{"ha":510,"x_min":197,"x_max":859,"o":"m 473 964 l 644 964 l 368 0 l 197 0 l 473 964 m 414 1237 l 595 1237 l 543 1056 l 362 1056 l 414 1237 m 678 1237 l 859 1237 l 807 1056 l 626 1056 l 678 1237 z "},"Ð":{"ha":1200,"x_min":199,"x_max":1291,"o":"m 503 964 l 826 964 q 877 963 852 964 q 937 958 901 962 q 1005 949 973 955 q 1073 931 1036 943 q 1140 904 1110 920 q 1199 865 1171 888 q 1248 811 1228 841 q 1279 742 1267 782 q 1291 654 1291 702 q 1269 510 1291 588 q 507 0 1123 0 l 227 0 l 347 418 l 199 418 l 244 576 l 392 576 l 503 964 m 790 806 l 629 806 l 563 576 l 740 576 l 695 418 l 518 418 l 444 157 l 556 157 q 636 159 600 157 q 721 169 671 161 q 811 190 770 176 q 896 228 851 203 q 976 287 941 253 q 1041 372 1010 321 q 1090 488 1072 423 q 1104 584 1104 537 q 1089 666 1104 629 q 1040 736 1074 704 q 943 788 1006 769 q 790 806 879 806 z "},"Ñ":{"ha":1236,"x_min":197,"x_max":1370,"o":"m 1200 1278 l 1334 1257 l 1320 1229 q 1312 1212 1317 1223 q 1294 1175 1300 1188 q 1273 1138 1287 1162 q 1247 1099 1259 1114 q 1217 1066 1236 1084 q 1179 1037 1198 1047 q 1134 1019 1160 1027 q 1079 1012 1107 1012 q 1010 1026 1041 1013 q 960 1058 979 1040 q 926 1093 941 1076 q 899 1123 911 1111 q 877 1135 887 1135 q 860 1129 868 1135 q 841 1107 851 1122 q 826 1081 831 1091 q 809 1048 821 1072 q 802 1034 804 1039 l 789 1008 l 654 1026 l 668 1055 q 680 1080 671 1060 q 694 1108 690 1099 q 709 1136 699 1116 q 728 1165 720 1155 q 748 1192 735 1175 q 773 1218 762 1209 q 800 1239 784 1227 q 833 1257 817 1251 q 869 1268 849 1263 q 911 1272 890 1272 q 981 1258 949 1271 q 1031 1226 1012 1244 q 1064 1191 1050 1208 q 1091 1162 1079 1174 q 1114 1149 1103 1149 q 1124 1152 1119 1149 q 1135 1161 1130 1154 q 1145 1173 1141 1167 q 1155 1189 1149 1178 q 1165 1207 1161 1200 q 1176 1229 1168 1214 q 1187 1251 1183 1244 l 1200 1278 m 473 964 l 661 964 l 987 223 l 1199 964 l 1370 964 l 1094 0 l 903 0 l 581 742 l 368 0 l 197 0 l 473 964 z "},"Ò":{"ha":1255,"x_min":260,"x_max":1327,"o":"m 935 974 q 1222 886 1116 974 q 1327 642 1327 798 q 1304 492 1327 572 q 1165 230 1262 345 q 933 53 1067 116 q 647 -10 798 -10 q 495 11 565 -10 q 372 73 425 32 q 290 178 319 113 q 260 323 260 242 q 283 479 260 396 q 424 741 326 628 q 653 914 521 854 q 935 974 786 974 m 1126 481 q 1143 589 1143 540 q 1121 692 1143 647 q 1062 764 1099 737 q 978 804 1024 790 q 881 817 932 817 q 760 798 821 817 q 639 741 698 779 q 532 639 580 703 q 462 493 485 575 q 445 382 445 434 q 515 210 445 273 q 702 146 585 146 q 825 166 762 146 q 946 224 887 186 q 1053 330 1005 263 q 1126 481 1101 396 m 915 1321 l 1270 1082 l 1158 961 l 794 1189 l 915 1321 z "},"Ó":{"ha":1255,"x_min":260,"x_max":1327,"o":"m 935 974 q 1222 886 1116 974 q 1327 642 1327 798 q 1304 492 1327 572 q 1165 230 1262 345 q 933 53 1067 116 q 647 -10 798 -10 q 495 11 565 -10 q 372 73 425 32 q 290 178 319 113 q 260 323 260 242 q 283 479 260 396 q 424 741 326 628 q 653 914 521 854 q 935 974 786 974 m 1126 481 q 1143 589 1143 540 q 1121 692 1143 647 q 1062 764 1099 737 q 978 804 1024 790 q 881 817 932 817 q 760 798 821 817 q 639 741 698 779 q 532 639 580 703 q 462 493 485 575 q 445 382 445 434 q 515 210 445 273 q 702 146 585 146 q 825 166 762 146 q 946 224 887 186 q 1053 330 1005 263 q 1126 481 1101 396 m 1209 1320 l 1253 1187 l 757 959 l 717 1080 l 1209 1320 z "},"Ô":{"ha":1255,"x_min":260,"x_max":1327,"o":"m 935 974 q 1222 886 1116 974 q 1327 642 1327 798 q 1304 492 1327 572 q 1165 230 1262 345 q 933 53 1067 116 q 647 -10 798 -10 q 495 11 565 -10 q 372 73 425 32 q 290 178 319 113 q 260 323 260 242 q 283 479 260 396 q 424 741 326 628 q 653 914 521 854 q 935 974 786 974 m 1126 481 q 1143 589 1143 540 q 1121 692 1143 647 q 1062 764 1099 737 q 978 804 1024 790 q 881 817 932 817 q 760 798 821 817 q 639 741 698 779 q 532 639 580 703 q 462 493 485 575 q 445 382 445 434 q 515 210 445 273 q 702 146 585 146 q 825 166 762 146 q 946 224 887 186 q 1053 330 1005 263 q 1126 481 1101 396 m 1055 1318 l 1217 1082 l 1076 983 l 985 1115 l 817 985 l 732 1076 l 1055 1318 z "},"Õ":{"ha":1255,"x_min":260,"x_max":1342,"o":"m 1208 1278 l 1342 1257 l 1328 1229 q 1320 1212 1325 1223 q 1302 1175 1308 1188 q 1281 1138 1295 1162 q 1256 1099 1267 1114 q 1225 1066 1244 1084 q 1187 1037 1206 1047 q 1142 1019 1168 1027 q 1087 1012 1116 1012 q 1018 1026 1049 1013 q 968 1058 987 1040 q 934 1093 949 1076 q 907 1123 920 1111 q 885 1135 895 1135 q 868 1129 876 1135 q 849 1107 859 1122 q 834 1081 840 1091 q 817 1048 829 1072 q 810 1034 812 1039 l 798 1008 l 662 1026 l 676 1055 q 688 1080 679 1060 q 702 1108 698 1099 q 718 1136 707 1116 q 736 1165 728 1155 q 756 1192 743 1175 q 781 1218 770 1209 q 808 1239 792 1227 q 841 1257 825 1251 q 878 1268 857 1263 q 920 1272 898 1272 q 989 1258 958 1271 q 1039 1226 1020 1244 q 1073 1191 1058 1208 q 1099 1162 1087 1174 q 1122 1149 1112 1149 q 1133 1152 1127 1149 q 1143 1161 1138 1154 q 1153 1173 1149 1167 q 1163 1189 1157 1178 q 1173 1207 1169 1200 q 1184 1229 1177 1214 q 1195 1251 1192 1244 l 1208 1278 m 1126 481 q 1143 589 1143 540 q 1121 692 1143 647 q 1062 763 1099 736 q 979 804 1025 790 q 881 817 933 817 q 760 798 821 817 q 639 741 698 779 q 532 639 580 703 q 462 493 485 575 q 445 382 445 434 q 515 210 445 273 q 702 146 585 146 q 825 166 762 146 q 946 224 887 186 q 1053 330 1005 263 q 1126 481 1101 396 m 935 974 q 1222 886 1116 974 q 1327 642 1327 798 q 1304 492 1327 572 q 1165 230 1262 345 q 933 53 1067 116 q 647 -10 798 -10 q 495 11 565 -10 q 372 73 425 32 q 290 178 319 113 q 260 323 260 242 q 283 479 260 396 q 424 741 326 628 q 653 914 521 854 q 935 974 786 974 z "},"Ö":{"ha":1255,"x_min":260,"x_max":1327,"o":"m 935 974 q 1222 886 1116 974 q 1327 642 1327 798 q 1304 492 1327 572 q 1165 230 1262 345 q 933 53 1067 116 q 647 -10 798 -10 q 495 11 565 -10 q 372 73 425 32 q 290 178 319 113 q 260 323 260 242 q 283 479 260 396 q 424 741 326 628 q 653 914 521 854 q 935 974 786 974 m 1126 481 q 1143 589 1143 540 q 1121 692 1143 647 q 1062 764 1099 737 q 978 804 1024 790 q 881 817 932 817 q 760 798 821 817 q 639 741 698 779 q 532 639 580 703 q 462 493 485 575 q 445 382 445 434 q 515 210 445 273 q 702 146 585 146 q 825 166 762 146 q 946 224 887 186 q 1053 330 1005 263 q 1126 481 1101 396 m 766 1287 l 964 1287 l 912 1106 l 715 1106 l 766 1287 m 1098 1287 l 1295 1287 l 1244 1106 l 1046 1106 l 1098 1287 z "},"×":{"ha":992,"x_min":187,"x_max":1078,"o":"m 267 112 l 187 222 l 503 444 l 317 659 l 460 769 l 669 544 l 999 765 l 1078 654 l 764 433 l 948 218 l 806 107 l 597 332 l 267 112 z "},"Ø":{"ha":1302,"x_min":133,"x_max":1474,"o":"m 897 817 q 772 798 835 817 q 651 741 710 779 q 546 638 593 703 q 475 493 499 574 q 458 382 458 434 q 467 313 458 347 l 1100 741 q 897 817 1027 817 m 1426 961 l 1474 874 l 1318 769 q 1341 642 1341 709 q 1318 492 1341 572 q 1178 230 1276 345 q 946 53 1081 116 q 661 -10 812 -10 q 479 20 561 -10 q 346 111 397 51 l 181 -1 l 133 87 l 295 196 q 273 323 273 252 q 297 479 273 396 q 437 741 340 628 q 667 914 534 854 q 948 974 800 974 q 1267 854 1163 974 l 1426 961 m 1148 654 l 514 224 q 715 146 585 146 q 838 166 776 146 q 960 224 901 186 q 1067 330 1019 263 q 1139 481 1115 396 q 1156 589 1156 540 q 1148 654 1156 624 z "},"Ù":{"ha":1183,"x_min":271,"x_max":1316,"o":"m 473 964 l 644 964 l 469 353 q 456 273 456 306 q 659 142 456 142 q 787 157 732 142 q 878 203 842 173 q 935 269 913 233 q 970 353 957 305 l 1145 964 l 1316 964 l 1137 336 q 1125 297 1130 313 q 1107 252 1120 281 q 1081 200 1095 222 q 1044 149 1067 178 q 994 99 1021 120 q 928 55 967 78 q 843 19 888 33 q 738 -4 798 5 q 609 -14 677 -14 q 271 207 271 -14 q 293 336 271 260 l 473 964 m 834 1338 l 1202 1099 l 1090 979 l 711 1206 l 834 1338 z "},"Ú":{"ha":1183,"x_min":271,"x_max":1316,"o":"m 473 964 l 644 964 l 469 353 q 456 273 456 306 q 659 142 456 142 q 787 157 732 142 q 878 203 842 173 q 935 269 913 233 q 970 353 957 305 l 1145 964 l 1316 964 l 1137 336 q 1125 297 1130 313 q 1107 252 1120 281 q 1081 200 1095 222 q 1044 149 1067 178 q 994 99 1021 120 q 928 55 967 78 q 843 19 888 33 q 738 -4 798 5 q 609 -14 677 -14 q 271 207 271 -14 q 293 336 271 260 l 473 964 m 1193 1340 l 1237 1208 l 729 979 l 686 1101 l 1193 1340 z "},"Û":{"ha":1183,"x_min":271,"x_max":1316,"o":"m 473 964 l 644 964 l 469 353 q 456 273 456 306 q 659 142 456 142 q 787 157 732 142 q 878 203 842 173 q 935 269 913 233 q 970 353 957 305 l 1145 964 l 1316 964 l 1137 336 q 1125 297 1130 313 q 1107 252 1120 281 q 1081 200 1095 222 q 1044 149 1067 178 q 994 99 1021 120 q 928 55 967 78 q 843 19 888 33 q 738 -4 798 5 q 609 -14 677 -14 q 271 207 271 -14 q 293 336 271 260 l 473 964 m 1008 1318 l 1178 1081 l 1033 983 l 938 1115 l 766 985 l 677 1076 l 1008 1318 z "},"Ü":{"ha":1183,"x_min":271,"x_max":1316,"o":"m 473 964 l 644 964 l 469 353 q 456 273 456 306 q 659 142 456 142 q 787 157 732 142 q 878 203 842 173 q 935 269 913 233 q 970 353 957 305 l 1145 964 l 1316 964 l 1137 336 q 1125 297 1130 313 q 1107 252 1120 281 q 1081 200 1095 222 q 1044 149 1067 178 q 994 99 1021 120 q 928 55 967 78 q 843 19 888 33 q 738 -4 798 5 q 609 -14 677 -14 q 271 207 271 -14 q 293 336 271 260 l 473 964 m 717 1287 l 918 1287 l 867 1106 l 665 1106 l 717 1287 m 1057 1287 l 1258 1287 l 1206 1106 l 1005 1106 l 1057 1287 z "},"Ý":{"ha":968,"x_min":344,"x_max":1262,"o":"m 344 964 l 546 964 l 696 590 l 1067 964 l 1262 964 l 745 450 l 616 0 l 425 0 l 553 450 l 344 964 m 1081 1340 l 1127 1208 l 619 979 l 577 1101 l 1081 1340 z "},"Þ":{"ha":1010,"x_min":197,"x_max":1114,"o":"m 697 656 q 554 651 621 656 l 469 353 q 589 349 538 349 l 610 349 q 677 351 648 349 q 740 358 705 353 q 801 374 774 363 q 851 402 827 385 q 894 447 876 420 q 922 510 912 474 q 929 552 929 532 q 911 606 929 585 q 858 638 893 627 q 786 652 823 648 q 697 656 749 656 m 473 964 l 644 964 l 593 787 q 773 793 684 793 q 910 784 851 793 q 1016 756 968 776 q 1088 699 1063 736 q 1114 609 1114 662 q 1100 524 1114 573 q 1074 455 1090 489 q 1032 382 1059 420 q 973 313 1006 345 q 893 255 941 281 q 791 215 846 229 q 519 193 696 193 q 424 195 471 193 l 368 0 l 197 0 l 473 964 z "},"ß":{"ha":958,"x_min":132,"x_max":953,"o":"m 722 970 q 827 954 781 970 q 900 909 873 937 q 940 848 926 882 q 953 778 953 815 q 945 719 953 747 q 910 650 934 682 q 859 598 886 618 q 800 558 831 577 q 743 527 768 540 q 699 500 718 515 q 676 473 680 486 q 675 465 675 468 q 694 437 675 450 q 743 417 713 425 q 806 394 772 408 q 869 364 840 380 q 917 318 898 348 q 937 248 937 288 q 927 189 937 223 q 895 122 917 155 q 836 56 873 88 q 739 3 799 23 q 605 -18 679 -18 q 370 16 490 -18 l 341 23 l 418 153 l 446 148 q 619 127 555 127 q 715 144 685 127 q 755 196 746 161 q 758 212 758 207 q 743 245 758 231 q 703 269 728 260 q 649 288 679 279 q 591 308 620 296 q 537 334 562 319 q 497 372 513 349 q 482 427 482 396 q 489 473 482 449 q 531 548 500 515 q 596 601 561 581 q 666 638 632 621 q 727 674 701 656 q 758 712 753 692 q 762 734 762 726 q 732 792 762 770 q 663 814 702 814 q 643 813 654 814 q 615 806 632 811 q 581 791 597 802 q 546 765 564 780 q 514 724 529 749 q 490 665 499 698 l 299 0 l 132 0 l 323 666 q 374 781 342 729 q 446 867 406 832 q 532 925 485 901 q 626 959 578 949 q 722 970 673 970 z "},"à":{"ha":829,"x_min":127,"x_max":886,"o":"m 585 665 q 840 509 840 665 q 827 426 840 475 l 705 0 l 580 0 l 574 44 q 348 -14 468 -14 q 186 31 245 -14 q 127 141 127 75 q 133 181 127 163 q 182 267 147 230 q 262 325 216 303 q 374 361 309 347 q 503 380 439 374 q 648 386 567 385 l 654 408 q 661 449 661 431 q 630 500 661 481 q 520 518 600 518 q 320 490 437 518 l 292 484 l 295 614 l 321 623 q 585 665 446 665 m 586 170 l 612 260 l 595 260 q 386 245 458 260 q 304 193 314 229 q 303 186 303 191 q 337 147 303 164 q 426 130 371 130 q 586 170 510 130 m 643 1056 l 886 788 l 765 673 l 494 933 l 643 1056 z "},"á":{"ha":829,"x_min":127,"x_max":904,"o":"m 839 1063 l 904 940 l 490 680 l 427 795 l 839 1063 m 586 170 l 612 260 l 595 260 q 386 245 458 260 q 304 193 314 229 q 303 186 303 191 q 337 147 303 164 q 426 130 371 130 q 586 170 510 130 m 585 665 q 840 509 840 665 q 827 426 840 475 l 705 0 l 580 0 l 574 44 q 348 -14 468 -14 q 186 31 245 -14 q 127 141 127 75 q 133 181 127 163 q 182 267 147 230 q 262 325 216 303 q 374 361 309 347 q 503 380 439 374 q 648 386 567 385 l 654 408 q 661 449 661 431 q 630 500 661 481 q 520 518 600 518 q 320 490 437 518 l 292 484 l 295 614 l 321 623 q 585 665 446 665 z "},"â":{"ha":829,"x_min":127,"x_max":878,"o":"m 718 1023 l 878 776 l 745 673 l 646 810 l 461 675 l 384 769 l 718 1023 m 586 170 l 612 260 l 595 260 q 386 245 458 260 q 304 193 314 229 q 303 186 303 191 q 337 147 303 164 q 426 130 371 130 q 586 170 510 130 m 585 665 q 840 509 840 665 q 827 426 840 475 l 705 0 l 580 0 l 574 44 q 348 -14 468 -14 q 186 31 245 -14 q 127 141 127 75 q 133 181 127 163 q 182 267 147 230 q 262 325 216 303 q 374 361 309 347 q 503 380 439 374 q 648 386 567 385 l 654 408 q 661 449 661 431 q 630 500 661 481 q 520 518 600 518 q 320 490 437 518 l 292 484 l 295 614 l 321 623 q 585 665 446 665 z "},"ã":{"ha":828,"x_min":127,"x_max":1000,"o":"m 878 983 l 1000 961 l 957 875 q 884 767 922 804 q 759 715 828 715 q 684 730 718 717 q 630 761 650 743 q 593 797 609 779 q 563 826 576 814 q 538 838 550 838 q 481 775 512 838 q 479 771 479 772 l 448 711 l 325 730 l 368 817 q 424 905 397 874 q 573 976 487 976 q 647 961 613 975 q 702 930 681 948 q 740 895 723 912 q 769 865 756 877 q 793 852 783 852 q 809 858 801 852 q 823 874 817 864 q 834 892 830 884 q 844 910 839 901 q 848 920 848 920 l 878 983 m 582 170 l 608 260 l 591 260 q 385 245 456 260 q 304 193 314 229 q 303 186 303 191 q 336 147 303 164 q 424 130 370 130 q 582 170 507 130 m 583 665 q 840 509 840 665 q 827 426 840 475 l 705 0 l 580 0 l 574 44 q 347 -14 460 -14 q 186 31 245 -14 q 127 142 127 76 q 133 181 127 163 q 182 267 147 230 q 262 325 216 303 q 372 361 308 347 q 500 380 437 374 q 644 386 564 385 l 650 408 q 658 450 658 433 q 627 500 658 481 q 519 518 597 518 q 320 490 437 518 l 292 484 l 295 614 l 321 623 q 583 665 446 665 z "},"ä":{"ha":832,"x_min":127,"x_max":987,"o":"m 803 964 l 987 964 l 935 782 l 751 782 l 803 964 m 450 964 l 655 964 l 604 782 l 398 782 l 450 964 m 589 170 l 614 260 l 598 260 q 386 245 458 260 q 304 193 314 229 q 303 186 303 191 q 338 147 303 164 q 427 130 372 130 q 589 170 512 130 m 587 665 q 710 654 659 665 q 790 621 761 642 q 831 572 819 599 q 844 510 844 545 q 830 426 844 475 l 708 0 l 583 0 l 577 44 q 349 -14 469 -14 q 187 31 246 -14 q 127 142 127 76 q 133 181 127 163 q 164 245 143 216 q 213 295 184 274 q 279 331 241 315 q 357 357 317 347 q 447 373 397 367 q 545 382 497 380 q 650 386 593 385 l 657 408 q 665 449 665 433 q 633 499 665 481 q 522 518 602 518 q 321 490 439 518 l 292 484 l 295 614 l 321 623 q 587 665 447 665 z "},"å":{"ha":832,"x_min":127,"x_max":888,"o":"m 705 949 q 637 920 665 949 q 610 859 610 891 q 624 824 610 838 q 665 810 637 810 q 720 831 694 810 q 755 880 747 852 q 758 899 758 888 q 743 935 758 920 q 705 949 728 949 m 737 1067 q 848 1030 808 1067 q 888 933 888 993 q 880 880 888 907 q 787 747 857 801 q 631 692 717 692 q 513 732 557 692 q 468 833 468 772 q 475 880 468 857 q 573 1012 496 958 q 737 1067 649 1067 m 590 170 l 616 260 l 599 260 q 387 245 459 260 q 304 193 314 229 q 303 186 303 191 q 338 147 303 164 q 428 130 372 130 q 590 170 513 130 m 587 665 q 844 509 844 665 q 831 426 844 475 l 709 0 l 584 0 l 577 44 q 350 -14 470 -14 q 187 31 246 -14 q 127 142 127 76 q 133 181 127 163 q 182 267 147 230 q 263 325 217 303 q 375 361 310 347 q 506 380 441 374 q 652 386 570 385 l 658 408 q 665 448 665 431 q 633 499 665 481 q 522 518 602 518 q 321 490 439 518 l 292 484 l 295 614 l 321 623 q 587 665 447 665 z "},"æ":{"ha":1223,"x_min":128,"x_max":1248,"o":"m 307 210 q 305 197 305 203 q 336 151 305 170 q 412 131 367 131 q 553 178 484 131 l 585 287 q 445 279 500 286 q 361 260 389 272 q 323 237 334 248 q 307 210 312 226 m 992 513 q 874 481 926 513 q 800 399 823 448 l 1088 399 q 1091 429 1091 412 q 992 513 1091 513 m 321 625 q 576 665 448 665 q 779 566 733 665 q 914 639 842 612 q 1056 665 986 665 q 1248 477 1248 665 q 1215 287 1248 402 l 1207 259 l 755 259 l 755 252 q 807 165 755 199 q 947 132 860 132 q 1086 155 1005 132 l 1117 163 l 1109 35 l 1085 26 q 861 -14 968 -14 q 723 8 786 -14 q 623 75 661 31 q 346 -14 507 -14 q 190 30 252 -14 q 128 144 128 74 q 135 188 128 163 q 244 323 158 269 q 466 389 330 377 q 615 395 517 393 q 624 444 624 422 q 507 528 624 528 q 331 502 443 528 l 304 495 l 293 616 l 321 625 z "},"ç":{"ha":781,"x_min":148,"x_max":883,"o":"m 392 -218 q 429 -210 414 -217 q 446 -193 444 -203 q 447 -189 447 -192 q 426 -169 447 -177 q 345 -144 404 -160 q 306 -133 320 -137 l 279 -125 l 347 -12 q 156 194 156 26 q 174 306 156 245 q 236 445 196 383 q 325 546 277 507 q 433 612 374 586 q 550 650 492 639 q 669 661 608 661 q 863 618 780 661 l 883 608 l 802 477 l 779 486 q 642 509 716 509 q 353 325 405 509 q 342 256 342 288 q 545 121 342 121 q 672 142 610 121 l 701 151 l 709 26 l 682 16 q 509 -20 591 -14 l 492 -49 q 583 -148 583 -78 q 577 -187 583 -165 q 500 -292 560 -247 q 357 -338 440 -338 q 326 -336 342 -338 q 299 -333 310 -334 q 268 -326 288 -331 q 240 -319 248 -321 q 207 -310 232 -317 q 177 -302 182 -303 l 148 -294 l 220 -179 l 249 -187 q 390 -218 358 -218 l 392 -218 z "},"è":{"ha":841,"x_min":157,"x_max":891,"o":"m 652 666 q 873 488 873 666 q 844 322 873 429 l 822 248 l 322 248 q 380 165 323 200 q 545 131 436 131 q 705 154 622 131 l 734 161 l 730 33 l 704 25 q 455 -14 583 -14 q 312 3 372 -14 q 220 51 252 20 q 172 118 187 81 q 157 201 157 155 q 174 307 157 250 q 250 468 199 397 q 366 581 301 538 q 503 645 431 623 q 652 666 575 666 m 581 514 q 445 478 503 514 q 363 387 387 441 l 703 387 q 707 425 707 408 q 674 493 707 473 q 581 514 642 514 m 648 1063 l 891 795 l 770 680 l 502 940 l 648 1063 z "},"é":{"ha":841,"x_min":157,"x_max":963,"o":"m 652 666 q 873 488 873 666 q 844 322 873 429 l 822 248 l 322 248 q 380 165 323 200 q 545 131 436 131 q 705 154 622 131 l 734 161 l 730 33 l 704 25 q 455 -14 583 -14 q 312 3 372 -14 q 220 51 252 20 q 172 118 187 81 q 157 201 157 155 q 174 307 157 250 q 250 468 199 397 q 366 581 301 538 q 503 645 431 623 q 652 666 575 666 m 581 514 q 445 478 503 514 q 363 387 387 441 l 703 387 q 707 425 707 408 q 674 493 707 473 q 581 514 642 514 m 902 1063 l 963 940 l 562 680 l 493 795 l 902 1063 z "},"ê":{"ha":841,"x_min":157,"x_max":928,"o":"m 652 666 q 873 488 873 666 q 844 322 873 429 l 822 248 l 322 248 q 380 165 323 200 q 545 131 436 131 q 705 154 622 131 l 734 161 l 730 33 l 704 25 q 455 -14 583 -14 q 312 3 372 -14 q 220 51 252 20 q 172 118 187 81 q 157 201 157 155 q 174 307 157 250 q 250 468 199 397 q 366 581 301 538 q 503 645 431 623 q 652 666 575 666 m 581 514 q 445 478 503 514 q 363 387 387 441 l 703 387 q 707 425 707 408 q 674 493 707 473 q 581 514 642 514 m 775 1023 l 928 776 l 798 673 l 703 810 l 525 675 l 439 769 l 775 1023 z "},"ë":{"ha":851,"x_min":157,"x_max":1009,"o":"m 657 666 q 883 487 883 666 q 853 322 883 427 l 832 248 l 325 248 q 383 165 326 200 q 551 131 440 131 q 714 154 629 131 l 743 161 l 740 33 l 713 25 q 460 -14 590 -14 q 315 3 376 -14 q 221 51 254 20 q 172 119 187 82 q 157 201 157 156 q 174 307 157 251 q 251 468 199 397 q 368 581 302 538 q 507 645 433 623 q 657 666 580 666 m 585 514 q 446 477 505 514 q 363 387 387 441 l 709 387 q 713 425 713 408 q 585 514 713 514 m 471 964 l 676 964 l 624 782 l 419 782 l 471 964 m 820 964 l 1009 964 l 957 782 l 768 782 l 820 964 z "},"ì":{"ha":405,"x_min":130,"x_max":612,"o":"m 322 670 l 489 670 l 297 0 l 130 0 l 322 670 m 401 1063 l 612 806 l 494 696 l 271 945 l 401 1063 z "},"í":{"ha":405,"x_min":129,"x_max":726,"o":"m 321 670 l 488 670 l 296 0 l 129 0 l 321 670 m 663 1063 l 726 945 l 360 696 l 305 806 l 663 1063 z "},"î":{"ha":409,"x_min":130,"x_max":631,"o":"m 321 670 l 488 670 l 296 0 l 130 0 l 321 670 m 512 1027 l 631 786 l 502 688 l 440 810 l 307 690 l 235 780 l 512 1027 z "},"ï":{"ha":411,"x_min":122,"x_max":697,"o":"m 314 670 l 481 670 l 289 0 l 122 0 l 314 670 m 266 964 l 447 964 l 395 783 l 214 783 l 266 964 m 516 964 l 697 964 l 646 783 l 465 783 l 516 964 z "},"ð":{"ha":949,"x_min":156,"x_max":1063,"o":"m 351 354 q 340 288 340 319 q 384 175 340 218 q 497 133 428 133 q 554 141 525 133 q 620 168 584 149 q 690 228 656 187 q 750 327 725 269 q 793 454 770 374 l 800 481 q 604 547 695 547 q 447 494 518 547 q 351 354 375 440 m 680 988 q 873 896 791 959 l 1031 972 l 1063 859 l 950 803 q 989 648 989 737 q 958 461 989 572 q 925 359 942 406 q 883 263 907 313 q 829 174 858 213 q 761 98 800 134 q 676 39 722 62 q 571 1 630 15 q 443 -14 511 -14 q 231 43 307 -14 q 156 202 156 100 q 170 295 156 245 q 335 544 212 442 q 614 645 458 645 q 816 599 713 645 q 768 720 812 667 l 605 646 l 565 759 l 669 806 q 574 848 627 830 l 544 858 l 656 994 l 680 988 z "},"ñ":{"ha":901,"x_min":119,"x_max":1057,"o":"m 935 987 l 1057 964 l 1014 878 q 816 718 939 718 q 742 732 775 719 q 688 763 709 745 q 652 799 668 781 q 623 828 636 816 q 599 840 610 840 q 540 774 573 840 l 508 713 l 383 733 l 425 819 q 500 926 459 889 q 633 978 557 978 q 707 963 673 977 q 761 932 741 950 q 798 897 782 914 q 827 867 814 880 q 850 855 840 855 q 865 861 857 855 q 879 876 872 866 q 890 893 886 886 q 899 912 895 901 q 905 924 904 922 l 935 987 m 307 653 l 431 653 l 437 607 q 712 667 590 667 q 908 512 908 667 q 886 386 908 460 l 776 0 l 608 0 l 718 381 q 726 433 726 414 q 610 511 726 511 q 422 475 531 511 l 286 0 l 119 0 l 307 653 z "},"ò":{"ha":922,"x_min":161,"x_max":944,"o":"m 703 1063 l 942 795 l 816 680 l 556 940 l 703 1063 m 600 515 q 445 468 519 515 q 347 336 371 421 q 338 280 338 307 q 382 177 338 216 q 504 137 427 137 q 663 187 591 137 q 759 319 735 237 q 768 376 768 349 q 719 479 768 442 q 600 515 669 515 m 654 666 q 866 607 789 666 q 944 440 944 549 q 928 338 944 391 q 751 81 882 176 q 446 -14 621 -14 q 237 46 312 -14 q 161 214 161 106 q 178 320 161 263 q 352 573 224 479 q 654 666 479 666 z "},"ó":{"ha":922,"x_min":161,"x_max":944,"o":"m 654 666 q 866 607 789 666 q 944 440 944 549 q 928 338 944 391 q 751 81 882 176 q 446 -14 621 -14 q 237 46 312 -14 q 161 214 161 106 q 178 320 161 263 q 352 573 224 479 q 654 666 479 666 m 600 515 q 445 468 519 515 q 347 336 371 421 q 338 280 338 307 q 382 177 338 216 q 504 137 427 137 q 663 187 591 137 q 759 319 735 237 q 768 376 768 349 q 719 479 768 442 q 600 515 669 515 m 843 1063 l 919 940 l 510 680 l 448 795 l 843 1063 z "},"ô":{"ha":922,"x_min":161,"x_max":944,"o":"m 654 666 q 866 607 789 666 q 944 440 944 549 q 928 338 944 391 q 751 81 882 176 q 446 -14 621 -14 q 237 46 312 -14 q 161 214 161 106 q 178 320 161 263 q 352 573 224 479 q 654 666 479 666 m 600 515 q 445 468 519 515 q 347 336 371 421 q 338 280 338 307 q 382 177 338 216 q 504 137 427 137 q 663 187 591 137 q 759 319 735 237 q 768 376 768 349 q 719 479 768 442 q 600 515 669 515 m 767 1023 l 928 776 l 789 673 l 695 810 l 521 675 l 438 769 l 767 1023 z "},"õ":{"ha":922,"x_min":161,"x_max":1041,"o":"m 920 986 l 1041 964 l 999 878 q 926 770 964 807 q 802 718 871 718 q 727 733 761 720 q 673 764 694 746 q 636 799 652 782 q 607 829 620 817 q 583 841 593 841 q 525 778 556 841 q 523 774 524 775 l 492 713 l 370 732 l 412 819 q 464 903 440 874 q 616 979 528 979 q 690 964 656 977 q 745 933 724 951 q 782 897 766 915 q 812 867 799 880 q 836 855 825 855 q 851 861 843 855 q 865 877 859 867 q 877 895 872 887 q 886 913 881 903 q 890 923 890 922 l 920 986 m 600 515 q 445 468 519 515 q 347 336 371 421 q 338 280 338 307 q 382 177 338 216 q 504 137 427 137 q 663 187 591 137 q 759 319 735 237 q 768 376 768 349 q 719 479 768 442 q 600 515 669 515 m 654 666 q 866 607 789 666 q 944 440 944 549 q 928 338 944 391 q 751 81 882 176 q 446 -14 621 -14 q 237 46 312 -14 q 161 214 161 106 q 178 320 161 263 q 352 573 224 479 q 654 666 479 666 z "},"ö":{"ha":928,"x_min":161,"x_max":1028,"o":"m 658 666 q 873 607 795 666 q 951 439 951 548 q 936 338 951 395 q 757 81 889 176 q 450 -14 625 -14 q 237 46 313 -14 q 161 215 161 106 q 178 320 161 263 q 353 573 224 479 q 658 666 482 666 m 604 515 q 446 468 522 515 q 347 336 371 421 q 338 281 338 308 q 383 177 338 216 q 507 137 428 137 q 669 187 595 137 q 766 319 743 237 q 774 374 774 349 q 725 478 774 441 q 604 515 675 515 m 490 964 l 693 964 l 641 782 l 438 782 l 490 964 m 831 964 l 1028 964 l 976 782 l 779 782 l 831 964 z "},"÷":{"ha":1061,"x_min":191,"x_max":1125,"o":"m 666 836 l 874 836 l 820 648 l 612 648 l 666 836 m 496 244 l 704 244 l 650 56 l 442 56 l 496 244 m 234 521 l 1125 521 l 1082 371 l 191 371 l 234 521 z "},"ø":{"ha":920,"x_min":93,"x_max":1032,"o":"m 988 692 l 1032 594 l 928 519 q 943 433 943 479 q 928 336 943 387 q 751 80 881 174 q 448 -14 621 -14 q 250 39 323 -14 l 143 -37 l 93 43 l 187 110 q 162 217 162 157 q 178 321 162 266 q 352 573 224 480 q 653 666 479 666 q 875 597 800 666 l 988 692 m 600 515 q 499 496 549 515 q 406 435 449 477 q 347 336 363 393 q 338 279 338 307 q 349 223 338 248 l 715 481 q 600 515 670 515 m 764 405 l 411 155 q 503 136 450 136 q 611 158 560 136 q 695 213 661 179 q 748 290 728 248 q 767 374 767 332 q 764 405 767 391 z "},"ù":{"ha":901,"x_min":175,"x_max":968,"o":"m 802 670 l 968 670 l 776 0 l 652 0 l 645 45 q 370 -14 494 -14 q 175 143 175 -14 q 197 274 175 197 l 311 670 l 478 670 l 365 275 q 356 223 356 244 q 473 142 356 142 q 661 179 552 142 l 802 670 m 661 1063 l 911 806 l 789 696 l 517 945 l 661 1063 z "},"ú":{"ha":901,"x_min":175,"x_max":968,"o":"m 802 670 l 968 670 l 776 0 l 652 0 l 645 45 q 370 -14 494 -14 q 175 143 175 -14 q 197 274 175 197 l 311 670 l 478 670 l 365 275 q 356 223 356 244 q 473 142 356 142 q 661 179 552 142 l 802 670 m 897 1063 l 964 945 l 558 696 l 490 806 l 897 1063 z "},"û":{"ha":901,"x_min":175,"x_max":968,"o":"m 802 670 l 968 670 l 776 0 l 652 0 l 645 45 q 370 -14 494 -14 q 175 143 175 -14 q 197 274 175 197 l 311 670 l 478 670 l 365 275 q 356 223 356 244 q 473 142 356 142 q 661 179 552 142 l 802 670 m 760 1023 l 924 787 l 791 689 l 690 821 l 512 691 l 432 781 l 760 1023 z "},"ü":{"ha":905,"x_min":175,"x_max":998,"o":"m 806 670 l 972 670 l 781 0 l 656 0 l 650 45 q 372 -14 497 -14 q 175 144 175 -14 q 197 274 175 199 l 311 670 l 478 670 l 365 275 q 356 224 356 244 q 475 142 356 142 q 665 179 555 142 l 806 670 m 460 964 l 658 964 l 606 782 l 408 782 l 460 964 m 802 964 l 998 964 l 945 782 l 749 782 l 802 964 z "},"ý":{"ha":817,"x_min":68,"x_max":1000,"o":"m 225 670 l 401 670 l 475 155 l 824 670 l 1000 670 l 269 -360 l 68 -360 l 338 2 l 225 670 m 913 1063 l 981 945 l 585 696 l 516 806 l 913 1063 z "},"þ":{"ha":929,"x_min":22,"x_max":950,"o":"m 610 512 q 470 466 527 512 q 382 311 414 419 q 370 239 370 271 q 505 135 370 135 q 560 140 532 135 q 621 159 589 146 q 681 193 653 173 q 731 246 708 214 q 766 319 754 279 q 774 374 774 349 q 726 476 774 439 q 610 512 678 512 m 676 663 q 876 604 802 663 q 950 437 950 544 q 935 336 950 393 q 763 83 890 182 q 475 -16 635 -16 q 309 29 379 -16 l 197 -360 l 22 -360 l 402 964 l 577 964 l 477 616 q 676 663 572 663 z "},"ÿ":{"ha":819,"x_min":68,"x_max":1003,"o":"m 225 670 l 401 670 l 475 155 l 827 670 l 1003 670 l 269 -360 l 68 -360 l 338 2 l 225 670 m 438 964 l 640 964 l 587 782 l 386 782 l 438 964 m 778 964 l 976 964 l 924 782 l 726 782 l 778 964 z "},"Ā":{"ha":1049,"x_min":88,"x_max":1202,"o":"m 746 964 l 933 964 l 1038 0 l 863 0 l 827 252 l 434 252 l 254 0 l 88 0 l 746 964 m 812 409 l 778 766 l 538 409 l 812 409 m 589 1151 l 1202 1151 l 1160 1008 l 548 1008 l 589 1151 z "},"ā":{"ha":829,"x_min":127,"x_max":901,"o":"m 437 904 l 901 904 l 861 761 l 396 761 l 437 904 m 586 170 l 612 260 l 595 260 q 386 245 458 260 q 303 193 313 229 q 302 187 302 191 q 337 148 302 165 q 426 130 371 130 q 586 170 510 130 m 321 623 q 585 666 448 666 q 781 626 721 666 q 840 511 840 585 q 827 427 840 473 l 705 0 l 580 0 l 574 44 q 348 -14 468 -14 q 186 31 245 -14 q 127 141 127 75 q 133 181 127 163 q 182 267 147 230 q 263 326 216 303 q 374 361 309 348 q 503 380 439 375 q 648 387 567 386 l 654 408 q 661 449 661 431 q 630 500 661 481 q 520 518 600 518 q 320 490 437 518 l 292 484 l 295 614 l 321 623 z "},"Ă":{"ha":1049,"x_min":88,"x_max":1255,"o":"m 596 1217 l 760 1286 l 766 1261 q 776 1232 770 1246 q 797 1197 783 1218 q 836 1163 810 1176 q 895 1149 862 1149 q 1010 1184 948 1149 q 1124 1265 1072 1219 l 1148 1286 l 1255 1203 l 1230 1179 q 1042 1052 1147 1103 q 840 1000 937 1000 q 739 1017 784 1000 q 665 1062 693 1034 q 620 1124 636 1090 q 599 1194 603 1158 l 596 1217 m 812 409 l 778 766 l 538 409 l 812 409 m 746 964 l 933 964 l 1038 0 l 863 0 l 827 252 l 434 252 l 254 0 l 88 0 l 746 964 z "},"ă":{"ha":827,"x_min":127,"x_max":1019,"o":"m 370 915 l 522 992 l 528 964 q 537 932 531 948 q 558 893 544 916 q 600 856 573 870 q 663 841 627 841 q 785 880 720 841 q 901 969 851 919 l 924 992 l 1019 900 l 994 874 q 811 743 913 795 q 606 692 709 692 q 501 709 547 692 q 429 756 456 726 q 388 820 402 785 q 372 892 374 854 l 370 915 m 578 170 l 604 260 l 588 260 q 384 245 454 260 q 304 193 314 229 q 303 186 303 191 q 336 147 303 164 q 422 130 369 130 q 578 170 503 130 m 579 665 q 704 654 652 665 q 785 621 756 642 q 827 572 814 599 q 840 509 840 545 q 827 426 840 475 l 705 0 l 580 0 l 570 44 q 345 -14 457 -14 q 186 31 244 -14 q 127 141 127 75 q 133 181 127 163 q 170 254 144 222 q 232 309 195 287 q 313 346 269 330 q 411 369 356 361 q 519 381 466 378 q 637 386 572 385 l 644 408 q 651 450 651 434 q 622 500 651 482 q 516 518 592 518 q 320 490 437 518 l 292 484 l 295 614 l 321 623 q 579 665 446 665 z "},"Ą":{"ha":1105,"x_min":88,"x_max":1094,"o":"m 88 0 l 782 964 l 952 964 l 1094 0 l 1055 0 q 959 -12 1004 -1 q 883 -37 913 -22 q 825 -71 852 -51 q 782 -107 798 -92 q 754 -142 767 -123 q 738 -167 741 -161 q 732 -179 735 -174 q 730 -192 730 -185 q 772 -222 730 -222 q 895 -187 825 -222 l 924 -172 l 951 -280 l 928 -294 q 819 -346 882 -322 q 692 -369 755 -369 q 578 -335 621 -369 q 535 -246 535 -302 q 541 -203 535 -226 q 672 -39 565 -121 q 899 80 779 43 l 872 252 l 444 252 l 254 0 l 88 0 m 851 409 l 806 766 l 553 409 l 851 409 z "},"ą":{"ha":833,"x_min":128,"x_max":843,"o":"m 623 287 q 601 287 618 287 q 569 288 583 288 q 307 206 330 288 q 306 195 306 203 q 336 153 306 170 q 420 135 366 135 q 591 175 503 135 l 623 287 m 520 510 q 318 482 436 510 l 290 475 l 292 606 l 319 614 q 585 657 445 657 q 843 501 843 657 q 829 418 843 467 l 704 -20 l 687 -27 q 636 -49 669 -35 q 585 -72 604 -63 q 539 -93 566 -80 q 496 -116 512 -106 q 463 -138 479 -125 q 436 -163 446 -151 q 422 -189 427 -176 q 420 -200 420 -195 q 432 -222 420 -214 q 465 -231 444 -231 q 574 -196 500 -231 l 602 -183 l 631 -286 l 605 -300 q 383 -368 481 -368 q 266 -335 310 -368 q 221 -249 221 -302 q 288 -117 221 -186 q 490 11 354 -48 q 340 -12 411 -12 q 184 33 239 -12 q 128 142 128 77 q 197 279 128 215 q 393 367 267 343 q 651 385 491 383 l 655 399 q 663 440 663 425 q 631 491 663 473 q 520 510 600 510 z "},"Ć":{"ha":1095,"x_min":302,"x_max":1309,"o":"m 1200 1351 l 1246 1219 l 740 991 l 698 1112 l 1200 1351 m 324 481 q 417 675 354 585 q 568 830 480 764 q 771 933 656 896 q 1014 970 886 970 q 1287 917 1166 970 l 1309 907 l 1213 760 l 1190 769 q 965 813 1072 813 q 802 786 881 813 q 662 712 722 758 q 558 606 602 666 q 496 481 515 547 q 484 396 484 435 q 567 217 484 287 q 802 148 650 148 q 1036 187 913 148 l 1063 196 l 1080 60 l 1052 50 q 723 -14 887 -14 q 410 82 518 -14 q 302 334 302 177 q 324 481 302 404 z "},"ć":{"ha":778,"x_min":158,"x_max":908,"o":"m 176 313 q 237 451 198 390 q 323 552 275 512 q 428 617 370 591 q 544 654 486 644 q 665 665 602 665 q 861 623 778 665 l 881 613 l 800 482 l 777 491 q 640 514 716 514 q 345 333 397 514 q 335 268 335 296 q 545 134 335 134 q 672 154 608 134 l 701 162 l 709 35 l 681 26 q 455 -14 570 -14 q 364 -7 406 -14 q 283 15 322 -1 q 218 54 245 30 q 174 115 191 78 q 158 201 158 153 q 176 313 158 252 m 846 1063 l 908 940 l 497 680 l 434 795 l 846 1063 z "},"Ĉ":{"ha":1095,"x_min":302,"x_max":1309,"o":"m 324 481 q 417 675 354 585 q 568 830 480 764 q 771 933 656 896 q 1014 970 886 970 q 1287 917 1166 970 l 1309 907 l 1213 760 l 1190 769 q 965 813 1072 813 q 802 786 881 813 q 662 712 722 758 q 558 606 602 666 q 496 481 515 547 q 484 396 484 435 q 567 217 484 287 q 802 148 650 148 q 1036 187 913 148 l 1063 196 l 1080 60 l 1052 50 q 723 -14 887 -14 q 410 82 518 -14 q 302 334 302 177 q 324 481 302 404 m 1044 1323 l 1213 1087 l 1069 989 l 975 1120 l 804 991 l 716 1081 l 1044 1323 z "},"ĉ":{"ha":778,"x_min":158,"x_max":891,"o":"m 176 313 q 237 451 198 390 q 323 552 275 512 q 428 617 370 591 q 544 654 486 644 q 665 665 602 665 q 861 623 778 665 l 881 613 l 800 482 l 777 491 q 640 514 716 514 q 345 333 397 514 q 335 268 335 296 q 545 134 335 134 q 672 154 608 134 l 701 162 l 709 35 l 681 26 q 455 -14 570 -14 q 364 -7 406 -14 q 283 15 322 -1 q 218 54 245 30 q 174 115 191 78 q 158 201 158 153 q 176 313 158 252 m 737 1029 l 891 781 l 762 678 l 665 817 l 481 680 l 401 775 l 737 1029 z "},"Ċ":{"ha":1095,"x_min":302,"x_max":1309,"o":"m 885 1240 l 1105 1240 l 1049 1042 l 829 1042 l 885 1240 m 324 481 q 417 675 354 585 q 568 830 480 764 q 771 933 656 896 q 1014 970 886 970 q 1287 917 1166 970 l 1309 907 l 1213 760 l 1190 769 q 965 813 1072 813 q 802 786 881 813 q 662 712 722 758 q 558 606 602 666 q 496 481 515 547 q 484 396 484 435 q 567 217 484 287 q 802 148 650 148 q 1036 187 913 148 l 1063 196 l 1080 60 l 1052 50 q 723 -14 887 -14 q 410 82 518 -14 q 302 334 302 177 q 324 481 302 404 z "},"ċ":{"ha":784,"x_min":158,"x_max":886,"o":"m 176 313 q 237 451 198 390 q 324 552 276 512 q 430 617 372 591 q 547 654 489 644 q 669 665 606 665 q 866 623 782 665 l 886 613 l 806 482 l 783 491 q 643 514 721 514 q 345 333 397 514 q 335 269 335 297 q 549 134 335 134 q 677 154 612 134 l 707 162 l 714 35 l 687 26 q 458 -14 575 -14 q 367 -7 409 -14 q 285 15 324 -1 q 218 55 245 31 q 174 116 191 79 q 158 202 158 154 q 176 313 158 253 m 614 964 l 848 964 l 791 766 l 557 766 l 614 964 z "},"Č":{"ha":1095,"x_min":302,"x_max":1309,"o":"m 324 481 q 417 675 354 585 q 568 830 480 764 q 771 933 656 896 q 1014 970 886 970 q 1287 917 1166 970 l 1309 907 l 1213 760 l 1190 769 q 965 813 1072 813 q 802 786 881 813 q 662 712 722 758 q 558 606 602 666 q 496 481 515 547 q 484 396 484 435 q 567 217 484 287 q 802 148 650 148 q 1036 187 913 148 l 1063 196 l 1080 60 l 1052 50 q 723 -14 887 -14 q 410 82 518 -14 q 302 334 302 177 q 324 481 302 404 m 946 988 l 778 1224 l 921 1322 l 1015 1191 l 1186 1320 l 1271 1230 l 946 988 z "},"č":{"ha":778,"x_min":158,"x_max":937,"o":"m 176 313 q 237 451 198 390 q 323 552 275 512 q 428 617 370 591 q 544 654 486 644 q 665 665 602 665 q 861 623 778 665 l 881 613 l 800 482 l 777 491 q 640 514 716 514 q 345 333 397 514 q 335 268 335 296 q 545 134 335 134 q 672 154 608 134 l 701 162 l 709 35 l 681 26 q 455 -14 570 -14 q 364 -7 406 -14 q 283 15 322 -1 q 218 54 245 30 q 174 115 191 78 q 158 201 158 153 q 176 313 158 252 m 614 677 l 446 925 l 585 1028 l 686 890 l 863 1026 l 937 934 l 614 677 z "},"Ď":{"ha":1195,"x_min":197,"x_max":1255,"o":"m 888 989 l 744 1225 l 875 1323 l 956 1192 l 1114 1321 l 1190 1233 l 888 989 m 774 806 l 599 806 l 413 157 l 537 157 q 615 159 584 157 q 697 168 646 160 q 788 191 749 176 q 873 235 827 205 q 957 307 920 264 q 1055 488 1025 385 q 1069 586 1069 541 q 1052 675 1069 635 q 1005 740 1035 715 q 941 780 976 765 q 867 802 907 795 q 774 806 834 806 m 814 964 q 990 947 913 964 q 1117 902 1067 930 q 1198 834 1166 874 q 1242 749 1230 793 q 1255 654 1255 705 q 1233 510 1255 589 q 1188 390 1215 448 q 1119 272 1162 332 q 1022 164 1076 212 q 892 78 968 117 q 727 21 816 40 q 446 0 626 0 l 197 0 l 473 964 l 814 964 z "},"ď":{"ha":1160,"x_min":159,"x_max":1428,"o":"m 1224 1025 l 1428 1025 l 1186 689 l 983 689 l 1224 1025 m 176 316 q 351 575 224 484 q 646 667 478 667 q 794 644 724 667 l 903 1025 l 1070 1025 l 777 0 l 653 0 l 648 31 q 429 -14 539 -14 q 328 -2 374 -14 q 242 34 281 9 q 181 102 203 59 q 159 203 159 145 q 176 316 159 255 m 514 134 q 654 157 580 134 l 754 505 q 625 524 689 524 q 566 519 595 524 q 502 503 537 515 q 438 469 467 490 q 384 413 409 449 q 345 332 358 378 q 335 267 335 295 q 352 200 335 228 q 396 159 368 173 q 453 139 424 145 q 514 134 481 134 z "},"Đ":{"ha":1200,"x_min":199,"x_max":1291,"o":"m 790 806 l 629 806 l 563 576 l 740 576 l 695 418 l 518 418 l 444 157 l 556 157 q 636 159 600 157 q 721 169 671 161 q 811 190 770 176 q 896 228 851 203 q 976 287 941 253 q 1041 372 1010 321 q 1090 488 1072 423 q 1104 584 1104 537 q 1089 666 1104 629 q 1040 736 1074 704 q 943 788 1006 769 q 790 806 879 806 m 503 964 l 826 964 q 877 963 852 964 q 937 958 901 962 q 1005 949 973 955 q 1073 931 1036 943 q 1140 904 1110 920 q 1199 865 1171 888 q 1248 811 1228 841 q 1279 742 1267 782 q 1291 654 1291 702 q 1269 510 1291 588 q 507 0 1123 0 l 227 0 l 347 418 l 199 418 l 244 576 l 392 576 l 503 964 z "},"đ":{"ha":939,"x_min":159,"x_max":1117,"o":"m 628 524 q 570 519 599 524 q 508 503 542 515 q 445 469 473 490 q 391 413 416 449 q 353 332 366 378 q 343 266 343 294 q 354 211 343 235 q 383 172 366 186 q 424 149 400 158 q 471 137 448 140 q 517 134 493 134 q 655 157 583 134 l 755 505 q 628 524 691 524 m 649 667 q 795 644 727 667 l 819 731 l 616 731 l 657 874 l 861 874 l 904 1025 l 1071 1025 l 1027 874 l 1117 874 l 1076 731 l 986 731 l 777 0 l 653 0 l 649 31 q 433 -14 541 -14 q 352 -6 391 -14 q 278 17 314 1 q 216 59 242 34 q 175 122 191 84 q 159 208 159 160 q 176 316 159 256 q 353 575 224 484 q 649 667 482 667 z "},"Ē":{"ha":981,"x_min":197,"x_max":1183,"o":"m 197 0 l 473 964 l 1149 964 l 1104 806 l 600 806 l 533 575 l 1000 575 l 956 418 l 488 418 l 414 157 l 918 157 l 873 0 l 197 0 m 574 1151 l 1183 1151 l 1141 1008 l 533 1008 l 574 1151 z "},"ē":{"ha":841,"x_min":157,"x_max":935,"o":"m 174 307 q 250 468 199 397 q 366 581 301 538 q 503 645 431 623 q 652 666 575 666 q 873 488 873 666 q 844 322 873 429 l 822 248 l 322 248 q 380 165 323 200 q 545 131 436 131 q 705 154 622 131 l 734 161 l 730 33 l 704 25 q 455 -14 583 -14 q 312 3 372 -14 q 220 51 252 20 q 172 118 187 81 q 157 201 157 155 q 174 307 157 250 m 581 514 q 445 478 503 514 q 363 387 387 441 l 703 387 q 707 425 707 408 q 674 493 707 473 q 581 514 642 514 m 435 904 l 935 904 l 890 747 l 390 747 l 435 904 z "},"Ĕ":{"ha":981,"x_min":197,"x_max":1225,"o":"m 1126 1286 l 1225 1203 l 1201 1179 q 1007 1046 1108 1090 q 808 1002 905 1002 q 639 1053 702 1002 q 569 1194 576 1104 l 567 1217 l 719 1286 l 724 1261 q 775 1179 738 1208 q 865 1149 812 1149 q 1104 1265 975 1149 l 1126 1286 m 197 0 l 473 964 l 1149 964 l 1104 806 l 600 806 l 533 575 l 1000 575 l 956 418 l 488 418 l 414 157 l 918 157 l 873 0 l 197 0 z "},"ĕ":{"ha":840,"x_min":157,"x_max":1050,"o":"m 174 307 q 250 468 199 397 q 366 581 301 538 q 502 645 430 623 q 648 666 573 666 q 873 486 873 666 q 844 322 873 427 l 822 248 l 322 248 q 378 165 323 200 q 540 131 434 131 q 705 154 622 131 l 734 161 l 730 33 l 704 25 q 450 -14 583 -14 q 310 3 369 -14 q 219 51 251 20 q 172 118 186 81 q 157 199 157 154 q 174 307 157 250 m 577 514 q 444 478 500 514 q 363 387 387 441 l 696 387 q 700 425 700 408 q 577 514 700 514 m 409 915 l 563 992 l 568 964 q 574 940 570 952 q 588 909 578 928 q 612 876 598 890 q 648 851 625 862 q 699 841 671 841 q 819 880 754 841 q 934 969 884 919 l 956 992 l 1050 900 l 1025 873 q 845 743 945 794 q 645 692 745 692 q 541 709 587 692 q 469 756 496 726 q 428 820 442 785 q 410 892 413 854 l 409 915 z "},"Ė":{"ha":981,"x_min":197,"x_max":1149,"o":"m 197 0 l 473 964 l 1149 964 l 1104 806 l 600 806 l 533 575 l 1000 575 l 956 418 l 488 418 l 414 157 l 918 157 l 873 0 l 197 0 m 764 1240 l 1000 1240 l 944 1042 l 708 1042 l 764 1240 z "},"ė":{"ha":847,"x_min":157,"x_max":879,"o":"m 174 307 q 251 468 199 397 q 367 581 302 538 q 506 645 433 623 q 655 666 578 666 q 879 488 879 666 q 849 322 879 427 l 828 248 l 322 248 q 381 165 323 200 q 548 131 438 131 q 711 154 626 131 l 741 161 l 736 33 l 710 25 q 458 -14 587 -14 q 314 3 374 -14 q 220 51 254 20 q 172 119 187 82 q 157 201 157 156 q 174 307 157 251 m 585 514 q 446 478 505 514 q 363 387 387 441 l 708 387 q 712 425 712 408 q 585 514 712 514 m 621 964 l 857 964 l 800 766 l 564 766 l 621 964 z "},"Ę":{"ha":981,"x_min":197,"x_max":1149,"o":"m 473 964 l 1149 964 l 1104 806 l 600 806 l 533 575 l 1000 575 l 956 418 l 488 418 l 414 157 l 918 157 l 882 33 l 868 24 q 801 -14 842 9 q 738 -50 760 -37 q 687 -82 716 -63 q 642 -114 658 -100 q 612 -145 626 -128 q 594 -178 599 -161 q 592 -191 592 -186 q 635 -222 592 -222 q 743 -186 676 -222 l 772 -171 l 800 -279 l 776 -294 q 553 -368 652 -368 q 438 -335 480 -368 q 397 -246 397 -301 q 445 -123 397 -189 q 586 0 492 -58 l 197 0 l 473 964 z "},"ę":{"ha":846,"x_min":153,"x_max":876,"o":"m 170 293 q 233 436 192 372 q 321 540 273 499 q 428 609 370 581 q 541 648 486 636 q 653 659 597 659 q 762 645 717 659 q 831 606 807 631 q 865 550 854 580 q 876 481 876 519 q 845 312 876 419 l 823 236 l 319 236 q 381 153 319 186 q 545 120 442 120 q 707 143 627 120 l 736 152 l 732 22 l 705 14 q 527 -78 607 -15 q 435 -186 448 -141 q 433 -201 433 -195 q 474 -231 433 -231 q 587 -198 514 -231 l 614 -185 l 643 -286 l 618 -300 q 393 -369 498 -369 q 281 -337 321 -369 q 240 -253 240 -306 q 281 -141 240 -201 q 403 -20 321 -80 q 153 189 153 3 q 170 293 153 235 m 582 507 q 444 469 503 507 q 360 376 385 431 l 703 376 q 708 416 708 397 q 582 507 708 507 z "},"Ě":{"ha":981,"x_min":197,"x_max":1149,"o":"m 197 0 l 473 964 l 1149 964 l 1104 806 l 600 806 l 533 575 l 1000 575 l 956 418 l 488 418 l 414 157 l 918 157 l 873 0 l 197 0 m 807 988 l 637 1224 l 772 1322 l 877 1191 l 1058 1320 l 1138 1230 l 807 988 z "},"ě":{"ha":841,"x_min":157,"x_max":973,"o":"m 174 307 q 250 468 199 397 q 366 581 301 538 q 503 645 431 623 q 652 666 575 666 q 873 488 873 666 q 844 322 873 429 l 822 248 l 322 248 q 380 165 323 200 q 545 131 436 131 q 705 154 622 131 l 734 161 l 730 33 l 704 25 q 455 -14 583 -14 q 312 3 372 -14 q 220 51 252 20 q 172 118 187 81 q 157 201 157 155 q 174 307 157 250 m 581 514 q 445 478 503 514 q 363 387 387 441 l 703 387 q 707 425 707 408 q 674 493 707 473 q 581 514 642 514 m 653 677 l 484 925 l 628 1028 l 725 890 l 901 1026 l 973 934 l 653 677 z "},"Ĝ":{"ha":1190,"x_min":262,"x_max":1304,"o":"m 1128 140 q 683 -14 943 -14 q 522 5 593 -14 q 402 56 450 24 q 323 132 355 87 q 277 228 291 177 q 262 336 262 278 q 283 481 262 406 q 370 664 311 577 q 514 820 429 751 q 716 930 600 889 q 964 971 833 971 q 1284 886 1155 971 l 1304 872 l 1194 738 l 1173 751 q 1065 794 1131 775 q 925 814 998 814 q 733 776 828 814 q 562 663 637 739 q 457 488 486 587 q 444 396 444 442 q 529 213 444 282 q 758 144 614 144 q 979 201 883 144 l 1031 386 l 730 386 l 773 536 l 1242 536 l 1128 140 m 1031 1323 l 1197 1087 l 1055 989 l 964 1120 l 793 991 l 707 1081 l 1031 1323 z "},"ĝ":{"ha":899,"x_min":39,"x_max":963,"o":"m 430 775 l 760 1029 l 922 781 l 781 678 l 687 816 l 512 680 l 430 775 m 636 667 q 817 624 723 667 l 838 653 l 963 653 l 770 -20 q 732 -116 755 -71 q 670 -209 710 -161 q 578 -290 630 -256 q 450 -345 526 -323 q 281 -367 373 -367 q 60 -321 154 -367 l 39 -311 l 127 -180 l 150 -189 q 307 -218 223 -218 q 396 -208 355 -218 q 465 -183 437 -198 q 516 -145 492 -169 q 554 -104 541 -122 q 579 -59 567 -85 q 595 -21 591 -33 q 605 10 600 -9 q 607 17 606 15 q 429 -14 513 -14 q 327 -1 374 -14 q 241 37 279 12 q 181 106 203 62 q 159 209 159 151 q 178 325 159 260 q 240 460 199 399 q 329 558 281 520 q 433 621 377 595 q 539 656 489 646 q 636 667 589 667 m 345 336 q 336 272 336 301 q 379 171 336 209 q 507 134 422 134 q 647 157 572 134 l 744 496 q 603 521 666 521 q 440 471 510 521 q 345 336 370 420 z "},"Ğ":{"ha":1190,"x_min":261,"x_max":1343,"o":"m 688 1217 l 852 1286 l 859 1261 q 865 1239 861 1250 q 879 1211 869 1229 q 902 1181 889 1194 q 938 1159 915 1168 q 987 1149 960 1149 q 1102 1184 1040 1149 q 1217 1265 1164 1219 l 1240 1286 l 1343 1203 l 1319 1179 q 1136 1052 1240 1104 q 933 1000 1032 1000 q 831 1017 877 1000 q 757 1062 786 1034 q 712 1124 728 1090 q 691 1194 695 1158 l 688 1217 m 1128 140 q 683 -14 943 -14 q 492 13 574 -14 q 359 88 409 40 q 286 197 310 136 q 261 330 261 258 q 282 473 261 398 q 345 620 304 549 q 448 756 386 692 q 587 868 511 820 q 760 943 663 916 q 964 971 858 971 q 1284 886 1155 971 l 1304 872 l 1194 738 l 1173 751 q 1065 794 1131 775 q 925 814 998 814 q 733 776 828 814 q 562 663 637 739 q 457 488 486 587 q 444 396 444 442 q 529 213 444 282 q 758 144 614 144 q 979 201 883 144 l 1031 386 l 730 386 l 773 536 l 1242 536 l 1128 140 z "},"ğ":{"ha":899,"x_min":39,"x_max":1065,"o":"m 281 -367 q 60 -321 154 -367 l 39 -311 l 127 -180 l 150 -189 q 307 -218 223 -218 q 396 -208 355 -218 q 465 -183 437 -198 q 516 -145 492 -169 q 554 -104 541 -122 q 579 -59 567 -85 q 595 -21 591 -33 q 605 10 600 -9 q 607 17 606 15 q 429 -14 513 -14 q 327 -1 374 -14 q 241 37 279 12 q 181 106 203 62 q 159 209 159 151 q 178 325 159 260 q 240 460 199 399 q 329 558 281 520 q 433 621 377 595 q 539 656 489 646 q 636 667 589 667 q 817 624 723 667 l 838 653 l 963 653 l 772 -11 q 709 -155 749 -92 q 621 -257 669 -218 q 514 -322 572 -296 q 399 -357 455 -347 q 281 -367 342 -367 m 345 336 q 336 272 336 301 q 379 171 336 209 q 507 134 422 134 q 647 157 572 134 l 744 496 q 603 521 666 521 q 440 471 510 521 q 345 336 370 420 m 420 892 l 418 915 l 576 992 l 581 964 q 591 932 585 948 q 611 893 597 916 q 651 856 625 870 q 711 841 677 841 q 831 880 766 841 q 947 969 896 918 l 970 992 l 1065 900 l 1040 873 q 858 743 960 795 q 657 692 757 692 q 553 709 599 692 q 480 755 507 726 q 437 819 452 785 q 420 892 422 854 z "},"Ġ":{"ha":1190,"x_min":262,"x_max":1304,"o":"m 919 1240 l 1137 1240 l 1080 1042 l 863 1042 l 919 1240 m 1128 140 q 683 -14 943 -14 q 522 5 593 -14 q 402 56 450 24 q 323 132 355 87 q 277 228 291 177 q 262 336 262 278 q 283 481 262 406 q 370 664 311 577 q 514 820 429 751 q 716 930 600 889 q 964 971 833 971 q 1284 886 1155 971 l 1304 872 l 1194 738 l 1173 751 q 1065 794 1131 775 q 925 814 998 814 q 733 776 828 814 q 562 663 637 739 q 457 488 486 587 q 444 396 444 442 q 529 213 444 282 q 758 144 614 144 q 979 201 883 144 l 1031 386 l 730 386 l 773 536 l 1242 536 l 1128 140 z "},"ġ":{"ha":905,"x_min":39,"x_max":968,"o":"m 554 766 l 610 964 l 840 964 l 783 766 l 554 766 m 345 336 q 336 273 336 301 q 379 171 336 209 q 511 134 423 134 q 652 157 576 134 l 750 496 q 606 521 670 521 q 441 471 512 521 q 345 336 370 420 m 640 667 q 823 624 728 667 l 843 653 l 968 653 l 775 -20 q 738 -116 760 -71 q 675 -209 715 -161 q 583 -290 635 -256 q 454 -345 532 -323 q 284 -367 377 -367 q 61 -321 155 -367 l 39 -311 l 127 -179 l 151 -189 q 310 -218 219 -218 q 399 -208 358 -218 q 469 -183 441 -198 q 522 -145 497 -169 q 559 -104 546 -122 q 585 -59 572 -86 q 601 -21 597 -33 q 610 10 605 -9 q 612 17 612 15 q 433 -14 517 -14 q 330 -1 377 -14 q 243 37 282 12 q 182 107 204 63 q 160 210 160 151 q 178 325 160 263 q 240 460 199 399 q 330 558 281 520 q 434 621 378 595 q 542 656 491 646 q 640 667 593 667 z "},"Ģ":{"ha":1190,"x_min":262,"x_max":1304,"o":"m 1128 140 q 683 -14 943 -14 q 522 5 593 -14 q 402 56 450 24 q 323 132 355 87 q 277 228 291 177 q 262 336 262 278 q 283 481 262 406 q 347 629 305 557 q 451 762 389 700 q 589 871 513 825 q 762 944 665 918 q 964 971 859 971 q 1284 886 1155 971 l 1304 872 l 1194 738 l 1173 751 q 1065 794 1131 775 q 925 814 998 814 q 733 776 828 814 q 562 663 637 739 q 457 488 486 587 q 444 396 444 442 q 529 213 444 282 q 758 144 614 144 q 979 201 883 144 l 1031 386 l 730 386 l 773 536 l 1242 536 l 1128 140 m 628 -40 l 829 -40 l 594 -360 l 394 -360 l 628 -40 z "},"ģ":{"ha":907,"x_min":39,"x_max":970,"o":"m 497 714 l 743 1049 l 954 1049 l 707 714 l 497 714 m 345 334 q 335 272 335 300 q 379 170 335 208 q 512 132 424 132 q 654 156 578 132 l 751 495 q 608 519 671 519 q 441 469 513 519 q 345 334 369 419 m 641 665 q 824 623 729 665 l 845 653 l 970 653 l 777 -21 q 740 -117 762 -72 q 677 -210 718 -163 q 584 -291 636 -258 q 455 -347 532 -325 q 284 -368 377 -368 q 60 -323 155 -368 l 39 -312 l 127 -180 l 150 -191 q 311 -220 218 -220 q 400 -210 359 -220 q 470 -185 441 -199 q 523 -148 498 -171 q 560 -107 547 -125 q 586 -62 574 -89 q 602 -23 598 -36 q 612 9 606 -11 q 614 16 614 14 q 434 -14 520 -14 q 330 -1 378 -14 q 244 36 283 11 q 182 106 205 62 q 160 209 160 150 q 178 323 160 262 q 240 458 199 398 q 330 556 281 519 q 434 620 378 594 q 542 655 491 645 q 641 665 593 665 z "},"Ĥ":{"ha":1196,"x_min":197,"x_max":1330,"o":"m 1159 964 l 1330 964 l 1054 0 l 883 0 l 1003 418 l 488 418 l 368 0 l 197 0 l 473 964 l 644 964 l 532 576 l 1048 576 l 1159 964 m 1021 1326 l 1191 1090 l 1047 992 l 952 1124 l 780 994 l 693 1084 l 1021 1326 z "},"ĥ":{"ha":910,"x_min":125,"x_max":1042,"o":"m 616 511 q 429 475 536 511 l 292 0 l 125 0 l 417 1017 l 584 1017 l 470 618 q 713 665 606 665 q 915 503 915 665 q 892 372 915 450 l 785 0 l 616 0 l 724 379 q 733 429 733 409 q 616 511 733 511 m 875 1360 l 1042 1118 l 904 1018 l 805 1153 l 625 1020 l 550 1112 l 875 1360 z "},"Ħ":{"ha":1196,"x_min":197,"x_max":1404,"o":"m 1159 964 l 1330 964 l 1303 867 l 1404 867 l 1364 726 l 1262 726 l 1054 0 l 883 0 l 1003 418 l 488 418 l 368 0 l 197 0 l 405 726 l 303 726 l 344 867 l 446 867 l 473 964 l 644 964 l 614 862 l 1130 862 l 1159 964 m 1048 576 l 1095 741 l 580 741 l 532 576 l 1048 576 z "},"ħ":{"ha":908,"x_min":125,"x_max":916,"o":"m 420 1025 l 587 1025 l 543 874 l 794 874 l 753 731 l 502 731 l 470 618 q 709 665 604 665 q 916 504 916 665 q 897 388 916 455 l 785 0 l 609 0 l 719 382 q 728 432 728 411 q 613 511 728 511 q 429 475 534 511 l 292 0 l 125 0 l 335 731 l 246 731 l 287 874 l 376 874 l 420 1025 z "},"Ĩ":{"ha":551,"x_min":223,"x_max":915,"o":"m 671 996 q 621 1009 642 996 q 590 1042 600 1023 q 572 1080 579 1061 q 558 1112 564 1099 q 543 1126 551 1126 q 529 1114 537 1126 q 490 1045 522 1103 q 471 1013 478 1025 l 357 1046 q 375 1079 363 1057 q 394 1114 387 1102 q 413 1147 401 1126 q 435 1179 425 1167 q 458 1206 444 1191 q 486 1231 472 1222 q 516 1249 499 1240 q 552 1262 532 1258 q 593 1265 571 1265 q 637 1256 618 1265 q 667 1233 656 1247 q 686 1203 678 1219 q 699 1173 694 1187 q 709 1149 703 1158 q 721 1140 715 1140 q 731 1149 726 1140 q 761 1200 737 1158 q 801 1271 784 1241 l 915 1236 q 895 1199 911 1230 q 872 1157 878 1168 q 848 1118 865 1145 q 820 1078 831 1090 q 790 1047 809 1066 q 754 1019 771 1027 q 716 1003 738 1010 q 671 996 694 996 m 223 0 l 499 964 l 670 964 l 394 0 l 223 0 z "},"ĩ":{"ha":408,"x_min":121,"x_max":749,"o":"m 313 670 l 480 670 l 288 0 l 121 0 l 313 670 m 506 760 q 448 781 471 760 q 415 825 424 801 q 397 870 406 850 q 379 890 389 890 q 367 880 374 890 q 333 822 360 870 q 308 777 317 795 l 193 810 q 214 848 199 821 q 235 888 228 876 q 257 923 242 900 q 282 959 272 947 q 310 987 293 970 q 344 1011 328 1003 q 382 1024 360 1019 q 428 1030 404 1030 q 479 1017 458 1030 q 511 986 500 1004 q 529 949 522 967 q 542 918 536 930 q 555 905 548 905 q 567 914 561 905 q 602 975 572 923 q 635 1036 622 1011 l 749 1001 q 730 967 743 991 q 711 931 718 943 q 690 896 704 918 q 667 860 677 873 q 642 829 656 847 q 613 801 627 811 q 582 780 599 790 q 546 765 565 770 q 506 760 526 760 z "},"Ī":{"ha":551,"x_min":217,"x_max":800,"o":"m 466 1151 l 800 1151 l 758 1008 l 425 1008 l 466 1151 m 493 964 l 664 964 l 388 0 l 217 0 l 493 964 z "},"ī":{"ha":407,"x_min":119,"x_max":611,"o":"m 311 670 l 478 670 l 286 0 l 119 0 l 311 670 m 312 904 l 611 904 l 570 761 l 271 761 l 312 904 z "},"Ĭ":{"ha":606,"x_min":222,"x_max":947,"o":"m 407 1215 l 557 1284 l 562 1259 q 564 1238 563 1255 q 567 1208 564 1221 q 577 1180 570 1196 q 601 1156 585 1165 q 642 1147 618 1147 q 665 1149 654 1147 q 689 1157 677 1152 q 709 1166 701 1162 q 731 1179 718 1170 q 751 1194 744 1189 q 771 1211 758 1198 q 789 1228 785 1223 q 809 1246 794 1232 q 827 1263 823 1261 l 849 1284 l 947 1201 l 923 1177 q 755 1046 836 1094 q 589 998 674 998 q 516 1010 548 998 q 466 1039 485 1021 q 434 1084 447 1057 q 416 1136 422 1111 q 408 1192 411 1161 l 407 1215 m 498 964 l 669 964 l 393 0 l 222 0 l 498 964 z "},"ĭ":{"ha":457,"x_min":124,"x_max":781,"o":"m 249 970 l 396 1040 l 401 1015 q 403 994 402 1011 q 406 964 404 977 q 416 936 409 951 q 439 912 423 920 q 480 903 456 903 q 501 905 490 903 q 521 910 512 907 q 541 919 530 913 q 559 929 552 925 q 578 942 567 933 q 596 956 590 951 q 614 972 602 960 q 630 987 626 983 q 648 1004 635 991 q 663 1019 661 1017 l 686 1040 l 781 957 l 756 933 q 591 802 671 850 q 427 754 511 754 q 356 766 387 754 q 307 795 326 777 q 276 840 289 813 q 259 892 264 867 q 251 948 254 917 l 249 970 m 317 670 l 484 670 l 291 0 l 124 0 l 317 670 z "},"Į":{"ha":551,"x_min":-45,"x_max":664,"o":"m 80 -369 q -12 -338 20 -369 q -45 -255 -45 -307 q 28 -87 -45 -176 q 236 65 101 3 l 493 964 l 664 964 l 397 31 l 380 24 q 256 -43 309 -10 q 177 -103 203 -77 q 139 -146 151 -129 q 123 -178 127 -163 q 121 -194 121 -187 q 155 -224 121 -224 q 262 -187 189 -224 l 291 -172 l 318 -280 l 294 -294 q 80 -369 171 -369 z "},"į":{"ha":410,"x_min":-151,"x_max":574,"o":"m -142 -206 q -38 -46 -119 -125 q 144 81 43 33 l 313 670 l 480 670 l 294 23 l 274 16 q 105 -75 179 -15 q 18 -183 32 -134 q 15 -199 15 -195 q 48 -231 15 -231 q 155 -194 80 -231 l 183 -180 l 210 -286 l 187 -300 q -27 -376 64 -376 q -118 -345 -85 -376 q -151 -260 -151 -313 q -142 -206 -151 -236 m 387 964 l 574 964 l 522 780 l 334 780 l 387 964 z "},"İ":{"ha":551,"x_min":217,"x_max":755,"o":"m 557 1240 l 755 1240 l 699 1042 l 501 1042 l 557 1240 m 493 964 l 664 964 l 388 0 l 217 0 l 493 964 z "},"ı":{"ha":411,"x_min":122,"x_max":476,"o":"m 309 653 l 476 653 l 289 0 l 122 0 l 309 653 z "},"Ĳ":{"ha":1308,"x_min":217,"x_max":1447,"o":"m 493 964 l 664 964 l 388 0 l 217 0 l 493 964 m 1276 964 l 1447 964 l 1270 347 q 1248 279 1260 310 q 1215 210 1236 248 q 1169 142 1194 172 q 1106 82 1144 112 q 1024 33 1069 52 q 919 1 980 13 q 787 -12 858 -12 q 652 5 714 -12 l 629 12 l 701 163 l 727 156 q 814 146 766 146 q 897 154 859 146 q 963 175 936 163 q 1012 207 989 188 q 1048 243 1035 226 q 1073 282 1062 260 q 1089 317 1084 304 q 1099 348 1095 331 l 1276 964 z "},"ĳ":{"ha":816,"x_min":119,"x_max":978,"o":"m 714 670 l 881 670 l 670 -65 q 659 -102 663 -88 q 642 -144 654 -117 q 617 -192 630 -172 q 582 -238 604 -212 q 532 -285 559 -265 q 466 -326 505 -305 q 381 -361 427 -346 l 350 -369 l 304 -237 l 340 -225 q 451 -163 416 -199 q 500 -79 486 -127 l 714 670 m 789 964 l 978 964 l 926 780 l 736 780 l 789 964 m 311 670 l 478 670 l 286 0 l 119 0 l 311 670 m 385 964 l 575 964 l 523 780 l 333 780 l 385 964 z "},"Ĵ":{"ha":758,"x_min":78,"x_max":1061,"o":"m 725 964 l 896 964 l 720 347 q 697 279 709 310 q 664 210 685 248 q 618 142 644 172 q 556 82 593 112 q 474 33 518 52 q 368 1 429 13 q 237 -12 307 -12 q 102 5 163 -12 l 78 12 l 150 163 l 176 156 q 263 146 216 146 q 347 154 308 146 q 412 175 385 163 q 461 207 439 188 q 498 243 484 226 q 523 282 511 260 q 539 317 534 304 q 549 348 544 331 l 725 964 m 917 1323 l 1061 1087 l 930 989 l 849 1120 l 692 991 l 616 1081 l 917 1323 z "},"ĵ":{"ha":405,"x_min":-55,"x_max":631,"o":"m 512 1027 l 631 786 l 502 688 l 440 810 l 307 690 l 235 780 l 512 1027 m 321 670 l 488 670 l 278 -65 q 266 -105 271 -88 q 248 -149 260 -123 q 223 -196 237 -176 q 188 -242 210 -217 q 140 -287 165 -267 q 77 -327 114 -307 q -3 -361 40 -347 l -28 -369 l -55 -237 l -26 -225 q 108 -77 79 -180 l 321 670 z "},"Ķ":{"ha":1072,"x_min":197,"x_max":1302,"o":"m 197 0 l 473 964 l 644 964 l 517 522 l 1083 964 l 1302 964 l 707 503 l 1050 0 l 829 0 l 501 467 l 368 0 l 197 0 m 219 -347 l 452 -27 l 659 -27 l 420 -347 l 219 -347 z "},"ķ":{"ha":838,"x_min":108,"x_max":1004,"o":"m 108 -347 l 340 -27 l 547 -27 l 309 -347 l 108 -347 m 119 0 l 413 1025 l 580 1025 l 401 401 l 802 684 l 1004 684 l 571 377 l 818 0 l 613 0 l 382 334 l 286 0 l 119 0 z "},"ĸ":{"ha":830,"x_min":119,"x_max":964,"o":"m 391 368 l 775 653 l 964 653 l 558 347 l 813 0 l 603 0 l 372 302 l 286 0 l 119 0 l 307 653 l 473 653 l 391 368 z "},"Ĺ":{"ha":880,"x_min":206,"x_max":1061,"o":"m 482 964 l 653 964 l 426 157 l 910 157 l 865 0 l 206 0 l 482 964 m 1011 1351 l 1061 1219 l 545 991 l 511 1112 l 1011 1351 z "},"ĺ":{"ha":485,"x_min":142,"x_max":981,"o":"m 435 1025 l 618 1025 l 309 0 l 142 0 l 435 1025 m 946 1402 l 981 1270 l 473 1042 l 439 1162 l 946 1402 z "},"Ļ":{"ha":880,"x_min":96,"x_max":914,"o":"m 486 964 l 657 964 l 429 157 l 914 157 l 869 0 l 210 0 l 486 964 m 317 -27 l 528 -27 l 281 -347 l 96 -347 l 317 -27 z "},"ļ":{"ha":438,"x_min":-52,"x_max":610,"o":"m 443 1025 l 610 1025 l 316 0 l 149 0 l 443 1025 m 170 -27 l 352 -27 l 130 -347 l -52 -347 l 170 -27 z "},"Ľ":{"ha":880,"x_min":197,"x_max":1088,"o":"m 906 964 l 1088 964 l 867 644 l 685 644 l 906 964 m 473 964 l 644 964 l 412 157 l 901 157 l 856 0 l 197 0 l 473 964 z "},"ľ":{"ha":601,"x_min":132,"x_max":867,"o":"m 426 1025 l 593 1025 l 299 0 l 132 0 l 426 1025 m 698 1025 l 867 1025 l 679 705 l 509 705 l 698 1025 z "},"Ŀ":{"ha":880,"x_min":197,"x_max":901,"o":"m 473 964 l 644 964 l 412 157 l 901 157 l 856 0 l 197 0 l 473 964 m 648 586 l 882 586 l 825 388 l 591 388 l 648 586 z "},"ŀ":{"ha":612,"x_min":132,"x_max":726,"o":"m 426 1025 l 593 1025 l 299 0 l 132 0 l 426 1025 m 528 596 l 726 596 l 669 398 l 471 398 l 528 596 z "},"Ł":{"ha":880,"x_min":180,"x_max":901,"o":"m 473 964 l 644 964 l 542 608 l 784 710 l 732 529 l 508 435 l 428 157 l 901 157 l 856 0 l 197 0 l 293 336 l 180 283 l 229 454 l 342 507 l 473 964 z "},"ł":{"ha":515,"x_min":147,"x_max":654,"o":"m 446 1025 l 613 1025 l 490 595 l 654 679 l 607 513 l 444 437 l 319 0 l 152 0 l 256 361 l 147 307 l 195 472 l 302 524 l 446 1025 z "},"Ń":{"ha":1236,"x_min":197,"x_max":1370,"o":"m 473 964 l 661 964 l 987 223 l 1199 964 l 1370 964 l 1094 0 l 903 0 l 581 742 l 368 0 l 197 0 l 473 964 m 1211 1351 l 1257 1219 l 751 991 l 708 1112 l 1211 1351 z "},"ń":{"ha":901,"x_min":119,"x_max":1000,"o":"m 307 653 l 431 653 l 437 607 q 712 667 590 667 q 908 512 908 667 q 886 386 908 460 l 776 0 l 608 0 l 718 381 q 726 433 726 414 q 610 511 726 511 q 422 475 531 511 l 286 0 l 119 0 l 307 653 m 964 1059 l 1000 920 l 490 683 l 456 809 l 964 1059 z "},"Ņ":{"ha":1236,"x_min":197,"x_max":1370,"o":"m 534 -27 l 737 -27 l 500 -347 l 297 -347 l 534 -27 m 473 964 l 661 964 l 987 223 l 1199 964 l 1370 964 l 1094 0 l 903 0 l 581 742 l 368 0 l 197 0 l 473 964 z "},"ņ":{"ha":908,"x_min":116,"x_max":915,"o":"m 307 653 l 431 653 l 437 607 q 716 667 592 667 q 915 510 915 667 q 893 383 915 459 l 781 -7 l 614 -7 l 724 379 q 733 431 733 412 q 614 511 733 511 q 422 474 530 511 l 284 -7 l 117 -7 l 307 653 m 347 -33 l 566 -33 l 321 -347 l 116 -347 l 347 -33 z "},"Ň":{"ha":1236,"x_min":197,"x_max":1370,"o":"m 473 964 l 661 964 l 987 223 l 1199 964 l 1370 964 l 1094 0 l 903 0 l 581 742 l 368 0 l 197 0 l 473 964 m 955 988 l 786 1225 l 930 1322 l 1024 1191 l 1195 1320 l 1282 1230 l 955 988 z "},"ň":{"ha":901,"x_min":119,"x_max":977,"o":"m 307 653 l 431 653 l 437 607 q 712 667 590 667 q 908 512 908 667 q 886 386 908 460 l 776 0 l 608 0 l 718 381 q 726 433 726 414 q 610 511 726 511 q 422 475 531 511 l 286 0 l 119 0 l 307 653 m 650 680 l 484 928 l 623 1031 l 722 894 l 902 1029 l 977 932 l 650 680 z "},"ŉ":{"ha":1015,"x_min":217,"x_max":1024,"o":"m 422 653 l 546 653 l 553 607 q 828 667 706 667 q 1024 512 1024 667 q 1002 386 1024 460 l 892 0 l 724 0 l 833 381 q 842 432 842 412 q 725 511 842 511 q 538 475 647 511 l 401 0 l 235 0 l 422 653 m 322 964 l 479 964 l 374 597 l 217 597 l 322 964 z "},"Ŋ":{"ha":1229,"x_min":197,"x_max":1294,"o":"m 920 20 l 1079 573 q 1101 694 1101 650 q 922 836 1101 836 q 591 759 806 836 l 373 0 l 197 0 l 473 964 l 593 964 l 608 909 q 1022 1006 876 1006 q 1225 945 1157 1006 q 1294 780 1294 884 q 1290 727 1294 754 q 1265 621 1284 685 l 1088 4 q 1044 -96 1072 -52 q 985 -169 1017 -140 q 915 -215 954 -197 q 840 -240 877 -233 q 762 -248 802 -248 q 593 -223 686 -248 l 566 -216 l 635 -81 l 664 -86 q 770 -99 731 -99 q 829 -90 803 -99 q 870 -69 855 -81 q 896 -38 884 -57 q 911 -8 907 -19 q 920 20 916 3 z "},"ŋ":{"ha":901,"x_min":119,"x_max":907,"o":"m 613 511 q 429 475 534 511 l 293 -2 l 119 -2 l 307 653 l 431 653 l 440 608 q 711 666 592 666 q 809 652 768 666 q 869 614 849 639 q 899 564 890 590 q 907 505 907 537 q 888 393 907 460 l 779 12 q 752 -64 767 -29 q 712 -131 736 -98 q 657 -186 688 -163 q 584 -222 627 -208 q 489 -235 541 -235 q 311 -210 418 -235 l 283 -203 l 354 -68 l 382 -73 q 492 -86 467 -86 q 573 -60 546 -86 q 613 14 600 -35 l 718 381 q 727 433 727 414 q 613 511 727 511 z "},"Ō":{"ha":1255,"x_min":260,"x_max":1327,"o":"m 1126 481 q 1143 589 1143 540 q 1121 692 1143 647 q 1062 763 1099 736 q 979 804 1025 790 q 881 817 933 817 q 760 798 821 817 q 639 741 698 779 q 532 639 580 703 q 462 493 485 575 q 445 382 445 434 q 515 210 445 273 q 702 146 585 146 q 825 166 762 146 q 946 224 887 186 q 1053 330 1005 263 q 1126 481 1101 396 m 935 974 q 1222 886 1116 974 q 1327 642 1327 798 q 1304 492 1327 572 q 1165 230 1262 345 q 933 53 1067 116 q 647 -10 798 -10 q 495 11 565 -10 q 372 73 425 32 q 290 178 319 113 q 260 323 260 242 q 283 479 260 396 q 424 741 326 628 q 653 914 521 854 q 935 974 786 974 m 695 1151 l 1302 1151 l 1261 1008 l 654 1008 l 695 1151 z "},"ō":{"ha":922,"x_min":161,"x_max":1018,"o":"m 654 666 q 866 607 789 666 q 944 440 944 549 q 928 338 944 391 q 751 81 882 176 q 446 -14 621 -14 q 237 46 312 -14 q 161 214 161 106 q 178 320 161 263 q 352 573 224 479 q 654 666 479 666 m 600 515 q 445 468 519 515 q 347 336 371 421 q 338 280 338 307 q 382 177 338 216 q 504 137 427 137 q 663 187 591 137 q 759 319 735 237 q 768 376 768 349 q 719 479 768 442 q 600 515 669 515 m 416 863 l 1018 863 l 977 720 l 374 720 l 416 863 z "},"Ŏ":{"ha":1255,"x_min":260,"x_max":1354,"o":"m 700 1217 l 862 1286 l 868 1261 q 874 1239 871 1250 q 888 1211 878 1229 q 911 1181 898 1194 q 946 1159 924 1168 q 995 1149 968 1149 q 1109 1184 1048 1149 q 1222 1265 1171 1219 l 1245 1286 l 1354 1203 l 1329 1179 q 1140 1051 1244 1102 q 941 1000 1036 1000 q 840 1017 885 1000 q 767 1062 795 1034 q 723 1124 739 1090 q 703 1194 707 1158 l 700 1217 m 1126 481 q 1143 589 1143 540 q 1121 692 1143 647 q 1062 763 1099 736 q 979 804 1025 790 q 881 817 933 817 q 760 798 821 817 q 639 741 698 779 q 532 639 580 703 q 462 493 485 575 q 445 382 445 434 q 515 210 445 273 q 702 146 585 146 q 825 166 762 146 q 946 224 887 186 q 1053 330 1005 263 q 1126 481 1101 396 m 935 974 q 1222 886 1116 974 q 1327 642 1327 798 q 1304 492 1327 572 q 1165 230 1262 345 q 933 53 1067 116 q 647 -10 798 -10 q 495 11 565 -10 q 372 73 425 32 q 290 178 319 113 q 260 323 260 242 q 283 479 260 396 q 424 741 326 628 q 653 914 521 854 q 935 974 786 974 z "},"ŏ":{"ha":922,"x_min":161,"x_max":1081,"o":"m 435 915 l 593 992 l 599 964 q 608 932 602 948 q 628 893 614 916 q 668 856 642 870 q 728 841 694 841 q 847 880 783 841 q 962 969 911 918 l 985 992 l 1081 900 l 1055 873 q 873 743 975 795 q 673 692 772 692 q 570 709 616 692 q 496 756 524 726 q 454 820 469 785 q 436 892 439 854 l 435 915 m 600 515 q 445 468 519 515 q 347 336 371 421 q 338 280 338 307 q 382 177 338 216 q 504 137 427 137 q 663 187 591 137 q 759 319 735 237 q 768 376 768 349 q 719 479 768 442 q 600 515 669 515 m 654 666 q 866 607 789 666 q 944 440 944 549 q 928 338 944 391 q 751 81 882 176 q 446 -14 621 -14 q 237 46 312 -14 q 161 214 161 106 q 178 320 161 263 q 352 573 224 479 q 654 666 479 666 z "},"Ő":{"ha":1255,"x_min":260,"x_max":1512,"o":"m 1460 1364 l 1512 1239 l 1044 977 l 989 1091 l 1460 1364 m 1083 1364 l 1142 1239 l 660 977 l 606 1091 l 1083 1364 m 1126 481 q 1143 589 1143 540 q 1121 692 1143 647 q 1062 763 1099 736 q 979 804 1025 790 q 881 817 933 817 q 760 798 821 817 q 639 741 698 779 q 532 639 580 703 q 462 493 485 575 q 445 382 445 434 q 515 210 445 273 q 702 146 585 146 q 825 166 762 146 q 946 224 887 186 q 1053 330 1005 263 q 1126 481 1101 396 m 935 974 q 1222 886 1116 974 q 1327 642 1327 798 q 1304 492 1327 572 q 1165 230 1262 345 q 933 53 1067 116 q 647 -10 798 -10 q 495 11 565 -10 q 372 73 425 32 q 290 178 319 113 q 260 323 260 242 q 283 479 260 396 q 424 741 326 628 q 653 914 521 854 q 935 974 786 974 z "},"ő":{"ha":920,"x_min":161,"x_max":1165,"o":"m 650 666 q 864 606 785 666 q 943 437 943 547 q 928 338 943 391 q 749 82 882 177 q 443 -14 616 -14 q 236 46 310 -14 q 161 214 161 106 q 178 320 161 263 q 351 573 223 479 q 650 666 478 666 m 596 515 q 444 468 517 515 q 347 336 371 421 q 338 279 338 304 q 381 176 338 216 q 500 137 424 137 q 656 187 585 137 q 751 319 727 237 q 760 376 760 349 q 712 479 760 443 q 596 515 664 515 m 1103 1063 l 1165 940 l 779 680 l 715 795 l 1103 1063 m 781 1063 l 854 940 l 452 680 l 396 795 l 781 1063 z "},"Œ":{"ha":1466,"x_min":257,"x_max":1634,"o":"m 785 157 l 970 806 l 959 806 q 825 800 874 806 q 589 697 687 782 q 453 476 492 612 q 437 376 437 422 q 472 255 437 301 q 556 185 507 209 q 630 162 593 168 q 723 157 668 157 l 785 157 m 511 829 q 643 905 573 876 q 790 946 713 934 q 920 961 867 958 q 1053 964 973 964 l 1634 964 l 1589 806 l 1153 806 l 1086 575 l 1485 575 l 1440 418 l 1042 418 l 967 157 l 1403 157 l 1358 0 l 713 0 q 554 7 622 0 q 428 39 486 15 q 301 143 346 75 q 257 311 257 212 q 283 477 257 387 q 511 829 348 705 z "},"œ":{"ha":1324,"x_min":161,"x_max":1355,"o":"m 694 315 q 705 386 705 354 q 666 481 705 450 q 572 512 627 512 q 475 489 520 512 q 400 431 429 467 q 353 353 370 396 q 336 270 336 311 q 371 173 336 211 q 475 136 406 136 q 608 182 547 136 q 694 315 669 229 m 1090 535 q 967 490 1021 535 q 886 380 913 446 l 1181 380 q 1190 444 1190 416 q 1090 535 1190 535 m 1149 659 q 1355 485 1355 659 q 1324 314 1355 418 l 1303 241 l 845 241 l 845 237 q 893 153 845 189 q 1038 117 941 117 q 1181 137 1097 117 l 1211 144 l 1210 31 l 1184 24 q 953 -16 1066 -16 q 707 90 770 -16 q 418 -14 580 -14 q 229 45 296 -14 q 161 210 161 104 q 178 321 161 262 q 345 570 223 478 q 626 663 466 663 q 857 549 797 663 q 943 607 898 584 q 1027 641 987 631 q 1096 655 1067 652 q 1149 659 1124 659 z "},"Ŕ":{"ha":1086,"x_min":197,"x_max":1156,"o":"m 1141 688 q 1041 513 1114 590 q 848 403 968 436 l 1024 0 l 802 0 l 639 374 q 623 374 633 374 q 606 374 612 374 l 475 374 l 368 0 l 197 0 l 473 964 l 884 964 q 950 962 923 964 q 1014 953 978 960 q 1077 930 1049 946 q 1124 888 1105 913 q 1156 780 1156 844 q 1141 688 1156 736 m 600 807 l 521 531 l 678 531 q 826 546 768 531 q 924 608 884 561 q 964 707 964 654 q 941 767 964 741 q 867 802 918 793 q 768 807 838 807 l 600 807 m 1100 1351 l 1147 1219 l 635 991 l 601 1112 l 1100 1351 z "},"ŕ":{"ha":645,"x_min":119,"x_max":855,"o":"m 440 617 q 675 666 557 666 q 802 636 747 666 l 823 625 l 731 488 l 709 498 q 614 515 667 515 l 613 515 q 437 485 525 515 l 298 0 l 119 0 l 307 653 l 431 653 l 440 617 m 794 1063 l 855 940 l 434 680 l 379 795 l 794 1063 z "},"Ŗ":{"ha":1086,"x_min":97,"x_max":1158,"o":"m 319 -27 l 520 -27 l 280 -347 l 97 -347 l 319 -27 m 602 807 l 524 531 l 681 531 q 829 546 771 531 q 926 608 886 561 q 966 707 966 656 q 943 767 966 742 q 870 802 920 793 q 770 807 840 807 l 602 807 m 1144 688 q 1043 513 1116 590 q 851 403 970 436 l 1027 0 l 804 0 l 642 374 q 625 374 636 374 q 608 374 614 374 l 478 374 l 371 0 l 199 0 l 475 964 l 886 964 q 952 962 925 964 q 1016 953 980 960 q 1080 930 1052 946 q 1127 888 1108 913 q 1158 780 1158 844 q 1144 688 1158 736 z "},"ŗ":{"ha":642,"x_min":-82,"x_max":836,"o":"m 453 617 q 688 666 570 666 q 816 636 761 666 l 836 625 l 744 488 l 722 498 q 628 515 682 515 l 626 515 q 451 484 541 515 l 310 -7 l 130 -7 l 319 653 l 444 653 l 453 617 m 134 -33 l 336 -33 l 96 -347 l -82 -347 l 134 -33 z "},"Ř":{"ha":1086,"x_min":197,"x_max":1156,"o":"m 1141 688 q 1041 513 1114 590 q 848 403 968 436 l 1024 0 l 802 0 l 639 374 q 623 374 633 374 q 606 374 612 374 l 475 374 l 368 0 l 197 0 l 473 964 l 884 964 q 950 962 923 964 q 1014 953 978 960 q 1077 930 1049 946 q 1124 888 1105 913 q 1156 780 1156 844 q 1141 688 1156 736 m 600 807 l 521 531 l 678 531 q 826 546 768 531 q 924 608 884 561 q 964 707 964 654 q 941 767 964 741 q 867 802 918 793 q 768 807 838 807 l 600 807 m 803 988 l 641 1224 l 775 1322 l 872 1191 l 1046 1320 l 1136 1230 l 803 988 z "},"ř":{"ha":645,"x_min":119,"x_max":904,"o":"m 440 617 q 675 666 557 666 q 802 636 747 666 l 823 625 l 731 488 l 709 498 q 614 515 667 515 l 613 515 q 437 485 525 515 l 298 0 l 119 0 l 307 653 l 431 653 l 440 617 m 584 677 l 412 926 l 547 1028 l 657 890 l 831 1026 l 904 934 l 584 677 z "},"Ś":{"ha":1034,"x_min":181,"x_max":1188,"o":"m 1115 1351 l 1159 1219 l 647 991 l 608 1112 l 1115 1351 m 907 972 q 1162 932 1042 972 l 1188 924 l 1087 767 l 1063 774 q 850 808 949 808 q 670 776 750 808 q 575 692 590 743 q 572 674 572 684 q 598 626 572 648 q 664 590 623 605 q 755 559 705 574 q 853 526 804 545 q 944 483 903 507 q 1010 422 985 459 q 1036 338 1036 385 q 1026 277 1036 311 q 989 197 1015 237 q 920 119 964 157 q 820 51 876 80 q 683 4 763 22 q 509 -14 602 -14 q 347 4 416 -14 q 203 54 278 21 l 181 63 l 286 227 l 309 217 q 574 156 464 156 q 753 188 679 156 q 842 272 827 220 q 845 294 845 286 q 819 346 845 323 q 752 384 793 368 q 661 414 711 399 q 562 446 612 428 q 471 486 512 464 q 404 545 429 509 q 378 627 378 581 q 387 685 378 654 q 565 890 422 807 q 907 972 708 972 z "},"ś":{"ha":793,"x_min":100,"x_max":911,"o":"m 434 795 l 846 1063 l 911 940 l 498 680 l 434 795 m 595 197 q 595 199 595 197 q 595 201 595 201 q 569 231 595 218 q 502 253 542 244 q 416 276 463 262 q 329 308 369 291 q 263 354 290 324 q 236 424 236 385 q 242 463 236 442 q 267 515 250 489 q 317 569 283 541 q 396 618 351 597 q 510 652 441 639 q 661 666 578 666 q 746 661 709 666 q 798 652 783 656 q 843 637 813 648 l 869 629 l 783 493 l 760 499 q 598 524 680 524 q 510 516 547 524 q 454 496 472 508 q 428 474 435 484 q 417 457 420 465 q 416 452 416 455 q 454 420 416 435 q 544 391 491 405 q 650 358 597 376 q 741 306 703 340 q 778 228 778 273 q 772 193 778 212 q 748 138 764 164 q 701 83 732 112 q 625 34 669 55 q 514 0 581 14 q 363 -14 446 -14 q 122 39 235 -14 l 100 50 l 188 182 l 210 173 q 410 130 317 130 q 595 197 576 130 z "},"Ŝ":{"ha":1034,"x_min":181,"x_max":1188,"o":"m 907 972 q 1162 932 1042 972 l 1188 924 l 1087 767 l 1063 774 q 850 808 949 808 q 670 776 750 808 q 575 692 590 743 q 572 674 572 684 q 598 626 572 648 q 664 590 623 605 q 755 559 705 574 q 853 526 804 545 q 944 483 903 507 q 1010 422 985 459 q 1036 338 1036 385 q 1026 277 1036 311 q 989 197 1015 237 q 920 119 964 157 q 820 51 876 80 q 683 4 763 22 q 509 -14 602 -14 q 347 4 416 -14 q 203 54 278 21 l 181 63 l 286 227 l 309 217 q 574 156 464 156 q 753 188 679 156 q 842 272 827 220 q 845 294 845 286 q 819 346 845 323 q 752 384 793 368 q 661 414 711 399 q 562 446 612 428 q 471 486 512 464 q 404 545 429 509 q 378 627 378 581 q 387 685 378 654 q 565 890 422 807 q 907 972 708 972 m 926 1323 l 1100 1087 l 955 989 l 858 1120 l 683 991 l 599 1081 l 926 1323 z "},"ŝ":{"ha":793,"x_min":100,"x_max":895,"o":"m 401 775 l 736 1029 l 895 781 l 762 678 l 665 817 l 481 680 l 401 775 m 595 197 q 595 199 595 197 q 595 201 595 201 q 569 231 595 218 q 502 253 542 244 q 416 276 463 262 q 329 308 369 291 q 263 354 290 324 q 236 424 236 385 q 242 463 236 442 q 267 515 250 489 q 317 569 283 541 q 396 618 351 597 q 510 652 441 639 q 661 666 578 666 q 746 661 709 666 q 798 652 783 656 q 843 637 813 648 l 869 629 l 783 493 l 760 499 q 598 524 680 524 q 510 516 547 524 q 454 496 472 508 q 428 474 435 484 q 417 457 420 465 q 416 452 416 455 q 454 420 416 435 q 544 391 491 405 q 650 358 597 376 q 741 306 703 340 q 778 228 778 273 q 772 193 778 212 q 748 138 764 164 q 701 83 732 112 q 625 34 669 55 q 514 0 581 14 q 363 -14 446 -14 q 122 39 235 -14 l 100 50 l 188 182 l 210 173 q 410 130 317 130 q 595 197 576 130 z "},"Ş":{"ha":1034,"x_min":181,"x_max":1188,"o":"m 507 -215 q 554 -194 549 -215 q 554 -192 554 -193 q 555 -191 555 -191 q 529 -169 555 -179 q 442 -143 503 -159 q 411 -135 422 -138 l 383 -127 l 452 -12 q 325 8 380 -8 q 203 54 269 24 l 181 63 l 286 227 l 309 217 q 576 156 465 156 q 755 188 681 156 q 844 272 829 220 q 847 294 847 286 q 821 346 847 323 q 754 384 795 368 q 663 414 713 399 q 562 446 612 428 q 471 486 512 464 q 404 545 429 509 q 378 627 378 581 q 387 685 378 654 q 566 890 422 807 q 909 972 710 972 q 1162 932 1042 972 l 1188 924 l 1086 767 l 1063 774 q 851 808 951 808 q 672 776 752 808 q 578 692 593 743 q 575 674 575 684 q 601 626 575 648 q 667 590 626 605 q 756 559 707 574 q 855 526 806 545 q 945 483 904 507 q 1011 422 985 460 q 1036 338 1036 385 q 1027 278 1036 312 q 985 191 1014 234 q 909 108 956 149 q 792 38 863 68 q 637 -5 722 7 l 614 -45 q 713 -154 713 -77 q 639 -283 713 -223 q 466 -343 565 -343 q 407 -337 435 -343 q 283 -306 378 -332 l 254 -298 l 331 -174 l 359 -182 q 507 -215 472 -215 z "},"ş":{"ha":793,"x_min":98,"x_max":869,"o":"m 356 -218 q 396 -210 381 -218 q 413 -193 410 -203 q 414 -189 414 -192 q 412 -183 414 -186 q 406 -177 410 -180 q 397 -171 402 -174 q 384 -166 392 -169 q 368 -161 376 -163 q 347 -155 359 -159 q 323 -149 334 -152 q 296 -142 313 -146 q 265 -134 279 -138 l 236 -126 l 305 -16 q 121 33 208 -7 l 98 43 l 186 176 l 208 166 q 409 121 315 121 q 595 191 574 121 q 595 195 595 193 q 569 225 595 212 q 502 248 542 239 q 415 271 462 257 q 329 302 369 286 q 262 350 289 319 q 235 420 235 380 q 241 460 235 439 q 266 513 249 487 q 317 567 283 539 q 396 617 351 595 q 510 652 441 638 q 662 666 579 666 q 747 661 709 666 q 799 652 784 656 q 844 637 814 648 l 869 629 l 783 493 l 760 499 q 600 524 680 524 q 477 503 524 524 q 423 458 431 482 q 422 453 422 456 q 459 420 422 435 q 548 390 496 404 q 652 356 600 375 q 741 303 704 337 q 777 225 777 270 q 772 189 777 210 q 744 130 763 159 q 693 72 726 101 q 606 20 660 42 q 482 -12 551 -2 l 458 -50 q 554 -150 554 -77 q 548 -188 554 -167 q 469 -293 530 -248 q 319 -338 408 -338 q 299 -337 309 -338 q 282 -336 290 -336 q 263 -333 274 -335 q 246 -330 252 -331 q 227 -326 240 -330 q 210 -322 214 -323 q 191 -317 205 -321 q 174 -313 176 -313 q 155 -307 172 -312 q 138 -302 139 -302 l 113 -294 l 179 -180 l 205 -188 q 356 -218 323 -218 z "},"Š":{"ha":1034,"x_min":181,"x_max":1188,"o":"m 848 988 l 675 1224 l 821 1322 l 918 1191 l 1092 1320 l 1176 1230 l 848 988 m 907 972 q 1162 932 1042 972 l 1188 924 l 1087 767 l 1063 774 q 850 808 949 808 q 670 776 750 808 q 575 692 590 743 q 572 674 572 684 q 598 626 572 648 q 664 590 623 605 q 755 559 705 574 q 853 526 804 545 q 944 483 903 507 q 1010 422 985 459 q 1036 338 1036 385 q 1026 277 1036 311 q 989 197 1015 237 q 920 119 964 157 q 820 51 876 80 q 683 4 763 22 q 509 -14 602 -14 q 347 4 416 -14 q 203 54 278 21 l 181 63 l 286 227 l 309 217 q 574 156 464 156 q 753 188 679 156 q 842 272 827 220 q 845 294 845 286 q 819 346 845 323 q 752 384 793 368 q 661 414 711 399 q 562 446 612 428 q 471 486 512 464 q 404 545 429 509 q 378 627 378 581 q 387 685 378 654 q 565 890 422 807 q 907 972 708 972 z "},"š":{"ha":793,"x_min":100,"x_max":941,"o":"m 595 197 q 595 199 595 197 q 595 201 595 201 q 569 231 595 218 q 502 253 542 244 q 416 276 463 262 q 329 308 369 291 q 263 354 290 324 q 236 424 236 385 q 242 463 236 442 q 267 515 250 489 q 317 569 283 541 q 396 618 351 597 q 510 652 441 639 q 661 666 578 666 q 746 661 709 666 q 798 652 783 656 q 843 637 813 648 l 869 629 l 783 493 l 760 499 q 598 524 680 524 q 510 516 547 524 q 454 496 472 508 q 428 474 435 484 q 417 457 420 465 q 416 452 416 455 q 454 420 416 435 q 544 391 491 405 q 650 358 597 376 q 741 306 703 340 q 778 228 778 273 q 772 193 778 212 q 748 138 764 164 q 701 83 732 112 q 625 34 669 55 q 514 0 581 14 q 363 -14 446 -14 q 122 39 235 -14 l 100 50 l 188 182 l 210 173 q 410 130 317 130 q 595 197 576 130 m 941 934 l 613 677 l 445 925 l 585 1028 l 686 890 l 865 1026 l 941 934 z "},"Ţ":{"ha":987,"x_min":166,"x_max":1204,"o":"m 433 -214 q 474 -196 469 -213 q 474 -194 474 -195 q 475 -193 475 -193 q 471 -183 475 -188 q 460 -175 468 -179 q 444 -167 452 -170 q 422 -159 436 -163 q 398 -151 408 -154 q 371 -143 389 -149 q 344 -135 353 -138 l 311 -127 l 328 -101 q 357 -59 339 -85 q 380 -26 376 -33 q 396 -2 385 -19 q 409 22 406 16 q 418 45 412 28 q 429 76 425 62 q 441 116 433 91 l 639 806 l 289 806 l 334 964 l 1204 964 l 1160 806 l 810 806 l 614 125 q 583 30 597 66 q 540 -48 568 -5 q 648 -156 648 -86 q 643 -186 648 -172 q 553 -295 625 -247 q 389 -343 481 -343 q 351 -340 371 -343 q 317 -334 332 -338 q 266 -322 302 -331 q 201 -306 229 -313 l 166 -298 l 252 -174 l 286 -182 q 329 -194 301 -186 q 366 -203 357 -201 q 391 -209 375 -205 q 415 -213 406 -212 q 433 -214 425 -214 z "},"ţ":{"ha":617,"x_min":72,"x_max":745,"o":"m 381 862 l 569 862 l 509 653 l 745 653 l 704 510 l 469 510 l 382 209 q 377 176 377 191 q 469 111 377 111 q 570 123 491 111 l 597 127 l 591 14 l 564 7 q 450 -15 506 -7 l 432 -50 q 460 -61 448 -55 q 486 -79 472 -68 q 508 -108 500 -91 q 516 -147 516 -125 q 510 -187 516 -165 q 434 -292 493 -247 q 294 -338 374 -338 q 185 -325 245 -338 q 96 -302 125 -312 l 72 -295 l 138 -180 l 165 -188 q 196 -196 166 -189 q 243 -206 227 -203 q 286 -214 259 -210 q 331 -218 312 -218 q 385 -195 378 -218 q 387 -187 387 -189 q 367 -169 387 -176 q 281 -146 347 -161 q 229 -134 248 -138 l 196 -126 l 277 -3 q 178 123 178 27 q 191 197 178 155 l 281 510 l 193 510 l 233 653 l 321 653 l 381 862 z "},"Ť":{"ha":932,"x_min":289,"x_max":1204,"o":"m 334 964 l 1204 964 l 1160 806 l 810 806 l 578 0 l 408 0 l 639 806 l 289 806 l 334 964 m 785 988 l 617 1224 l 760 1322 l 855 1191 l 1026 1320 l 1114 1230 l 785 988 z "},"ť":{"ha":620,"x_min":180,"x_max":999,"o":"m 555 701 l 792 1036 l 999 1036 l 755 701 l 555 701 m 379 854 l 567 854 l 509 653 l 747 653 l 706 510 l 469 510 l 386 222 q 379 182 379 198 q 459 129 379 129 q 578 142 481 129 l 606 146 l 595 19 l 568 12 q 377 -14 455 -14 q 180 123 180 -14 q 194 208 180 161 l 281 510 l 193 510 l 233 653 l 321 653 l 379 854 z "},"Ŧ":{"ha":932,"x_min":264,"x_max":1204,"o":"m 334 964 l 1204 964 l 1160 806 l 810 806 l 733 538 l 986 538 l 941 381 l 688 381 l 578 0 l 408 0 l 517 381 l 264 381 l 309 538 l 562 538 l 639 806 l 289 806 l 334 964 z "},"ŧ":{"ha":614,"x_min":128,"x_max":742,"o":"m 562 12 q 390 -14 456 -14 q 232 19 284 -14 q 180 123 180 51 q 195 210 180 160 l 216 287 l 128 287 l 165 416 l 254 416 l 281 510 l 193 510 l 233 653 l 321 653 l 381 862 l 569 862 l 509 653 l 742 653 l 701 510 l 469 510 l 441 416 l 674 416 l 637 287 l 404 287 l 385 218 q 380 191 380 203 q 473 129 380 129 q 573 142 490 129 l 600 146 l 589 19 l 562 12 z "},"Ũ":{"ha":1183,"x_min":269,"x_max":1316,"o":"m 614 -14 q 269 207 269 -14 q 292 338 269 258 q 306 382 296 353 q 318 423 315 411 l 473 964 l 644 964 l 469 353 q 454 272 454 302 q 476 205 454 233 q 659 142 527 142 q 760 152 713 142 q 836 178 806 162 q 891 215 867 193 q 929 256 916 237 q 952 296 942 275 q 965 329 962 318 q 970 349 968 340 q 970 353 970 352 l 1145 964 l 1316 964 l 1162 423 q 1152 385 1159 414 q 1139 335 1144 355 q 1120 281 1133 315 q 1094 222 1107 247 q 1056 164 1080 197 q 1005 108 1032 132 q 938 60 978 85 q 853 21 899 36 q 746 -4 807 5 q 614 -14 684 -14 m 844 1263 q 914 1247 883 1261 q 964 1217 945 1234 q 997 1182 983 1199 q 1025 1152 1012 1164 q 1052 1140 1039 1140 q 1071 1145 1061 1140 q 1094 1164 1081 1151 q 1116 1187 1107 1177 q 1143 1218 1125 1196 q 1169 1249 1161 1240 l 1190 1272 l 1300 1218 l 1280 1192 q 1264 1171 1280 1192 q 1245 1146 1249 1151 q 1225 1122 1242 1142 q 1202 1096 1209 1103 q 1177 1073 1194 1089 q 1149 1049 1160 1056 q 1120 1031 1138 1042 q 1086 1015 1101 1020 q 1052 1006 1071 1010 q 1013 1002 1032 1002 q 942 1018 973 1004 q 892 1048 910 1031 q 859 1083 873 1066 q 831 1113 844 1101 q 804 1125 817 1125 q 790 1122 798 1125 q 775 1113 783 1119 q 759 1100 766 1106 q 742 1081 752 1093 q 724 1062 731 1069 q 706 1039 718 1054 q 687 1017 694 1024 l 667 993 l 559 1047 l 579 1073 q 595 1094 582 1076 q 614 1119 609 1112 q 634 1143 619 1126 q 657 1169 648 1160 q 681 1193 665 1177 q 709 1216 697 1208 q 738 1234 721 1223 q 771 1250 755 1244 q 806 1259 787 1255 q 844 1263 825 1263 z "},"ũ":{"ha":903,"x_min":184,"x_max":1066,"o":"m 611 968 q 686 953 652 966 q 739 922 719 940 q 773 887 758 905 q 803 858 789 870 q 830 846 817 846 q 844 848 837 846 q 859 857 850 850 q 872 868 867 863 q 888 885 878 873 q 904 905 899 897 q 923 929 910 912 q 943 954 936 945 l 962 979 l 1066 924 l 1046 898 q 1028 874 1043 895 q 1006 846 1013 854 q 984 819 1000 839 q 958 790 968 800 q 930 766 947 781 q 899 742 913 750 q 866 725 884 734 q 828 712 848 715 q 789 708 809 708 q 715 723 748 710 q 663 754 682 736 q 628 789 644 772 q 599 819 613 806 q 571 831 585 831 q 560 829 566 831 q 549 824 555 828 q 538 817 543 821 q 526 807 533 814 q 515 794 519 800 q 502 779 510 789 q 489 762 494 768 q 474 743 484 756 q 458 722 464 730 l 440 699 l 334 753 l 353 779 q 373 805 354 779 q 398 837 393 830 q 424 867 404 843 q 455 899 444 890 q 488 925 467 908 q 526 949 509 942 q 566 962 543 956 q 611 968 589 968 m 810 670 l 977 670 l 785 0 l 661 0 l 655 45 q 379 -14 503 -14 q 184 143 184 -14 q 207 274 184 197 l 320 670 l 487 670 l 374 275 q 366 224 366 244 q 483 142 366 142 q 670 179 562 142 l 810 670 z "},"Ū":{"ha":1183,"x_min":269,"x_max":1316,"o":"m 614 -14 q 269 207 269 -14 q 292 338 269 258 q 306 382 296 353 q 318 423 315 411 l 473 964 l 644 964 l 469 353 q 454 272 454 302 q 476 205 454 233 q 659 142 527 142 q 760 152 713 142 q 836 178 806 162 q 891 215 867 193 q 929 256 916 237 q 952 296 942 275 q 965 329 962 318 q 970 349 968 340 q 970 353 970 352 l 1145 964 l 1316 964 l 1162 423 q 1152 385 1159 414 q 1139 335 1144 355 q 1120 281 1133 315 q 1094 222 1107 247 q 1056 164 1080 197 q 1005 108 1032 132 q 938 60 978 85 q 853 21 899 36 q 746 -4 807 5 q 614 -14 684 -14 m 598 1151 l 1272 1151 l 1231 1008 l 557 1008 l 598 1151 z "},"ū":{"ha":901,"x_min":175,"x_max":968,"o":"m 802 670 l 968 670 l 776 0 l 652 0 l 645 45 q 370 -14 494 -14 q 175 143 175 -14 q 197 274 175 197 l 311 670 l 478 670 l 365 275 q 356 223 356 244 q 473 142 356 142 q 661 179 552 142 l 802 670 m 455 904 l 964 904 l 922 761 l 414 761 l 455 904 z "},"Ŭ":{"ha":1183,"x_min":269,"x_max":1316,"o":"m 597 1217 l 749 1286 l 755 1261 q 763 1239 759 1249 q 777 1212 766 1230 q 801 1181 787 1194 q 837 1159 814 1168 q 888 1149 860 1149 q 1005 1184 942 1149 q 1121 1265 1068 1219 l 1145 1286 l 1255 1203 l 1230 1179 q 1038 1052 1145 1103 q 833 1000 931 1000 q 731 1017 776 1000 q 659 1063 686 1034 q 616 1124 631 1091 q 599 1194 602 1158 l 597 1217 m 614 -14 q 269 208 269 -14 q 292 337 269 260 l 473 964 l 644 964 l 469 353 q 454 272 454 302 q 476 205 454 233 q 659 142 527 142 q 760 152 713 142 q 836 178 806 162 q 891 215 867 193 q 929 256 916 237 q 952 296 942 275 q 965 329 962 318 q 970 349 968 340 q 970 353 970 352 l 1145 964 l 1316 964 l 1162 423 q 1152 385 1159 414 q 1139 335 1144 355 q 1120 281 1133 315 q 1094 222 1107 247 q 1056 164 1080 197 q 1005 108 1032 132 q 938 60 978 85 q 853 21 899 36 q 746 -4 807 5 q 614 -14 684 -14 z "},"ŭ":{"ha":901,"x_min":175,"x_max":1045,"o":"m 802 670 l 968 670 l 776 0 l 652 0 l 645 45 q 370 -14 494 -14 q 175 143 175 -14 q 197 274 175 197 l 311 670 l 478 670 l 365 275 q 356 223 356 244 q 473 142 356 142 q 661 179 552 142 l 802 670 m 395 922 l 547 992 l 552 966 q 558 945 554 957 q 573 917 562 934 q 598 887 584 900 q 636 865 612 874 q 690 855 661 855 q 812 890 747 855 q 924 971 878 926 l 947 992 l 1045 909 l 1021 885 q 839 756 940 807 q 633 706 737 706 q 529 723 574 706 q 456 768 483 739 q 414 829 429 796 q 397 900 400 863 l 395 922 z "},"Ů":{"ha":1183,"x_min":269,"x_max":1316,"o":"m 994 1361 q 1105 1323 1062 1361 q 1148 1226 1148 1285 q 1141 1181 1148 1204 q 1046 1054 1120 1107 q 890 1001 972 1001 q 779 1039 822 1001 q 736 1136 736 1077 q 743 1181 736 1159 q 838 1308 764 1255 q 994 1361 911 1361 m 960 1244 q 897 1218 922 1244 q 872 1163 872 1192 q 885 1131 872 1143 q 924 1118 899 1118 q 978 1138 954 1118 q 1008 1181 1002 1158 q 1010 1197 1010 1190 q 997 1230 1010 1217 q 960 1244 983 1244 m 614 -14 q 269 208 269 -14 q 292 337 269 260 l 473 964 l 644 964 l 469 353 q 454 272 454 302 q 476 205 454 233 q 659 142 527 142 q 760 152 713 142 q 836 178 806 162 q 891 215 867 193 q 929 256 916 237 q 952 296 942 275 q 965 329 962 318 q 970 349 968 340 q 970 353 970 352 l 1145 964 l 1316 964 l 1162 423 q 1152 385 1159 414 q 1139 335 1144 355 q 1120 281 1133 315 q 1094 222 1107 247 q 1056 164 1080 197 q 1005 108 1032 132 q 938 60 978 85 q 853 21 899 36 q 746 -4 807 5 q 614 -14 684 -14 z "},"ů":{"ha":905,"x_min":175,"x_max":973,"o":"m 806 670 l 973 670 l 781 0 l 656 0 l 650 45 q 372 -14 497 -14 q 175 144 175 -14 q 197 274 175 199 l 311 670 l 478 670 l 365 275 q 356 224 356 244 q 475 142 356 142 q 665 179 555 142 l 806 670 m 759 1067 q 873 1029 831 1067 q 916 933 916 992 q 909 887 916 910 q 815 759 888 812 q 656 707 743 707 q 541 744 585 707 q 498 841 498 782 q 505 887 498 865 q 600 1014 526 962 q 759 1067 673 1067 m 726 949 q 661 924 687 949 q 635 869 635 898 q 649 837 635 849 q 690 824 663 824 q 743 843 718 824 q 776 887 768 862 q 778 903 778 895 q 764 936 778 923 q 726 949 749 949 z "},"Ű":{"ha":1183,"x_min":269,"x_max":1459,"o":"m 658 984 l 608 1109 l 1057 1371 l 1103 1257 l 658 984 m 1409 1371 l 1459 1246 l 1010 984 l 964 1098 l 1409 1371 m 614 -14 q 269 208 269 -14 q 292 337 269 260 l 473 964 l 644 964 l 469 353 q 454 272 454 302 q 476 205 454 233 q 659 142 527 142 q 760 152 713 142 q 836 178 806 162 q 891 215 867 193 q 929 256 916 237 q 952 296 942 275 q 965 329 962 318 q 970 349 968 340 q 970 353 970 352 l 1145 964 l 1316 964 l 1162 423 q 1152 385 1159 414 q 1139 335 1144 355 q 1120 281 1133 315 q 1094 222 1107 247 q 1056 164 1080 197 q 1005 108 1032 132 q 938 60 978 85 q 853 21 899 36 q 746 -4 807 5 q 614 -14 684 -14 z "},"ű":{"ha":900,"x_min":175,"x_max":1173,"o":"m 749 1063 l 812 945 l 448 696 l 373 806 l 749 1063 m 802 670 l 968 670 l 776 0 l 652 0 l 645 45 q 370 -14 494 -14 q 175 143 175 -14 q 197 274 175 197 l 311 670 l 478 670 l 365 275 q 356 223 356 244 q 473 142 356 142 q 661 179 552 142 l 802 670 m 1110 1063 l 1173 945 l 807 696 l 734 806 l 1110 1063 z "},"Ų":{"ha":1183,"x_min":271,"x_max":1316,"o":"m 292 337 l 473 964 l 644 964 l 469 353 q 454 272 454 302 q 476 205 454 233 q 659 142 527 142 q 760 152 713 142 q 836 178 806 162 q 891 215 867 193 q 929 256 916 237 q 952 296 942 275 q 965 329 962 318 q 970 349 968 340 q 970 353 970 352 l 1145 964 l 1316 964 l 1139 343 q 1089 210 1116 264 q 1021 120 1061 157 q 939 60 981 83 q 827 11 897 37 q 711 -43 762 -14 q 635 -99 661 -73 q 595 -144 608 -125 q 578 -177 582 -163 q 576 -192 576 -185 q 615 -224 576 -224 q 731 -187 660 -224 l 765 -170 l 799 -280 l 774 -295 q 534 -370 642 -370 q 428 -337 464 -370 q 391 -251 391 -305 q 429 -132 391 -196 q 536 -11 466 -68 q 271 209 271 11 q 292 337 271 263 z "},"ų":{"ha":908,"x_min":174,"x_max":970,"o":"m 476 653 l 366 271 q 358 223 358 243 q 477 142 358 142 q 667 178 558 142 l 804 653 l 970 653 l 778 -20 l 761 -27 q 696 -56 744 -35 q 626 -88 648 -77 q 571 -117 604 -99 q 523 -153 539 -136 q 501 -188 507 -170 q 499 -202 499 -196 q 540 -229 499 -229 q 650 -197 583 -229 l 677 -184 l 707 -286 l 682 -300 q 463 -368 558 -368 q 346 -335 387 -368 q 304 -251 304 -302 q 311 -212 304 -233 q 608 27 349 -77 q 380 -14 482 -14 q 271 3 315 -14 q 174 144 174 41 q 199 278 174 193 q 205 294 201 284 q 210 306 209 304 l 309 653 l 476 653 z "},"Ŵ":{"ha":1628,"x_min":371,"x_max":1883,"o":"m 371 964 l 553 964 l 562 223 l 1053 964 l 1211 964 l 1228 223 l 1711 964 l 1883 964 l 1246 0 l 1082 0 l 1062 737 l 578 0 l 414 0 l 371 964 m 1241 1326 l 1402 1090 l 1258 991 l 1173 1123 l 1009 994 l 920 1084 l 1241 1326 z "},"ŵ":{"ha":1282,"x_min":232,"x_max":1457,"o":"m 232 670 l 406 670 l 420 173 l 766 670 l 911 670 l 923 172 l 1278 670 l 1457 670 l 947 0 l 800 0 l 783 481 l 439 0 l 291 0 l 232 670 m 947 1032 l 1109 796 l 964 698 l 879 829 l 715 700 l 625 790 l 947 1032 z "},"Ŷ":{"ha":968,"x_min":344,"x_max":1262,"o":"m 344 964 l 546 964 l 696 590 l 1067 964 l 1262 964 l 745 450 l 616 0 l 425 0 l 553 450 l 344 964 m 919 1323 l 1088 1087 l 945 989 l 850 1120 l 677 991 l 590 1081 l 919 1323 z "},"ŷ":{"ha":817,"x_min":68,"x_max":1000,"o":"m 225 670 l 401 670 l 475 155 l 824 670 l 1000 670 l 269 -360 l 68 -360 l 338 2 l 225 670 m 731 1029 l 897 793 l 756 694 l 662 826 l 488 696 l 401 787 l 731 1029 z "},"Ÿ":{"ha":968,"x_min":344,"x_max":1262,"o":"m 344 964 l 546 964 l 696 590 l 1067 964 l 1262 964 l 745 450 l 616 0 l 425 0 l 553 450 l 344 964 m 964 1287 l 1166 1287 l 1114 1106 l 912 1106 l 964 1287 m 624 1287 l 825 1287 l 773 1106 l 572 1106 l 624 1287 z "},"Ź":{"ha":1032,"x_min":105,"x_max":1249,"o":"m 401 964 l 1249 964 l 1220 860 l 396 157 l 1037 157 l 991 0 l 105 0 l 135 105 l 945 806 l 357 806 l 401 964 m 1124 1351 l 1169 1219 l 665 991 l 622 1112 l 1124 1351 z "},"ź":{"ha":826,"x_min":99,"x_max":904,"o":"m 286 653 l 893 653 l 868 567 l 373 143 l 763 143 l 722 0 l 99 0 l 124 86 l 614 510 l 245 510 l 286 653 m 838 1063 l 904 941 l 490 680 l 431 795 l 838 1063 z "},"Ż":{"ha":1032,"x_min":105,"x_max":1249,"o":"m 401 964 l 1249 964 l 1220 860 l 396 157 l 1037 157 l 991 0 l 105 0 l 135 105 l 945 806 l 357 806 l 401 964 m 782 1240 l 1002 1240 l 946 1042 l 726 1042 l 782 1240 z "},"ż":{"ha":831,"x_min":99,"x_max":899,"o":"m 286 653 l 899 653 l 874 567 l 374 143 l 769 143 l 728 0 l 99 0 l 124 86 l 618 510 l 245 510 l 286 653 m 568 964 l 797 964 l 745 780 l 515 780 l 568 964 z "},"Ž":{"ha":1032,"x_min":105,"x_max":1249,"o":"m 401 964 l 1249 964 l 1220 860 l 396 157 l 1037 157 l 991 0 l 105 0 l 135 105 l 945 806 l 357 806 l 401 964 m 824 988 l 656 1224 l 799 1322 l 893 1191 l 1064 1320 l 1151 1230 l 824 988 z "},"ž":{"ha":826,"x_min":99,"x_max":918,"o":"m 286 653 l 893 653 l 868 567 l 373 143 l 763 143 l 722 0 l 99 0 l 124 86 l 614 510 l 245 510 l 286 653 m 588 678 l 429 925 l 559 1028 l 661 890 l 843 1026 l 918 934 l 588 678 z "},"Ƒ":{"ha":958,"x_min":-168,"x_max":1147,"o":"m -168 -332 l -101 -196 l -75 -203 q 21 -219 -22 -219 q 182 -104 149 -219 l 488 964 l 1147 964 l 1102 806 l 631 806 l 565 575 l 995 575 l 950 418 l 520 418 l 369 -109 q 289 -256 344 -197 q 166 -341 235 -315 q 14 -367 97 -367 q -146 -340 -64 -367 l -168 -332 z "},"ƒ":{"ha":653,"x_min":-174,"x_max":949,"o":"m 263 653 l 391 653 l 404 701 q 481 852 431 796 q 607 939 532 909 q 765 969 681 969 q 927 941 845 969 l 949 934 l 882 795 l 857 803 q 764 821 802 821 q 698 811 727 821 q 652 789 669 802 q 623 757 635 777 q 605 724 610 738 q 594 693 600 711 l 583 653 l 818 653 l 777 510 l 542 510 l 360 -124 q 9 -367 290 -367 q -152 -339 -68 -367 l -174 -332 l -108 -197 l -82 -203 q 12 -218 -26 -218 q 75 -211 47 -218 q 118 -193 102 -203 q 146 -166 134 -183 q 162 -138 157 -150 q 172 -110 167 -127 l 349 510 l 222 510 l 263 653 z "},"Ȭ":{"ha":1255,"x_min":260,"x_max":1392,"o":"m 785 1463 l 1392 1463 l 1350 1320 l 743 1320 l 785 1463 m 1208 1278 l 1342 1257 l 1328 1229 q 1316 1204 1325 1223 q 1302 1176 1307 1185 q 1286 1148 1297 1167 q 1268 1119 1276 1130 q 1248 1092 1261 1108 q 1224 1066 1235 1076 q 1196 1044 1213 1056 q 1164 1027 1180 1033 q 1128 1016 1148 1021 q 1086 1012 1108 1012 q 1018 1026 1049 1013 q 969 1058 987 1040 q 936 1093 950 1076 q 909 1122 921 1110 q 886 1135 897 1135 q 878 1133 882 1135 q 869 1127 873 1131 q 861 1119 865 1123 q 853 1108 858 1116 q 845 1096 848 1101 q 838 1081 842 1091 q 830 1066 833 1072 q 822 1049 827 1061 q 814 1033 817 1038 l 801 1006 l 667 1027 l 681 1055 q 694 1082 683 1060 q 710 1114 705 1105 q 728 1145 715 1123 q 749 1178 740 1166 q 773 1206 758 1189 q 803 1234 788 1224 q 836 1253 818 1243 q 876 1268 854 1263 q 922 1272 898 1272 q 990 1258 959 1271 q 1039 1226 1021 1244 q 1073 1191 1058 1208 q 1099 1162 1087 1174 q 1122 1149 1112 1149 q 1133 1152 1127 1149 q 1144 1162 1138 1155 q 1155 1175 1150 1169 q 1165 1193 1159 1181 q 1175 1211 1172 1205 q 1185 1232 1178 1217 q 1195 1251 1193 1246 l 1208 1278 m 1126 481 q 1143 589 1143 540 q 1121 692 1143 647 q 1062 764 1099 737 q 979 804 1025 790 q 883 817 934 817 l 881 817 q 760 798 821 817 q 639 741 698 779 q 532 639 580 703 q 462 493 485 575 q 445 382 445 434 q 515 210 445 273 q 702 146 585 146 q 825 166 762 146 q 946 224 887 186 q 1053 330 1005 263 q 1126 481 1101 396 m 935 974 q 1222 886 1116 974 q 1327 642 1327 798 q 1304 492 1327 572 q 1165 230 1262 345 q 933 53 1067 116 q 647 -10 798 -10 q 495 11 565 -10 q 372 73 425 32 q 290 178 319 113 q 260 323 260 242 q 283 479 260 396 q 424 741 326 628 q 653 914 521 854 q 935 974 786 974 z "},"ȭ":{"ha":924,"x_min":161,"x_max":1107,"o":"m 915 979 l 1042 957 l 1027 928 q 1016 904 1025 924 q 1002 876 1006 884 q 987 848 998 867 q 969 819 977 829 q 949 791 962 808 q 926 765 937 774 q 899 744 915 756 q 867 726 883 732 q 832 716 852 720 q 791 711 812 711 q 721 726 752 713 q 670 757 689 739 q 635 793 650 775 q 607 823 620 810 q 585 835 595 835 q 576 833 580 835 q 567 828 572 831 q 559 820 563 824 q 550 809 555 816 q 543 796 546 802 q 534 781 539 791 q 527 766 530 772 q 518 749 524 760 q 510 733 513 739 l 497 707 l 368 726 l 382 755 q 395 782 385 759 q 411 814 406 805 q 428 845 416 823 q 449 878 439 867 q 472 906 458 888 q 502 933 487 924 q 534 953 516 943 q 574 967 553 963 q 619 972 595 972 q 689 957 658 970 q 741 926 721 944 q 776 890 760 908 q 804 861 791 873 q 827 848 817 848 q 839 852 833 848 q 850 862 844 855 q 862 876 857 869 q 873 894 867 883 q 883 913 879 905 q 892 933 886 920 q 901 951 899 946 l 915 979 m 503 1166 l 1107 1166 l 1066 1023 l 461 1023 l 503 1166 m 655 666 q 868 607 791 666 q 946 440 946 549 q 930 338 946 391 q 753 81 884 176 q 448 -14 623 -14 q 237 47 313 -14 q 161 215 161 107 q 178 320 161 263 q 352 573 224 479 q 655 666 480 666 m 602 515 q 499 496 550 515 q 406 436 449 477 q 347 336 363 394 q 338 280 338 307 q 382 177 338 216 q 505 137 427 137 q 665 187 592 137 q 761 319 737 237 q 770 376 770 349 q 721 479 770 442 q 602 515 671 515 z "},"ȷ":{"ha":408,"x_min":-57,"x_max":482,"o":"m 315 653 l 482 653 l 275 -70 q 260 -117 267 -97 q 239 -167 253 -136 q 204 -222 224 -198 q 156 -273 184 -247 q 86 -322 127 -300 q -5 -361 45 -345 l -30 -369 l -57 -239 l -28 -227 q 105 -81 76 -183 l 315 653 z "},"ˆ":{"ha":1003,"x_min":503,"x_max":947,"o":"m 804 1086 l 947 850 l 817 751 l 735 883 l 578 753 l 503 844 l 804 1086 z "},"ˇ":{"ha":731,"x_min":414,"x_max":860,"o":"m 558 722 l 414 958 l 545 1056 l 627 924 l 784 1054 l 860 966 l 558 722 z "},"˘":{"ha":731,"x_min":338,"x_max":939,"o":"m 338 950 l 488 1020 l 493 994 q 501 966 496 980 q 518 930 507 951 q 553 896 530 909 q 607 883 576 883 q 712 918 655 883 q 819 999 770 952 l 841 1020 l 939 937 l 915 913 q 738 785 834 836 q 553 734 641 734 q 461 751 503 734 q 395 796 420 768 q 356 858 370 824 q 339 928 342 891 l 338 950 z "},"˙":{"ha":814,"x_min":533,"x_max":787,"o":"m 589 1006 l 787 1006 l 731 808 l 533 808 l 589 1006 z "},"˚":{"ha":735,"x_min":472,"x_max":840,"o":"m 674 977 q 617 951 640 977 q 594 895 594 924 q 605 864 594 876 q 638 852 616 852 q 685 871 663 852 q 715 915 707 890 q 718 933 718 923 q 706 965 718 952 q 674 977 694 977 m 833 915 q 745 787 812 840 q 605 734 677 734 q 509 771 546 734 q 472 865 472 808 q 479 915 472 887 q 568 1042 500 989 q 707 1095 635 1095 q 803 1058 766 1095 q 840 965 840 1022 q 833 915 840 943 z "},"˛":{"ha":735,"x_min":211,"x_max":667,"o":"m 219 -227 q 371 -16 250 -119 q 637 125 492 88 l 667 132 l 663 4 l 637 -5 q 464 -99 536 -38 q 378 -205 392 -159 q 376 -221 376 -213 q 410 -252 376 -252 q 517 -215 444 -252 l 546 -200 l 573 -308 l 549 -322 q 335 -397 424 -397 q 244 -365 277 -397 q 211 -281 211 -333 q 219 -227 211 -256 z "},"˜":{"ha":949,"x_min":416,"x_max":1101,"o":"m 869 951 q 886 956 878 951 q 907 974 895 960 q 927 996 920 987 q 952 1027 935 1004 q 977 1059 969 1050 l 996 1082 l 1101 1028 l 1082 1002 q 1062 976 1081 1001 q 1037 943 1042 950 q 1011 913 1031 937 q 981 881 991 890 q 949 856 970 872 q 911 832 928 839 q 873 819 895 825 q 830 812 852 812 q 768 828 795 814 q 724 859 741 841 q 695 894 708 876 q 671 924 683 911 q 648 936 660 936 q 631 931 640 936 q 611 914 623 926 q 592 892 600 901 q 567 860 584 882 q 541 827 550 838 l 522 803 l 416 857 l 435 883 q 455 910 437 885 q 480 942 474 935 q 506 972 486 949 q 537 1004 526 995 q 569 1030 548 1014 q 606 1055 589 1047 q 644 1068 623 1062 q 688 1074 666 1074 q 750 1059 722 1072 q 793 1028 777 1046 q 822 993 809 1010 q 846 963 834 975 q 869 951 858 951 z "},"˝":{"ha":1120,"x_min":396,"x_max":1248,"o":"m 446 740 l 396 865 l 844 1126 l 891 1013 l 446 740 m 1197 1126 l 1248 1002 l 799 740 l 752 854 l 1197 1126 z "},"ˮ":{"ha":566,"x_min":250,"x_max":794,"o":"m 613 1053 l 794 1053 l 695 707 l 514 707 l 613 1053 m 349 1053 l 530 1053 l 431 707 l 250 707 l 349 1053 z "},"̂":{"ha":1003,"x_min":503,"x_max":947,"o":"m 804 1086 l 947 850 l 817 751 l 735 883 l 578 753 l 503 844 l 804 1086 z "},"Ḃ":{"ha":1077,"x_min":197,"x_max":1128,"o":"m 761 820 l 603 820 l 526 553 q 737 567 675 556 q 924 699 895 595 q 929 730 929 716 q 761 820 929 820 m 664 444 q 493 437 659 444 l 413 157 l 565 157 q 611 158 592 157 q 666 161 631 158 q 726 169 701 163 q 784 184 752 174 q 838 208 815 194 q 879 244 860 222 q 905 294 897 267 q 910 325 910 309 q 845 413 910 381 q 664 444 780 444 m 473 964 l 840 964 q 960 952 908 964 q 1043 923 1013 941 q 1094 880 1074 905 q 1121 830 1114 854 q 1128 779 1128 806 q 1119 718 1128 749 q 1067 625 1106 672 q 981 545 1028 577 q 1061 475 1032 521 q 1089 371 1089 429 q 1079 302 1089 338 q 1062 257 1073 280 q 1029 203 1050 233 q 979 145 1007 172 q 907 90 950 117 q 812 44 863 63 q 690 12 761 24 q 538 0 618 0 l 197 0 l 473 964 m 830 1287 l 1054 1287 l 998 1089 l 774 1089 l 830 1287 z "},"ḃ":{"ha":910,"x_min":125,"x_max":966,"o":"m 475 637 q 661 667 570 667 q 742 660 704 667 q 815 637 779 654 q 877 597 851 621 q 918 535 903 573 q 934 449 934 497 q 916 334 934 399 q 742 79 869 171 q 443 -14 614 -14 q 264 22 341 -14 l 249 0 l 125 0 l 418 1022 l 585 1022 l 475 637 m 574 519 q 435 498 505 519 l 335 149 q 465 130 399 130 q 525 134 495 130 q 591 151 555 138 q 655 184 626 164 q 708 238 684 204 q 746 317 733 273 q 757 385 757 354 q 745 441 757 417 q 715 480 733 466 q 672 504 697 494 q 623 516 646 513 q 574 519 600 519 m 732 1287 l 966 1287 l 909 1089 l 675 1089 l 732 1287 z "},"Ḋ":{"ha":1200,"x_min":197,"x_max":1260,"o":"m 872 1287 l 1099 1287 l 1042 1089 l 816 1089 l 872 1287 m 759 806 l 599 806 l 413 157 l 526 157 q 605 159 573 157 q 689 168 636 160 q 783 191 743 176 q 872 235 824 205 q 959 307 920 264 q 1059 488 1029 384 q 1074 582 1074 536 q 1061 657 1074 623 q 1028 715 1049 691 q 979 758 1008 740 q 920 787 951 777 q 857 802 890 797 q 759 806 823 806 m 799 964 q 983 947 903 964 q 1116 902 1064 930 q 1200 833 1167 873 q 1246 748 1233 792 q 1260 652 1260 703 q 1238 510 1260 585 q 1194 390 1220 448 q 1123 272 1167 332 q 1024 164 1079 212 q 891 78 969 116 q 721 21 812 39 q 439 0 618 0 l 197 0 l 473 964 l 799 964 z "},"ḋ":{"ha":913,"x_min":159,"x_max":1076,"o":"m 345 332 q 335 267 335 295 q 352 201 335 229 q 397 159 369 173 q 455 140 426 146 q 517 134 485 134 q 661 157 585 134 l 760 505 q 628 524 695 524 q 568 519 597 524 q 504 503 539 515 q 439 469 468 490 q 384 413 410 449 q 345 332 358 378 m 637 1089 l 694 1287 l 928 1287 l 871 1089 l 637 1089 m 650 667 q 800 644 728 667 l 909 1022 l 1076 1022 l 783 0 l 659 0 l 654 31 q 433 -14 544 -14 q 331 -2 378 -14 q 244 35 283 10 q 181 103 204 60 q 159 205 159 146 q 176 316 159 256 q 352 575 224 484 q 650 667 480 667 z "},"Ḟ":{"ha":958,"x_min":197,"x_max":1142,"o":"m 600 806 l 533 575 l 990 575 l 945 418 l 488 418 l 368 0 l 197 0 l 473 964 l 1142 964 l 1097 806 l 600 806 m 773 1287 l 1010 1287 l 954 1089 l 717 1089 l 773 1287 z "},"ḟ":{"ha":661,"x_min":197,"x_max":947,"o":"m 396 695 q 407 732 403 718 q 421 771 412 747 q 440 812 431 795 q 466 850 450 828 q 500 887 482 872 q 545 917 519 901 q 601 942 571 933 q 671 958 631 951 q 756 964 711 964 q 924 936 840 964 l 947 928 l 880 791 l 854 798 q 760 815 797 815 q 629 785 677 815 q 565 701 581 755 l 551 653 l 817 653 l 776 510 l 510 510 l 364 0 l 197 0 l 343 510 l 235 510 l 277 653 l 385 653 l 396 695 m 644 1240 l 890 1240 l 833 1042 l 587 1042 l 644 1240 z "},"Ṁ":{"ha":1389,"x_min":197,"x_max":1522,"o":"m 473 964 l 680 964 l 842 410 l 1325 964 l 1522 964 l 1246 0 l 1076 0 l 1282 721 l 881 276 l 720 276 l 574 721 l 368 0 l 197 0 l 473 964 m 975 1287 l 1191 1287 l 1135 1089 l 918 1089 l 975 1287 z "},"ṁ":{"ha":1326,"x_min":119,"x_max":1333,"o":"m 587 508 q 421 473 528 508 l 286 0 l 119 0 l 307 653 l 431 653 l 437 609 q 686 666 571 666 q 846 599 801 666 q 1131 665 989 665 q 1333 509 1333 665 q 1312 388 1333 459 l 1201 0 l 1034 0 l 1143 383 q 1151 431 1151 411 q 1041 508 1151 508 q 872 473 979 508 q 850 372 869 440 l 743 0 l 576 0 l 686 385 q 694 431 694 413 q 587 508 694 508 m 842 964 l 1048 964 l 991 766 l 786 766 l 842 964 z "},"Ṗ":{"ha":1019,"x_min":197,"x_max":1159,"o":"m 473 964 l 819 964 q 877 963 853 964 q 939 959 900 962 q 1004 948 977 955 q 1063 927 1031 941 q 1113 895 1094 913 q 1146 846 1133 876 q 1159 779 1159 816 q 1145 692 1159 739 q 1098 582 1128 631 q 1033 500 1068 533 q 951 443 998 467 q 861 406 905 419 q 761 384 817 392 q 660 374 705 376 q 557 372 614 372 q 475 374 529 372 l 368 0 l 197 0 l 473 964 m 599 806 l 520 532 q 614 528 572 528 q 710 531 671 528 q 796 542 750 533 q 873 565 842 550 q 929 608 904 581 q 966 674 955 635 q 971 711 971 692 q 958 753 971 735 q 925 781 945 771 q 873 797 905 791 q 811 805 841 803 q 739 806 781 806 l 599 806 m 781 1287 l 999 1287 l 943 1089 l 724 1089 l 781 1287 z "},"ṗ":{"ha":906,"x_min":16,"x_max":930,"o":"m 597 766 l 654 964 l 883 964 l 826 766 l 597 766 m 743 317 q 753 386 753 355 q 737 453 753 425 q 692 494 720 480 q 635 513 664 507 q 574 518 607 518 q 435 496 507 518 l 336 149 q 465 130 401 130 q 541 138 503 130 q 620 165 579 146 q 694 223 661 184 q 743 317 727 262 m 436 621 q 661 666 552 666 q 740 659 703 666 q 813 636 778 652 q 874 596 848 621 q 915 534 899 572 q 930 448 930 496 q 911 333 930 398 q 739 79 865 171 q 443 -14 612 -14 q 296 9 366 -14 l 189 -360 l 16 -360 l 307 653 l 430 653 l 436 621 z "},"Ṡ":{"ha":1034,"x_min":181,"x_max":1188,"o":"m 831 1287 l 1057 1287 l 1001 1089 l 775 1089 l 831 1287 m 907 972 q 1162 932 1042 972 l 1188 924 l 1087 767 l 1063 774 q 850 808 949 808 q 670 776 750 808 q 575 692 590 743 q 572 674 572 684 q 598 626 572 648 q 664 590 623 605 q 755 559 705 574 q 853 526 804 545 q 944 483 903 507 q 1010 422 985 459 q 1036 338 1036 385 q 1026 277 1036 311 q 989 197 1015 237 q 920 119 964 157 q 820 51 876 80 q 683 4 763 22 q 509 -14 602 -14 q 347 4 416 -14 q 203 54 278 21 l 181 63 l 286 227 l 309 217 q 574 156 464 156 q 753 188 679 156 q 842 272 827 220 q 845 294 845 286 q 819 346 845 323 q 752 384 793 368 q 661 414 711 399 q 562 446 612 428 q 471 486 512 464 q 404 545 429 509 q 378 627 378 581 q 387 685 378 654 q 565 890 422 807 q 907 972 708 972 z "},"ṡ":{"ha":799,"x_min":100,"x_max":874,"o":"m 524 766 l 581 964 l 823 964 l 766 766 l 524 766 m 600 197 q 601 199 600 197 q 601 201 601 201 q 563 235 601 220 q 472 262 526 250 q 365 293 418 275 q 274 344 311 311 q 236 425 236 378 q 242 463 236 442 q 267 515 250 490 q 317 569 283 541 q 397 618 351 597 q 512 652 442 639 q 664 666 581 666 q 751 661 713 666 q 804 652 789 656 q 849 637 819 648 l 874 629 l 789 493 l 765 499 q 601 524 684 524 q 525 518 559 524 q 473 505 492 513 q 441 487 454 497 q 424 470 428 477 q 417 457 419 463 q 416 452 416 455 q 454 420 416 435 q 546 391 492 405 q 654 358 600 376 q 746 306 708 339 q 784 227 784 272 q 779 193 784 212 q 754 138 770 164 q 706 83 739 112 q 630 34 674 55 q 518 0 586 14 q 366 -14 450 -14 q 122 39 236 -14 l 100 50 l 188 182 l 211 173 q 413 130 319 130 q 600 197 581 130 z "},"Ṫ":{"ha":932,"x_min":289,"x_max":1204,"o":"m 334 964 l 1204 964 l 1160 806 l 810 806 l 578 0 l 408 0 l 639 806 l 289 806 l 334 964 m 751 1287 l 972 1287 l 916 1089 l 694 1089 l 751 1287 z "},"ṫ":{"ha":615,"x_min":192,"x_max":743,"o":"m 564 12 q 391 -14 458 -14 q 237 20 281 -14 q 192 114 192 54 q 208 208 192 151 l 294 510 l 193 510 l 233 653 l 336 653 l 395 859 l 562 859 l 503 653 l 743 653 l 703 510 l 461 510 l 379 222 q 375 197 375 206 q 398 148 375 168 q 473 129 420 129 q 574 142 491 129 l 602 146 l 591 19 l 564 12 m 431 1099 l 671 1099 l 614 901 l 375 901 l 431 1099 z "},"Ẁ":{"ha":1628,"x_min":371,"x_max":1883,"o":"m 371 964 l 553 964 l 562 223 l 1053 964 l 1211 964 l 1228 223 l 1711 964 l 1883 964 l 1246 0 l 1082 0 l 1062 737 l 578 0 l 414 0 l 371 964 m 1112 1318 l 1461 1079 l 1349 959 l 989 1186 l 1112 1318 z "},"ẁ":{"ha":1282,"x_min":232,"x_max":1457,"o":"m 232 670 l 406 670 l 420 173 l 766 670 l 911 670 l 923 172 l 1278 670 l 1457 670 l 947 0 l 800 0 l 783 481 l 439 0 l 291 0 l 232 670 m 857 1063 l 1088 806 l 956 696 l 711 945 l 857 1063 z "},"Ẃ":{"ha":1628,"x_min":371,"x_max":1883,"o":"m 371 964 l 553 964 l 562 223 l 1053 964 l 1211 964 l 1228 223 l 1711 964 l 1883 964 l 1246 0 l 1082 0 l 1062 737 l 578 0 l 414 0 l 371 964 m 1384 1318 l 1432 1186 l 941 959 l 897 1079 l 1384 1318 z "},"ẃ":{"ha":1282,"x_min":232,"x_max":1457,"o":"m 232 670 l 406 670 l 420 173 l 766 670 l 911 670 l 923 172 l 1278 670 l 1457 670 l 947 0 l 800 0 l 783 481 l 439 0 l 291 0 l 232 670 m 1072 1063 l 1152 945 l 764 696 l 694 806 l 1072 1063 z "},"Ẅ":{"ha":1628,"x_min":371,"x_max":1883,"o":"m 371 964 l 553 964 l 562 223 l 1053 964 l 1211 964 l 1228 223 l 1711 964 l 1883 964 l 1246 0 l 1082 0 l 1062 737 l 578 0 l 414 0 l 371 964 m 956 1287 l 1158 1287 l 1107 1106 l 905 1106 l 956 1287 m 1282 1287 l 1483 1287 l 1432 1106 l 1231 1106 l 1282 1287 z "},"ẅ":{"ha":1293,"x_min":232,"x_max":1468,"o":"m 232 670 l 406 670 l 420 173 l 770 670 l 917 670 l 933 172 l 1289 670 l 1468 670 l 958 0 l 807 0 l 789 481 l 441 0 l 291 0 l 232 670 m 656 964 l 867 964 l 816 783 l 605 783 l 656 964 m 989 964 l 1199 964 l 1147 783 l 937 783 l 989 964 z "},"Ỳ":{"ha":968,"x_min":344,"x_max":1262,"o":"m 344 964 l 546 964 l 696 590 l 1067 964 l 1262 964 l 745 450 l 616 0 l 425 0 l 553 450 l 344 964 m 740 1318 l 1107 1079 l 995 959 l 618 1186 l 740 1318 z "},"ỳ":{"ha":817,"x_min":68,"x_max":1000,"o":"m 225 670 l 401 670 l 475 155 l 824 670 l 1000 670 l 269 -360 l 68 -360 l 338 2 l 225 670 m 608 1063 l 859 806 l 728 696 l 464 945 l 608 1063 z "},"–":{"ha":842,"x_min":106,"x_max":991,"o":"m 150 522 l 991 522 l 948 372 l 106 372 l 150 522 z "},"—":{"ha":994,"x_min":106,"x_max":1144,"o":"m 150 522 l 1144 522 l 1101 372 l 106 372 l 150 522 z "},"―":{"ha":1141,"x_min":106,"x_max":1291,"o":"m 150 522 l 1291 522 l 1247 372 l 106 372 l 150 522 z "},"‘":{"ha":305,"x_min":326,"x_max":517,"o":"m 326 1053 l 516 1053 l 517 703 l 326 703 l 326 1053 z "},"’":{"ha":305,"x_min":191,"x_max":583,"o":"m 393 1053 l 583 1053 l 382 703 l 191 703 l 393 1053 z "},"‚":{"ha":305,"x_min":-60,"x_max":332,"o":"m 141 175 l 332 175 l 130 -174 l -60 -174 l 141 175 z "},"‛":{"ha":305,"x_min":326,"x_max":517,"o":"m 516 1053 l 517 703 l 326 703 l 326 1053 l 516 1053 z "},"“":{"ha":563,"x_min":191,"x_max":841,"o":"m 841 1053 l 640 703 l 449 703 l 650 1053 l 841 1053 m 583 1053 l 382 703 l 191 703 l 393 1053 l 583 1053 z "},"”":{"ha":563,"x_min":191,"x_max":841,"o":"m 650 1053 l 841 1053 l 640 703 l 449 703 l 650 1053 m 393 1053 l 583 1053 l 382 703 l 191 703 l 393 1053 z "},"„":{"ha":563,"x_min":-61,"x_max":589,"o":"m 398 173 l 589 173 l 387 -176 l 197 -176 l 398 173 m 140 173 l 331 173 l 130 -176 l -61 -176 l 140 173 z "},"‟":{"ha":563,"x_min":326,"x_max":774,"o":"m 516 1053 l 517 703 l 326 703 l 326 1053 l 516 1053 m 774 1053 l 774 703 l 584 703 l 583 1053 l 774 1053 z "},"†":{"ha":639,"x_min":264,"x_max":808,"o":"m 463 768 l 306 762 l 344 895 l 497 888 l 545 1053 l 697 1053 l 650 888 l 808 895 l 770 762 l 616 768 l 416 73 l 264 73 l 463 768 z "},"‡":{"ha":639,"x_min":78,"x_max":808,"o":"m 463 768 l 306 762 l 344 895 l 497 888 l 545 1053 l 697 1053 l 650 888 l 808 895 l 770 762 l 616 768 l 422 94 l 580 100 l 542 -33 l 388 -26 l 340 -191 l 188 -191 l 235 -26 l 78 -33 l 116 100 l 270 94 l 463 768 z "},"•":{"ha":434,"x_min":210,"x_max":509,"o":"m 277 613 l 509 613 l 442 381 l 210 381 l 277 613 z "},"…":{"ha":1166,"x_min":86,"x_max":1107,"o":"m 143 170 l 341 170 l 284 -28 l 86 -28 l 143 170 m 526 170 l 724 170 l 667 -28 l 469 -28 l 526 170 m 909 170 l 1107 170 l 1050 -28 l 852 -28 l 909 170 z "},"‰":{"ha":1302,"x_min":-3,"x_max":1337,"o":"m 984 991 l 1167 991 l 180 -28 l -3 -28 l 984 991 m 1324 238 q 1225 77 1295 137 q 1077 17 1156 17 q 981 48 1019 17 q 944 146 944 79 q 959 239 944 186 q 1058 395 988 339 q 1202 450 1127 450 q 1250 444 1227 450 q 1293 424 1272 438 q 1325 385 1314 410 q 1337 323 1337 359 q 1324 238 1337 285 m 1166 330 q 1080 239 1106 330 q 1071 183 1071 205 q 1112 136 1071 136 q 1201 236 1172 136 q 1209 285 1209 263 q 1166 330 1209 330 m 912 238 q 814 77 883 137 q 665 17 745 17 q 570 48 607 17 q 532 146 532 79 q 547 239 532 186 q 646 395 576 339 q 790 450 715 450 q 838 444 816 450 q 881 424 861 438 q 914 385 902 410 q 926 323 926 359 q 912 238 926 285 m 755 330 q 669 239 694 330 q 659 183 659 205 q 700 136 659 136 q 789 236 760 136 q 798 285 798 263 q 755 330 798 330 m 616 741 q 518 579 587 640 q 370 519 449 519 q 274 550 311 519 q 236 649 236 581 q 251 741 236 688 q 293 833 266 792 q 354 900 321 875 q 424 939 388 925 q 495 952 460 952 q 542 946 520 952 q 584 927 564 941 q 617 887 605 913 q 629 825 629 861 q 616 741 629 788 m 460 832 q 374 742 399 832 q 364 686 364 707 q 405 638 364 638 q 494 739 465 638 q 502 787 502 766 q 460 832 502 832 z "},"′":{"ha":275,"x_min":250,"x_max":530,"o":"m 349 1053 l 530 1053 l 431 707 l 250 707 l 349 1053 z "},"″":{"ha":549,"x_min":250,"x_max":804,"o":"m 349 1053 l 530 1053 l 431 707 l 250 707 l 349 1053 m 623 1053 l 804 1053 l 705 707 l 524 707 l 623 1053 z "},"‴":{"ha":824,"x_min":250,"x_max":1079,"o":"m 349 1053 l 530 1053 l 431 707 l 250 707 l 349 1053 m 623 1053 l 804 1053 l 705 707 l 524 707 l 623 1053 m 898 1053 l 1079 1053 l 980 707 l 799 707 l 898 1053 z "},"‵":{"ha":275,"x_min":273,"x_max":505,"o":"m 317 1053 l 505 1053 l 461 703 l 273 703 l 317 1053 z "},"‹":{"ha":412,"x_min":138,"x_max":605,"o":"m 409 698 l 605 698 l 319 422 l 447 147 l 252 147 l 138 422 l 409 698 z "},"›":{"ha":412,"x_min":49,"x_max":516,"o":"m 207 698 l 402 698 l 516 422 l 245 147 l 49 147 l 335 422 l 207 698 z "},"‼":{"ha":882,"x_min":117,"x_max":1031,"o":"m 172 163 l 363 163 l 308 -28 l 117 -28 l 172 163 m 419 991 l 590 991 l 387 283 l 216 283 l 419 991 m 612 163 l 804 163 l 749 -28 l 557 -28 l 612 163 m 860 991 l 1031 991 l 828 283 l 657 283 l 860 991 z "},"‽":{"ha":709,"x_min":175,"x_max":848,"o":"m 230 163 l 421 163 l 366 -28 l 175 -28 l 230 163 m 835 742 q 791 640 819 686 q 731 563 763 594 q 663 505 699 532 q 591 453 627 477 q 525 404 556 429 q 470 343 494 378 q 433 266 446 308 l 426 238 l 269 238 l 418 760 l 575 760 l 522 572 q 613 646 577 610 q 663 726 650 682 q 667 756 667 741 q 633 823 667 795 q 519 850 600 850 q 349 820 431 850 l 320 810 l 302 942 l 329 954 q 574 1002 444 1002 q 655 997 617 1002 q 729 980 692 992 q 790 947 765 967 q 832 896 816 928 q 848 823 848 864 q 835 742 848 785 z "},"⁄":{"ha":703,"x_min":-43,"x_max":1021,"o":"m 838 991 l 1021 991 l 141 -28 l -43 -28 l 838 991 z "},"⁋":{"ha":899,"x_min":120,"x_max":1102,"o":"m 430 1053 l 821 1053 q 865 1052 846 1053 q 916 1047 884 1051 q 970 1037 947 1044 q 1020 1016 994 1030 q 1063 983 1046 1002 q 1091 935 1080 964 q 1102 869 1102 906 q 1086 768 1102 824 q 1031 641 1066 698 q 956 548 996 584 q 868 488 916 513 q 779 452 821 463 q 695 438 737 441 l 562 -28 l 394 -28 l 659 895 l 552 895 l 287 -28 l 120 -28 l 430 1053 z "},"€":{"ha":905,"x_min":96,"x_max":1142,"o":"m 253 314 l 96 314 l 138 458 l 275 458 q 302 547 280 487 l 206 547 l 248 691 l 374 691 q 601 916 465 833 q 890 998 738 998 q 1121 945 1013 998 l 1142 935 l 1050 787 l 1026 798 q 843 841 926 841 q 688 801 764 841 q 553 691 612 761 l 842 691 l 800 547 l 463 547 q 434 458 441 496 l 732 458 l 690 314 l 426 314 q 497 173 439 227 q 657 120 556 120 q 854 159 744 120 l 884 169 l 895 33 l 869 22 q 585 -41 719 -41 q 340 51 428 -41 q 253 298 253 143 l 253 314 z "},"™":{"ha":966,"x_min":331,"x_max":1173,"o":"m 455 623 l 355 623 l 450 954 l 331 954 l 356 1042 l 694 1042 l 669 954 l 550 954 l 455 623 m 749 1042 l 855 1042 l 906 846 l 1064 1042 l 1173 1042 l 1053 623 l 952 623 l 1025 876 l 901 726 l 834 726 l 802 873 l 730 623 l 629 623 l 749 1042 z "},"ﬀ":{"ha":1305,"x_min":-208,"x_max":1598,"o":"m 397 696 q 408 734 404 720 q 422 773 412 748 q 441 814 432 798 q 467 853 451 831 q 502 890 484 876 q 546 922 519 905 q 602 947 572 938 q 671 963 631 957 q 755 969 710 969 q 922 941 838 969 l 944 934 l 877 795 l 851 803 q 758 821 793 821 q 566 703 600 821 l 551 653 l 1039 653 l 1051 696 q 1066 745 1060 726 q 1087 796 1072 764 q 1118 849 1102 828 q 1162 895 1134 869 q 1223 934 1190 920 q 1304 959 1256 949 q 1410 969 1352 969 q 1577 941 1493 969 l 1598 934 l 1532 795 l 1506 803 q 1413 821 1449 821 q 1220 703 1254 821 l 1206 653 l 1467 653 l 1426 510 l 1165 510 l 988 -106 q 978 -141 982 -127 q 964 -177 973 -154 q 946 -216 955 -201 q 921 -252 937 -231 q 887 -287 905 -273 q 844 -316 869 -300 q 788 -340 818 -331 q 720 -354 759 -349 q 635 -360 680 -360 q 469 -333 552 -360 l 446 -326 l 512 -193 l 538 -199 q 631 -214 593 -214 q 820 -111 791 -214 l 998 510 l 510 510 l 334 -106 q 276 -239 309 -194 q -20 -360 191 -360 q -186 -333 -103 -360 l -208 -326 l -143 -193 l -117 -199 q -24 -214 -62 -214 q 165 -111 136 -214 l 343 510 l 235 510 l 277 653 l 385 653 l 397 696 z "},"ﬁ":{"ha":1060,"x_min":-208,"x_max":1227,"o":"m 397 696 q 408 734 404 720 q 422 773 412 748 q 441 814 432 798 q 467 853 451 831 q 502 890 484 876 q 546 922 519 905 q 602 947 572 938 q 671 963 631 957 q 755 969 710 969 q 922 941 838 969 l 944 934 l 878 798 l 852 805 q 758 821 794 821 q 566 703 600 821 l 551 653 l 812 653 l 771 510 l 510 510 l 334 -106 q 276 -239 309 -194 q -20 -360 191 -360 q -186 -333 -103 -360 l -208 -326 l -143 -193 l -117 -199 q -24 -214 -62 -214 q 165 -111 136 -214 l 343 510 l 235 510 l 277 653 l 385 653 l 397 696 m 962 653 l 1128 653 l 939 -7 l 772 -7 l 962 653 m 1040 964 l 1227 964 l 1175 780 l 987 780 l 1040 964 z "},"ﬂ":{"ha":1086,"x_min":-208,"x_max":1248,"o":"m 396 695 q 407 732 403 718 q 421 771 412 747 q 440 812 431 795 q 466 850 450 828 q 500 887 482 872 q 544 918 518 902 q 600 943 570 933 q 669 958 630 952 q 753 964 709 964 q 920 937 837 964 l 943 929 l 876 792 l 850 799 q 758 816 795 816 q 565 702 597 816 l 551 653 l 812 653 l 771 510 l 510 510 l 334 -106 q 276 -239 309 -194 q -20 -360 191 -360 q -186 -333 -103 -360 l -208 -326 l -143 -193 l -117 -199 q -24 -214 -62 -214 q 165 -111 136 -214 l 343 510 l 235 510 l 277 653 l 385 653 l 396 695 m 1081 1025 l 1248 1025 l 952 -7 l 785 -7 l 1081 1025 z "},"ﬃ":{"ha":1714,"x_min":-208,"x_max":1882,"o":"m 397 696 q 408 734 404 720 q 422 773 412 748 q 441 814 432 798 q 467 853 451 831 q 502 890 484 876 q 546 922 519 905 q 602 947 572 938 q 671 963 631 957 q 755 969 710 969 q 922 941 838 969 l 944 934 l 878 798 l 852 805 q 758 821 794 821 q 566 703 600 821 l 551 653 l 1039 653 l 1051 696 q 1066 745 1060 726 q 1087 796 1072 764 q 1118 849 1102 828 q 1162 895 1134 869 q 1223 934 1190 920 q 1304 959 1256 949 q 1410 969 1352 969 q 1577 941 1493 969 l 1598 934 l 1533 798 l 1507 805 q 1413 821 1449 821 q 1220 703 1254 821 l 1206 653 l 1467 653 l 1426 510 l 1165 510 l 988 -106 q 978 -141 982 -127 q 964 -177 973 -154 q 946 -216 955 -201 q 921 -252 937 -231 q 887 -287 905 -273 q 844 -316 869 -300 q 788 -340 818 -331 q 720 -354 759 -349 q 635 -360 680 -360 q 469 -333 552 -360 l 446 -326 l 512 -193 l 538 -199 q 631 -214 593 -214 q 820 -111 791 -214 l 998 510 l 510 510 l 334 -106 q 276 -239 309 -194 q -20 -360 191 -360 q -186 -333 -103 -360 l -208 -326 l -143 -193 l -117 -199 q -24 -214 -62 -214 q 165 -111 136 -214 l 343 510 l 235 510 l 277 653 l 385 653 l 397 696 m 1695 964 l 1882 964 l 1830 780 l 1643 780 l 1695 964 m 1616 653 l 1783 653 l 1594 -7 l 1427 -7 l 1616 653 z "},"ﬄ":{"ha":1741,"x_min":-208,"x_max":1902,"o":"m 396 695 q 407 732 403 718 q 421 771 412 747 q 440 812 431 795 q 466 850 450 828 q 500 887 482 872 q 544 918 518 902 q 600 943 570 933 q 669 958 630 952 q 753 964 709 964 q 920 937 837 964 l 943 929 l 876 792 l 850 799 q 758 816 795 816 q 565 702 597 816 l 551 653 l 1039 653 l 1051 695 q 1062 732 1058 718 q 1076 771 1067 747 q 1095 812 1086 795 q 1121 850 1105 828 q 1155 887 1137 872 q 1199 918 1173 902 q 1255 943 1225 933 q 1324 958 1285 952 q 1409 964 1364 964 q 1575 937 1492 964 l 1597 929 l 1531 792 l 1505 799 q 1412 816 1450 816 q 1220 702 1253 816 l 1206 653 l 1467 653 l 1426 510 l 1165 510 l 988 -106 q 978 -141 982 -127 q 964 -177 973 -154 q 946 -216 955 -201 q 921 -252 937 -231 q 887 -287 905 -273 q 844 -316 869 -300 q 788 -340 818 -331 q 720 -354 759 -349 q 635 -360 680 -360 q 469 -333 552 -360 l 446 -326 l 512 -193 l 538 -199 q 631 -214 593 -214 q 820 -111 791 -214 l 998 510 l 510 510 l 334 -106 q 276 -239 309 -194 q -20 -360 191 -360 q -186 -333 -103 -360 l -208 -326 l -143 -193 l -117 -199 q -24 -214 -62 -214 q 165 -111 136 -214 l 343 510 l 235 510 l 277 653 l 385 653 l 396 695 m 1735 1025 l 1902 1025 l 1607 -7 l 1440 -7 l 1735 1025 z "}}}
